<?xml version="1.0" encoding="utf-8"?>
<!-- Generator: Adobe Illustrator 22.0.0, SVG Export Plug-In . SVG Version: 6.00 Build 0)  -->
<svg version="1.1" id="team-building" xmlns="http://www.w3.org/2000/svg" xmlns:xlink="http://www.w3.org/1999/xlink" x="0px"
	 y="0px" viewBox="0 0 907.8 1010" style="enable-background:new 0 0 907.8 1010;" xml:space="preserve">
<style type="text/css">
	.st0{fill:url(#SVGID_1_);}
	.st1{fill:url(#SVGID_2_);}
	.st2{fill:url(#SVGID_3_);}
	.st3{fill:url(#SVGID_4_);}
	.st4{fill:url(#SVGID_5_);}
	.st5{fill:url(#SVGID_6_);}
</style>
<g id="team-building-team-building">
	<g>
		<linearGradient id="SVGID_1_" gradientUnits="userSpaceOnUse" x1="716" y1="301" x2="716" y2="105">
			<stop  offset="0" style="stop-color:#6F4118"/>
			<stop  offset="0.5" style="stop-color:#CC9639"/>
			<stop  offset="1" style="stop-color:#6F4118"/>
		</linearGradient>
		<path class="st0" d="M685,295.6c9.7,3.3,20.1,5.4,30.9,5.4c54.1,0,98.1-43.9,98.1-98c0-54-43.9-98-98-98s-98,44-98,98
			c0,8.6,1.5,16.8,3.5,24.7C649.6,242.1,671.8,265.8,685,295.6L685,295.6z"/>
		<linearGradient id="SVGID_2_" gradientUnits="userSpaceOnUse" x1="757.85" y1="1010" x2="757.85" y2="322.4">
			<stop  offset="0" style="stop-color:#6F4118"/>
			<stop  offset="0.5" style="stop-color:#CC9639"/>
			<stop  offset="1" style="stop-color:#6F4118"/>
		</linearGradient>
		<path class="st1" d="M808.2,322.4h-114c3.2,12.9,4.8,26.2,4.8,39.5v288.8c0,39.2-31.7,70.9-70.5,70.9c-7.2,0-14.1-1.2-20.6-3.3
			V1010H706V727h20v283h98.2V454.7h11.1V688c0,20.2,16.4,36.5,36.5,36.5c20.2,0,36-16.3,36-36.5V429.3
			C907.8,370.3,867.2,322.4,808.2,322.4L808.2,322.4z"/>
	</g>
	<g>
		<linearGradient id="SVGID_3_" gradientUnits="userSpaceOnUse" x1="191.8" y1="301.1" x2="191.8" y2="105.1">
			<stop  offset="0" style="stop-color:#6F4118"/>
			<stop  offset="0.5" style="stop-color:#CC9639"/>
			<stop  offset="1" style="stop-color:#6F4118"/>
		</linearGradient>
		<path class="st2" d="M191.8,301.1c11.2,0,21.7-2.2,31.7-5.6c13.3-28.8,35.2-52.1,62.4-66.6c2.3-8.3,3.9-16.8,3.9-25.8
			c0-54-43.9-98-98-98s-98,44-98,98C93.8,257.1,137.7,301.1,191.8,301.1L191.8,301.1z"/>
		<linearGradient id="SVGID_4_" gradientUnits="userSpaceOnUse" x1="150" y1="1010" x2="150" y2="322.4">
			<stop  offset="0" style="stop-color:#6F4118"/>
			<stop  offset="0.5" style="stop-color:#CC9639"/>
			<stop  offset="1" style="stop-color:#6F4118"/>
		</linearGradient>
		<path class="st3" d="M208.9,650.7V361.9c0-13.7,1.9-26.9,5-39.5H99.7C40.6,322.4,0,370.3,0,429.3v258.8c0,20.2,15.8,36.5,36,36.5
			s36.5-16.3,36.5-36.5V454.7h11.1V1010h98.2V727h20.1v283H300V718.3c-6.6,2-13.5,3.3-20.7,3.3C240.5,721.6,208.9,689.8,208.9,650.7
			L208.9,650.7z"/>
	</g>
	<linearGradient id="SVGID_5_" gradientUnits="userSpaceOnUse" x1="454.7" y1="218.8" x2="454.7" y2="0">
		<stop  offset="0" style="stop-color:#6F4118"/>
		<stop  offset="0.5" style="stop-color:#CC9639"/>
		<stop  offset="1" style="stop-color:#6F4118"/>
	</linearGradient>
	<path class="st4" d="M454.7,218.8c60.4,0,109.4-49,109.4-109.4C564,49,515,0,454.7,0c-60.4,0-109.4,49-109.4,109.4
		C345.2,169.8,394.2,218.8,454.7,218.8L454.7,218.8z"/>
	<linearGradient id="SVGID_6_" gradientUnits="userSpaceOnUse" x1="453.85" y1="1010" x2="453.85" y2="242.6">
		<stop  offset="0" style="stop-color:#6F4118"/>
		<stop  offset="0.5" style="stop-color:#CC9639"/>
		<stop  offset="1" style="stop-color:#6F4118"/>
	</linearGradient>
	<path class="st5" d="M628.4,691.5c22.6,0,40.3-18.3,40.3-40.8V361.9c0-13.8-2.1-27.1-5.9-39.5c-14.2-46.4-53.3-79.8-105.3-79.8h-42
		l-4.8,4.1l-47.4,40.7l34.9,93.6l-46.6,101.3l-41.9-99.7l31.8-95.2l-44.7-40.6l-4.7-4.2h-40.4c-52,0-92.1,33.4-106.6,79.8
		c-4,12.8-6.1,26.1-6.1,39.5v288.8c0,22.5,17.8,40.8,40.2,40.8c7.6,0,14.6-2.2,20.7-5.8c4.8-2.9,9.1-6.7,12.4-11.2
		c4.8-6.7,7.8-14.9,7.8-23.8V390.3h13.8V1010h109.5V694.2h22.4V1010h109.6V720.5V390.3h12.4v260.4c0,8.8,3,17,7.8,23.8
		c3.2,4.5,7.5,8.3,12.3,11.2C613.9,689.2,620.9,691.5,628.4,691.5L628.4,691.5z"/>
</g>
</svg>
