<?xml version="1.0" encoding="utf-8"?>
<!-- Generator: Adobe Illustrator 22.0.0, SVG Export Plug-In . SVG Version: 6.00 Build 0)  -->
<svg version="1.1" id="Layer_1" xmlns="http://www.w3.org/2000/svg" xmlns:xlink="http://www.w3.org/1999/xlink" x="0px" y="0px"
	 viewBox="0 0 307 55" style="enable-background:new 0 0 307 55;" xml:space="preserve">
<style type="text/css">
	.st0{fill:#00D632;}
	.st1{fill:#00D632;stroke:#FAFFFB;stroke-width:2.5;stroke-miterlimit:10;}
	.st2{fill:#FFFFFF;}
</style>
<g id="Layer_2_1_">
	<path class="st0" d="M294,54H13C6.4,54,1,48.6,1,42V13C1,6.4,6.4,1,13,1h281c6.6,0,12,5.4,12,12v29C306,48.6,300.6,54,294,54z"/>
</g>
<g id="Layer_1_1_">
	<g>
		<path class="st1" d="M87.1,7c4,0,6,0,8.2,0.7c2.4,0.9,4.2,2.7,5.1,5.1c0.7,2.2,0.7,4.2,0.7,8.2v12c0,4,0,6-0.7,8.2
			c-0.9,2.4-2.7,4.2-5.1,5.1C93.1,47,91.1,47,87.1,47H74.9c-4,0-6,0-8.2-0.7c-2.4-0.9-4.2-2.7-5.1-5.1C61,39.1,61,37.1,61,33.1V20.9
			c0-4,0-6,0.7-8.2c0.9-2.4,2.7-4.2,5.1-5.1C68.9,7,70.9,7,74.9,7H87.1z"/>
		<path class="st2" d="M87.5,21.9c0.3,0.3,0.8,0.3,1.1,0l1.6-1.6c0.3-0.3,0.3-0.9,0-1.2C89,18,87.5,17.2,86,16.6l0.5-2.4
			c0.1-0.5-0.3-1-0.8-1h-3c-0.4,0-0.7,0.3-0.8,0.7L81.4,16c-4,0.2-7.4,2.3-7.4,6.4c0,3.6,2.8,5.2,5.8,6.3c2.8,1.1,4.3,1.5,4.3,3
			c0,1.6-1.5,2.5-3.7,2.5c-2,0-4.1-0.7-5.7-2.3c-0.3-0.3-0.8-0.3-1.1,0l0,0l-1.7,1.7c-0.3,0.3-0.3,0.9,0,1.2c1.3,1.3,3,2.2,4.9,2.8
			l-0.5,2.2c-0.1,0.5,0.3,1,0.8,1h3c0.4,0,0.7-0.3,0.8-0.7l0.4-2.1c4.8-0.3,7.8-3,7.8-6.9c0-3.6-2.9-5.1-6.5-6.3
			c-2-0.8-3.8-1.3-3.8-2.8s1.6-2.1,3.3-2.1C84.2,19.8,86.2,20.7,87.5,21.9L87.5,21.9z"/>
	</g>
	<g>
		<g>
			<path d="M118.3,19.1c0.8-1.1,1.9-1.7,3.5-1.7c1.4,0,2.5,0.3,3.2,1s1.1,1.7,1.2,3.1h4.6c-0.2-2.5-1.2-4.4-2.7-5.8
				c-1.6-1.4-3.7-2.1-6.2-2.1c-1.9,0-3.5,0.4-4.9,1.3c-1.4,0.9-2.5,2.1-3.3,3.8c-0.8,1.6-1.1,3.5-1.1,5.7v1.4c0,3.4,0.8,6,2.5,8
				c1.6,1.9,3.9,2.9,6.8,2.9c2.6,0,4.7-0.7,6.3-2.1c1.6-1.4,2.5-3.3,2.7-5.7h-4.6c-0.1,1.4-0.5,2.4-1.2,3c-0.7,0.7-1.8,1-3.2,1
				c-1.6,0-2.7-0.6-3.5-1.7c-0.7-1.1-1.1-2.9-1.1-5.3v-1.7C117.1,21.9,117.5,20.2,118.3,19.1z M146.9,25.3c0-1.9-0.6-3.3-1.8-4.3
				s-2.8-1.5-4.9-1.5c-1.4,0-2.6,0.2-3.7,0.7c-1.1,0.5-1.9,1.1-2.5,1.9s-0.9,1.7-0.9,2.7h4.4c0-0.6,0.2-1.1,0.6-1.5
				c0.4-0.4,1-0.5,1.8-0.5c0.9,0,1.5,0.2,1.9,0.7s0.6,1.1,0.6,1.8v1h-2c-2.5,0-4.4,0.5-5.7,1.4s-2,2.3-2,4.1c0,1.4,0.5,2.6,1.6,3.6
				c1.1,0.9,2.4,1.4,4,1.4c1.7,0,3.1-0.6,4.2-1.8c0.1,0.6,0.2,1.1,0.4,1.5h4.5v-0.3c-0.4-0.8-0.7-2-0.7-3.6v-7.3H146.9z M142.4,31.7
				c-0.3,0.5-0.7,0.9-1.2,1.2c-0.6,0.3-1.2,0.4-1.8,0.4c-0.7,0-1.2-0.2-1.6-0.5c-0.4-0.4-0.6-0.8-0.6-1.4v-0.3
				c0.1-1.5,1.3-2.3,3.6-2.3h1.7L142.4,31.7L142.4,31.7z M160.1,27.1c-0.8-0.3-1.7-0.5-2.8-0.7s-1.9-0.5-2.4-0.8s-0.7-0.7-0.7-1.2
				s0.2-1,0.6-1.3c0.4-0.3,1-0.5,1.7-0.5c0.9,0,1.5,0.2,1.9,0.6s0.6,0.9,0.6,1.6h4.4c0-1.6-0.6-2.9-1.9-3.9c-1.3-1-3-1.5-5.1-1.5
				c-2,0-3.6,0.5-4.8,1.5s-1.8,2.2-1.8,3.7c0,2.5,2,4.2,5.9,5c1.2,0.2,2.1,0.5,2.6,0.8s0.8,0.7,0.8,1.3c0,0.5-0.2,0.9-0.7,1.3
				c-0.4,0.3-1.1,0.5-1.9,0.5c-0.9,0-1.6-0.2-2.2-0.6c-0.5-0.4-0.8-1-0.9-1.8h-4.2c0,1,0.3,1.9,0.9,2.8c0.6,0.9,1.5,1.5,2.5,2
				c1.1,0.5,2.3,0.7,3.7,0.7c2.1,0,3.7-0.5,5-1.4s2-2.2,2-3.7C163.6,29.5,162.5,28,160.1,27.1z M175.3,19.5c-1.8,0-3.3,0.7-4.4,2.1
				v-8.8h-4.4v23.6h4.4V24.6c0.6-1,1.5-1.5,2.8-1.5c1,0,1.6,0.2,2,0.7s0.6,1.2,0.6,2.1v10.5h4.4V25.7
				C180.7,21.5,178.9,19.5,175.3,19.5z M198.7,14l-8.3,22.4h4.9l1.5-4.6h8.1l1.6,4.6h4.9L202.9,14H198.7z M198,28l2.8-8.4l2.8,8.4
				H198z M220.9,19.5c-1.7,0-3.1,0.6-4.2,1.9l-0.2-1.6h-4.1v23h4.4V35c1,1.2,2.4,1.8,4.1,1.8c2,0,3.5-0.8,4.7-2.3s1.7-3.6,1.7-6.2
				V28c0-2.7-0.6-4.8-1.7-6.3S222.9,19.5,220.9,19.5z M219.7,33.1c-1.4,0-2.4-0.5-2.9-1.6v-6.8c0.5-1.1,1.5-1.6,2.9-1.6
				c1,0,1.8,0.4,2.4,1.3c0.5,0.8,0.8,2,0.8,3.6C222.9,31.4,221.9,33.1,219.7,33.1z M243.4,21.7c-1.1-1.5-2.7-2.3-4.8-2.3
				c-1.7,0-3.1,0.6-4.2,1.9l-0.2-1.6h-4.1v23h4.4v-7.8c1,1.2,2.4,1.8,4.1,1.8c2,0,3.5-0.8,4.7-2.3s1.7-3.6,1.7-6.2V28
				C245.1,25.3,244.5,23.2,243.4,21.7z M237.4,33.1c-1.4,0-2.4-0.5-2.9-1.6v-6.8c0.5-1.1,1.5-1.6,2.9-1.6c1,0,1.8,0.4,2.4,1.3
				c0.5,0.8,0.8,2,0.8,3.6C240.6,31.4,239.6,33.1,237.4,33.1z"/>
		</g>
	</g>
</g>
</svg>
