<?xml version="1.0" encoding="utf-8"?>
<!-- Generator: Adobe Illustrator 22.0.0, SVG Export Plug-In . SVG Version: 6.00 Build 0)  -->
<svg version="1.1" id="Layer_1" xmlns="http://www.w3.org/2000/svg" xmlns:xlink="http://www.w3.org/1999/xlink" x="0px" y="0px"
	 viewBox="0 0 150 75" style="enable-background:new 0 0 150 75;" xml:space="preserve">
<style type="text/css">
	.st0{fill:#FFFFFF;}
</style>
<g>
	<g>
		<path class="st0" d="M4.8,37c0,7.4,4.2,14.2,10.8,17.4V19.5C9,22.8,4.8,29.5,4.8,37z M9.4,43.6L9.4,43.6L9.4,43.6
			c-0.5,0.2-1.2-0.1-1.4-0.6l0,0c-0.2-0.5-0.3-1-0.4-1.5c-0.2-0.6,0.2-1.2,0.8-1.4c0.6-0.2,1.2,0.2,1.3,0.8c0.1,0.2,0.1,0.4,0.2,0.6
			c0.1,0.2,0.2,0.4,0.2,0.6C10.2,42.7,10,43.4,9.4,43.6z M12.5,25.7L12.5,25.7c0.4,0.4,0.5,1.1,0.1,1.5C10.4,30,9.1,33.4,9.1,37
			c0,0.6-0.5,1.1-1.1,1.1S6.9,37.6,6.9,37c0-4.1,1.4-8,4.1-11.2C11.4,25.4,12.1,25.4,12.5,25.7z M60,13.2H18.9
			c-0.6,0-1.1,0.5-1.1,1.1v45.5c0,0.6,0.5,1.1,1.1,1.1H60c0.6,0,1.1-0.5,1.1-1.1V14.3C61.1,13.7,60.6,13.2,60,13.2z M86.4,13v48h59
			V13C145.4,13,86.4,13,86.4,13z M141.7,57.3H90.1v-3.7h7.4v1.8h3.7v-1.8h40.6V57.3z M141.7,49.9h-40.6v-1.8h-3.7v1.8h-7.4v-3.7
			h51.6V49.9z M141.7,42.5H90.1V16.7h51.6V42.5z M123.6,29.7l-15-8.7v17.5l2.8-1.6L123.6,29.7z M112.2,27.4l4,2.3l-4,2.3V27.4z
			 M76.1,28.8h-5.5v6.6h-6v5h6v6.8h5.5v-6.8h6v-5h-6V28.8z"/>
	</g>
</g>
</svg>
