<?xml version="1.0" encoding="utf-8"?>
<!-- Generator: Adobe Illustrator 22.0.0, SVG Export Plug-In . SVG Version: 6.00 Build 0)  -->
<svg version="1.1" id="Layer_1" xmlns="http://www.w3.org/2000/svg" xmlns:xlink="http://www.w3.org/1999/xlink" x="0px" y="0px"
	 viewBox="0 0 75 75" style="enable-background:new 0 0 75 75;" xml:space="preserve">
<style type="text/css">
	.st0{fill:#FFFFFF;}
</style>
<path class="st0" d="M1.8,37.5c0,9.3,5.2,17.9,13.8,22.3V15.2C7,19.6,1.8,27.9,1.8,37.5z M7.5,45.8c-0.8,0.3-1.4,0-1.7-0.8l0,0
	c-0.3-0.6-0.5-1.1-0.5-1.9c-0.3-0.8,0.3-1.4,1.1-1.7c0.8-0.3,1.4,0.3,1.7,1.1c0,0.3,0.3,0.6,0.3,0.8c0,0.3,0.3,0.6,0.3,0.8
	C8.6,44.9,8.3,45.5,7.5,45.8L7.5,45.8L7.5,45.8z M11.7,23.2c0.5,0.6,0.5,1.4,0.3,1.9c-3,3.6-4.7,8-4.7,12.4c0,0.8-0.5,1.4-1.4,1.4
	s-1.4-0.6-1.4-1.4c0-5.2,1.9-10.2,5.2-14C10,22.7,11.1,22.7,11.7,23.2L11.7,23.2z"/>
<circle class="st0" cx="37.5" cy="43" r="2.8"/>
<path class="st0" d="M71.9,7.3H19.6c-0.8,0-1.4,0.5-1.4,1.4v57.8c0,0.8,0.6,1.4,1.4,1.4h52.3c0.8,0,1.4-0.6,1.4-1.4V8.6
	C73.3,7.8,72.7,7.3,71.9,7.3z M21,36.1c0-0.8,0.6-1.4,1.4-1.4s1.4,0.6,1.4,1.4v2.8c0,0.8-0.6,1.4-1.4,1.4S21,39.7,21,38.9V36.1z
	 M21,30.6c0-0.8,0.8-1.4,1.4-1.4s1.1,0.6,1.4,1.4c0,0.3,0,0.8-0.3,1.1S22.7,32,22.4,32s-0.8,0-1.1-0.3C21.3,31.4,21,30.9,21,30.6z
	 M21,43.8c0-0.3,0.3-0.3,0.3-0.6c0.6-0.5,1.4-0.5,1.9,0c0.3,0.3,0.3,0.6,0.3,1.1c0,0.3,0,0.8-0.3,1.1c0,0.3-0.6,0.3-0.8,0.3
	s-0.8,0-1.1-0.3s-0.6-0.6-0.3-1.1C21,44.1,21,44.1,21,43.8z M70.5,55.4c0,0.8-0.6,1.4-1.4,1.4c-3.9,0-6.9,3-6.9,6.9
	c0,0.8-0.6,1.4-1.4,1.4H30.6c-0.8,0-1.4-0.6-1.4-1.4c0-3.9-3-6.9-6.9-6.9c-0.8,0-1.4-0.6-1.4-1.4v-5.5c0-0.8,0.6-1.4,1.4-1.4
	s1.4,0.6,1.4,1.4V54c4.1,0.6,7.4,3.8,8.3,8.3h27.5c0.6-4.1,3.9-7.4,8.3-8.3v-4.1c0-0.8,0.6-1.4,1.4-1.4s1.4,0.6,1.4,1.4V55.4z
	 M38.9,54c-0.8,0-1.4-0.6-1.4-1.4s0.6-1.4,1.4-1.4h13.8c0.8,0,1.4,0.6,1.4,1.4S53.4,54,52.6,54H38.9z M51.3,58.1
	c0,0.8-0.6,1.4-1.4,1.4h-8.3c-0.8,0-1.4-0.6-1.4-1.4s0.6-1.4,1.4-1.4h8.3C50.7,56.8,51.3,57.3,51.3,58.1z M48.5,40.3
	c0-3,2.5-5.5,5.5-5.5c1.1,0,1.9,0.3,2.8,0.8v-7.4L43,29.3V43c0,3-2.5,5.5-5.5,5.5S32,46,32,43s2.5-5.5,5.5-5.5
	c1.1,0,1.9,0.3,2.8,0.8V22.4c0-0.3,0-0.3,0-0.6c0,0,0,0,0-0.3c0,0,0-0.3,0.3-0.3c0,0,0,0,0.3,0c0,0,0.3,0,0.3-0.3h0.3h0.3l16.5-1.4
	l0,0l0,0h0.3h0.3c0,0,0.3,0,0.3,0.3c0,0,0,0,0.3,0l0,0l0.3,0.3l0,0c0,0.3,0,0.3,0,0.6V40c0,3-2.5,5.5-5.5,5.5S48.5,43.3,48.5,40.3z
	 M69.9,45.5c0,0.3-0.6,0.3-0.8,0.3s-0.8,0-0.8-0.3c-0.3-0.3-0.6-0.6-0.6-1.1s0-0.8,0.6-1.1c0.6-0.6,1.4-0.6,1.9,0
	c0.3,0.3,0.3,0.6,0.3,0.8C70.5,44.7,70.5,45.2,69.9,45.5z M70.5,38.9c0,0.8-0.6,1.4-1.4,1.4s-1.4-0.6-1.4-1.4v-2.8
	c0-0.8,0.6-1.4,1.4-1.4s1.4,0.6,1.4,1.4V38.9z M69.9,31.7c0,0.3-0.6,0.3-0.8,0.3s-0.8,0-0.8-0.3c-0.3-0.3-0.6-0.6-0.6-1.1
	s0-0.8,0.6-1.1c0.6-0.6,1.4-0.6,1.9,0c0.3,0.3,0.3,0.6,0.3,0.8C70.5,30.9,70.5,31.4,69.9,31.7z M70.5,25.1c0,0.8-0.6,1.4-1.4,1.4
	s-1.4-0.6-1.4-1.4V21c-4.1-0.6-7.4-3.8-8.3-8.3H32c-0.6,4.1-3.8,7.4-8.3,8.3v4.1c0,0.8-0.6,1.4-1.4,1.4S21,25.9,21,25.1v-5.5
	c0-0.8,0.6-1.4,1.4-1.4c3.8,0,6.9-3,6.9-6.9c0-0.8,0.6-1.4,1.4-1.4h30.3c0.8,0,1.4,0.5,1.4,1.4c0,3.8,3,6.9,6.9,6.9
	c0.8,0,1.4,0.6,1.4,1.4V25.1z"/>
<path class="st0" d="M56.8,22.4L43,23.8v2.8l13.8-1.1V22.4z"/>
<circle class="st0" cx="54" cy="40.3" r="2.8"/>
</svg>
