<?xml version="1.0" encoding="utf-8"?>
<!-- Generator: Adobe Illustrator 22.0.0, SVG Export Plug-In . SVG Version: 6.00 Build 0)  -->
<svg version="1.1" id="Layer_1" xmlns="http://www.w3.org/2000/svg" xmlns:xlink="http://www.w3.org/1999/xlink" x="0px" y="0px"
	 viewBox="0 0 300 300" style="enable-background:new 0 0 300 300;" xml:space="preserve">
<g>
	<g>
		<path d="M71.5,91.4h17.1c1.6-0.1,2.8-1.3,2.9-2.9v-5.2h29.7c-14.5,8-24.9,21.8-28.6,37.9h-9.6c-0.7,0-1.4,0.2-1.9,0.7
			c-0.5,0.5-0.8,1.2-0.8,1.9v21.4c0,0.7,0.3,1.4,0.8,1.9c0.5,0.5,1.2,0.8,1.9,0.8h21.4c0.7,0,1.4-0.3,1.9-0.8
			c0.5-0.5,0.8-1.2,0.7-1.9v-21.4c0-0.7-0.3-1.4-0.7-1.9c-0.5-0.5-1.2-0.8-1.9-0.7h-6.3c4.7-18.3,18.8-32.7,37-37.7
			c2,6,7.6,10,13.9,10c6.3,0,11.9-4,13.9-10c18.2,5,32.3,19.4,37,37.7h-6.3c-1.5,0-2.8,1.1-2.8,2.6v21.4c0,1.5,1.3,2.7,2.8,2.7h21.4
			c1.5,0,2.7-1.2,2.8-2.7v-21.4c0-1.5-1.3-2.6-2.8-2.6h-9.6c-3.7-16.1-14.1-29.9-28.6-37.9h30.1v5.2c0.1,1.6,1.3,2.8,2.9,2.9H227
			c1.5,0,2.7-1.4,2.7-2.9V71.4c0-1.5-1.2-2.7-2.7-2.7H210c-1.5,0-2.9,1.2-2.9,2.7v6.4h-43.4C163.2,70.1,156.8,64,149,64
			c-7.8,0-14.2,6.1-14.7,13.8H91.4v-6.4c0-1.5-1.4-2.7-2.9-2.7H71.5c-1.5,0-2.7,1.2-2.7,2.7v17.1C68.8,90,70,91.4,71.5,91.4z
			 M101.6,126.5v15.9H85.7v-15.9H101.6z M212.5,126.5v15.9h-16.2v-15.9H212.5z M212.5,74.1h11.8v11.8h-11.8V74.1z M142.5,72.1
			c3.1-3.1,8-3.6,11.7-1.2c3.7,2.5,5.1,7.2,3.4,11.3c-1.7,4.1-6,6.4-10.4,5.6c-4.3-0.9-7.5-4.7-7.5-9.1
			C139.7,76.2,140.7,73.9,142.5,72.1z M74.2,74.1H86v11.8H74.2V74.1z M229.7,171.5h-53.4l3.2-21c0.1-0.6,0-1.1-0.3-1.6l-27.6-52.1
			c-0.5-0.9-1.4-1.4-2.4-1.4c-1,0-1.9,0.6-2.4,1.4l-27.6,52.1c-0.3,0.5-0.4,1.1-0.3,1.6l3.4,21H68.9c-1.5,0.1-2.8,1.3-2.8,2.9v47.8
			c0,1.5,1.3,2.7,2.8,2.8h160.8c1.5,0,2.8-1.2,2.8-2.8v-47.8C232.4,172.9,231.2,171.6,229.7,171.5z M146.6,109v19.1
			c-4.4,1.3-7.1,5.7-6.4,10.2c0.7,4.5,4.6,7.9,9.1,7.9c4.6,0,8.5-3.4,9.1-7.9c0.7-4.5-2.1-8.9-6.4-10.2V109l22,41.6l-3.2,20.9h-42.9
			l-3.4-20.9L146.6,109z M227.1,219.6h-11.5v-7.7c0-1.5-1.2-2.7-2.7-2.7c-1.5,0-2.7,1.2-2.7,2.7v7.7h-8.8v-13.3
			c0-1.5-1.2-2.7-2.7-2.7c-1.5,0-2.7,1.2-2.7,2.7v13.3h-8.8v-7.7c0-1.5-1.2-2.7-2.7-2.7c-1.5,0-2.7,1.2-2.7,2.7v7.7h-8.5v-13.3
			c0-1.5-1.2-2.7-2.7-2.7c-1.5,0-2.7,1.2-2.7,2.7v13.3h-8.8v-7.7c0-1.5-1.2-2.7-2.7-2.7c-1.5,0-2.7,1.2-2.7,2.7v7.7h-8.8v-13.3
			c0-1.5-1.2-2.7-2.7-2.7c-1.5,0-2.7,1.2-2.7,2.7v13.3h-8.8v-7.7c0-1.5-1.2-2.7-2.7-2.7c-1.5,0-2.7,1.2-2.7,2.7v7.7h-8.5v-13.3
			c0-1.5-1.2-2.7-2.7-2.7s-2.7,1.2-2.7,2.7v13.3h-8.8v-7.7c0-1.5-1.2-2.7-2.7-2.7s-2.7,1.2-2.7,2.7v7.7h-8.8v-13.3
			c0-1.5-1.2-2.7-2.7-2.7s-2.7,1.2-2.7,2.7v13.3H71.5v-28.1h155.6V219.6z M227.1,186.1H71.5V177h155.6V186.1z"/>
	</g>
</g>
</svg>
