<?xml version="1.0" encoding="utf-8"?>
<!-- Generator: Adobe Illustrator 22.0.0, SVG Export Plug-In . SVG Version: 6.00 Build 0)  -->
<svg version="1.1" id="Layer_2" xmlns="http://www.w3.org/2000/svg" xmlns:xlink="http://www.w3.org/1999/xlink" x="0px" y="0px"
	 viewBox="0 0 300 300" style="enable-background:new 0 0 300 300;" xml:space="preserve">
<style type="text/css">
	.st0{fill-rule:evenodd;clip-rule:evenodd;}
	.st1{fill-rule:evenodd;clip-rule:evenodd;fill:url(#SVGID_1_);}
</style>
<path class="st0" d="M250.5,177.6h-25.2v57.9l-57.9-57.9H76.2c-8.3,0-15-6.7-15-15V52.5c0-8.3,6.7-15,15-15h174.3
	c8.3,0,15,6.7,15,15v110.1C265.5,170.9,258.8,177.6,250.5,177.6z M133.5,79.1H96.7v55H110v-21.9h21.4V102H110V89.4h23.5V79.1z
	 M160.1,79.1h-12.5l-20.2,55h14.2l3.2-10.3H163l3.2,10.3h14.2L160.1,79.1z M230.3,105.2c0-5.3-1.1-10-3.1-14.1
	c-2-4.1-4.9-7.2-8.5-9.5c-3.7-2.2-7.8-3.3-12.5-3.3c-4.7,0-8.9,1.1-12.6,3.4c-3.7,2.2-6.5,5.4-8.5,9.5c-2,4.1-3,8.9-3,14.3v2.9
	c0.1,5.2,1.1,9.9,3.2,13.9c2,4,4.9,7.1,8.5,9.3c3.6,2.2,7.8,3.2,12.5,3.2c1.1,0,2.2-0.1,3.3-0.2l11.8,9.5l8.2-7l-8.9-7
	c3-2.3,5.3-5.3,7-9.1c1.7-3.8,2.5-8.2,2.5-13.3V105.2z M206.3,124.5c-3.5,0-6.2-1.4-8-4.3c-1.8-2.9-2.7-7-2.7-12.4v-2.5
	c0-5.4,0.9-9.5,2.7-12.3c1.8-2.8,4.4-4.2,7.9-4.2c3.4,0,6,1.4,7.8,4.2c1.8,2.8,2.7,7,2.7,12.4v2.5c0,5.3-0.9,9.4-2.7,12.3
	C212.3,123.1,209.7,124.5,206.3,124.5z M153.9,94.5l5.9,19.1H148L153.9,94.5z"/>
<linearGradient id="SVGID_1_" gradientUnits="userSpaceOnUse" x1="113.6999" y1="260.9998" x2="113.6999" y2="49.1999">
	<stop  offset="0" style="stop-color:#6F4118"/>
	<stop  offset="0.5" style="stop-color:#CC9639"/>
	<stop  offset="1" style="stop-color:#6F4118"/>
</linearGradient>
<path class="st1" d="M61.2,52.5v110.1c0,8.3,6.7,15,15,15h91.2l25.5,25.5h-60L75,261v-57.9H49.5c-8.3,0-15-6.7-15-15V64.2
	c0-8.3,6.7-15,15-15h12.1C61.3,50.3,61.2,51.4,61.2,52.5z"/>
</svg>
