<?xml version="1.0" encoding="utf-8"?>
<!-- Generator: Adobe Illustrator 22.0.0, SVG Export Plug-In . SVG Version: 6.00 Build 0)  -->
<svg version="1.1" id="Layer_1" xmlns="http://www.w3.org/2000/svg" xmlns:xlink="http://www.w3.org/1999/xlink" x="0px" y="0px"
	 viewBox="0 0 24 24" style="enable-background:new 0 0 24 24;" xml:space="preserve">
<path d="M20,5h-1.2c-0.4-1.2-1.5-2-2.8-2s-2.4,0.8-2.8,2H4C3.4,5,3,5.4,3,6s0.4,1,1,1h9.2c0.4,1.2,1.5,2,2.8,2s2.4-0.8,2.8-2H20
	c0.6,0,1-0.4,1-1S20.6,5,20,5z M16,7c0.6,0,1-0.4,1-1s-0.4-1-1-1c-0.6,0-1,0.4-1,1S15.4,7,16,7z M3,12c0-0.6,0.4-1,1-1h1.2
	C5.6,9.8,6.7,9,8,9s2.4,0.8,2.8,2H20c0.6,0,1,0.4,1,1s-0.4,1-1,1h-9.2c-0.4,1.2-1.5,2-2.8,2s-2.4-0.8-2.8-2H4C3.4,13,3,12.6,3,12z
	 M8,13c0.6,0,1-0.4,1-1s-0.4-1-1-1c-0.6,0-1,0.4-1,1S7.4,13,8,13z M4,17c-0.6,0-1,0.4-1,1s0.4,1,1,1h9.2c0.4,1.2,1.5,2,2.8,2
	s2.4-0.8,2.8-2H20c0.6,0,1-0.4,1-1s-0.4-1-1-1h-1.2c-0.4-1.2-1.5-2-2.8-2s-2.4,0.8-2.8,2H4z M17,18c0,0.6-0.4,1-1,1
	c-0.6,0-1-0.4-1-1s0.4-1,1-1C16.6,17,17,17.4,17,18z"/>
</svg>
