<?xml version="1.0" encoding="utf-8"?>
<!-- Generator: Adobe Illustrator 22.0.0, SVG Export Plug-In . SVG Version: 6.00 Build 0)  -->
<svg version="1.1" id="Capa_1" xmlns="http://www.w3.org/2000/svg" xmlns:xlink="http://www.w3.org/1999/xlink" x="0px" y="0px"
	 viewBox="0 0 75 75" style="enable-background:new 0 0 75 75;" xml:space="preserve">
<style type="text/css">
	.st0{fill:#FFFFFF;}
</style>
<g>
	<path class="st0" d="M12.1,72.9h50.7V2.1H12.1L12.1,72.9L12.1,72.9z M50.4,60.1H24.6v-2.7h25.8V60.1z M53.9,54.5H21.1v-2.7h32.8
		V54.5L53.9,54.5z M24.6,49.3v-2.7h25.8v2.7H24.6z M14.8,4.7h45.4v27L14.8,42.6V4.7z M23.3,25.6c-0.5-0.3-1.2-0.3-1.9-0.2l-3.2,0.8
		l1.8,7.5l1.6-0.4l-0.7-2.7l1.6-0.4c0.8-0.2,1.4-0.5,1.8-1c0.4-0.5,0.4-1.2,0.2-2C24.2,26.4,23.8,25.8,23.3,25.6z M22.7,28.5
		c-0.2,0.2-0.4,0.4-0.8,0.5l-1.4,0.4L20,27.1l1.4-0.4c0.4-0.1,0.7-0.1,0.9,0c0.2,0.1,0.4,0.4,0.5,0.8C22.9,28,22.9,28.3,22.7,28.5z
		 M26.5,24.2l-0.8,8.2l1.6-0.4l0.1-1.7l2.8-0.7L31,31l1.7-0.4l-4.5-6.9L26.5,24.2z M27.5,28.9l0.2-3.2l1.7,2.7L27.5,28.9z
		 M39.4,28.3c-0.1-0.1-0.1-0.4-0.2-0.7l-0.1-0.5c-0.1-0.5-0.3-0.9-0.5-1.1c-0.2-0.2-0.5-0.4-0.9-0.4c0.4-0.2,0.6-0.6,0.7-1
		c0.1-0.4,0.1-0.8,0-1.1c-0.1-0.3-0.2-0.6-0.3-0.8c-0.2-0.2-0.3-0.4-0.5-0.5c-0.2-0.2-0.5-0.3-0.8-0.4c-0.3,0-0.7,0-1.2,0.1
		l-3.6,0.9l1.8,7.5l1.5-0.4l-0.7-3l1.5-0.4c0.4-0.1,0.8-0.1,1,0s0.4,0.4,0.5,0.9l0.2,0.7c0.1,0.2,0.1,0.4,0.2,0.6
		c0,0.1,0.1,0.2,0.2,0.4l1.7-0.4l0-0.2C39.6,28.6,39.5,28.5,39.4,28.3z M36.7,25.1c-0.2,0.1-0.4,0.2-0.7,0.3l-1.7,0.4l-0.5-2
		l1.7-0.4c0.3-0.1,0.6-0.1,0.8,0c0.3,0.1,0.5,0.4,0.6,0.8C37,24.5,36.9,24.8,36.7,25.1z M45.2,21L43,21.5l1.5,6.2l-1.6,0.4l-1.5-6.2
		l-2.3,0.6l-0.3-1.3l6.1-1.5L45.2,21z M51.9,17.9l-1.4,5.3l0.7,2.8l-1.6,0.4l-0.7-2.8l-3.8-4.1l1.8-0.4l2.4,2.9l0.7-3.6L51.9,17.9z
		 M56.1,23.3l0.4,1.5L55,25.2l-0.4-1.5L56.1,23.3z M54.9,23l-1.3-3.4l-0.5-1.9l1.6-0.4l0.5,1.9l0.4,3.6L54.9,23z M43.8,11.1H18.1
		V9.2h25.7L43.8,11.1L43.8,11.1z"/>
</g>
</svg>
