<?xml version="1.0" encoding="utf-8"?>
<!-- Generator: Adobe Illustrator 22.0.0, SVG Export Plug-In . SVG Version: 6.00 Build 0)  -->
<svg version="1.1" id="Layer_1" xmlns="http://www.w3.org/2000/svg" xmlns:xlink="http://www.w3.org/1999/xlink" x="0px" y="0px"
	 viewBox="0 0 370 122" style="enable-background:new 0 0 370 122;" xml:space="preserve">
<style type="text/css">
	.st0{fill:#FBFDFE;}
	.st1{fill:#00D532;}
	.st2{fill:#D5D5D5;}
	.st3{fill:#EFEFEF;}
	.st4{fill:#243A80;}
	.st5{fill:#EDEEEE;}
	.st6{fill:#D6D6D6;}
	.st7{fill:#169BD5;}
	.st8{fill:#169AD5;}
	.st9{fill:#179BD5;}
	.st10{fill:#EAEAEA;}
	.st11{fill:#EDEDED;}
	.st12{fill:#F1F1F1;}
	.st13{fill:#EBEBEB;}
	.st14{fill:#FEFEFE;}
	.st15{fill:#F8F8F8;}
	.st16{fill:#DFDFDF;}
	.st17{fill:#F6F6F6;}
	.st18{fill:#E8E8E8;}
	.st19{fill:#B5B5B5;}
	.st20{fill:#DBDBDB;}
	.st21{fill:#C8C8C8;}
	.st22{fill:#B4B4B4;}
	.st23{fill:#F06F25;}
	.st24{fill:#212C63;}
	.st25{fill:#227EBA;}
	.st26{fill:#217EB9;}
	.st27{fill:#268DD1;}
	.st28{fill:#F5F8FA;}
	.st29{fill:#6C9BAF;}
	.st30{fill:#3BA0CB;}
	.st31{fill:#92A1AA;}
	.st32{fill:#FBFBFC;}
	.st33{fill:#FCFCFD;}
	.st34{fill:#FCFDFE;}
	.st35{fill:#183C67;}
	.st36{fill:#1C497B;}
	.st37{fill:#1F4D80;}
	.st38{fill:#1A416E;}
	.st39{fill:#1B4575;}
	.st40{fill:#E77D04;}
	.st41{fill:#B1895B;}
	.st42{fill:#E9E9E9;}
	.st43{fill:#C3C3C3;}
	.st44{fill:#FCFCFC;}
	.st45{fill:#268FD4;}
	.st46{fill:#6A8BA0;}
	.st47{fill:#FE8E05;}
	.st48{fill:#FDFDFD;}
	.st49{fill:#1A4473;}
	.st50{fill:#E4E4E4;}
	.st51{fill:#EEEEEE;}
	.st52{fill:#F9F9F9;}
	.st53{fill:#F0F0F0;}
	.st54{fill:#F4F4F4;}
	.st55{fill:#F3F3F3;}
	.st56{fill:#F34501;}
	.st57{fill:#F5F5F5;}
	.st58{fill:#3A3C3E;}
	.st59{fill:#070707;}
	.st60{fill:#222526;}
	.st61{fill:#F9F8F8;}
	.st62{fill:#F06C20;}
	.st63{fill:#EEEDEC;}
	.st64{fill:#57595A;}
	.st65{fill:#BFBFBF;}
	.st66{fill:#F17732;}
	.st67{fill:#F07027;}
	.st68{fill:#ED9122;}
	.st69{fill:#EF6414;}
	.st70{fill:#F1742C;}
	.st71{fill:#DCDCDC;}
	.st72{fill:#E7E7E7;}
	.st73{fill:#E3E3E3;}
	.st74{fill:#ABABAB;}
	.st75{fill:#585A5B;}
	.st76{fill:#E0E0E0;}
	.st77{fill:#D2D2D2;}
	.st78{fill:#27ABE2;}
	.st79{fill:#217EBA;}
	.st80{fill:#2AB8F4;}
	.st81{fill:#2DC4FE;}
	.st82{fill:#F7AE2B;}
	.st83{fill:#E21D2C;}
	.st84{fill:#19406C;}
	.st85{fill:#064E84;}
	.st86{fill:#F71925;}
	.st87{fill:#EED3B5;}
	.st88{fill:#E67200;}
	.st89{fill:#BAD1E2;}
	.st90{fill:#0C72B3;}
	.st91{fill:#FEFEF9;}
	.st92{fill:#D0D0D0;}
	.st93{fill:#46494A;}
	.st94{fill:#E5E5E5;}
	.st95{fill:#505253;}
	.st96{fill:#3D3F41;}
	.st97{fill:#DBDBDC;}
	.st98{fill:#636466;}
	.st99{fill:#EAE8E7;}
	.st100{fill:#F06A1E;}
	.st101{fill:#F07129;}
	.st102{fill:#CFCFCF;}
	.st103{fill:#DADBDB;}
	.st104{fill:#050505;}
	.st105{fill:#CACACA;}
	.st106{fill:#FDFDFE;}
	.st107{fill:#3485C3;}
	.st108{fill:#116BB5;}
	.st109{fill:#4281BE;}
	.st110{fill:#4180BD;}
	.st111{fill:#12A3DF;}
	.st112{fill:#089FDE;}
	.st113{fill:#4280BD;}
	.st114{fill:#176FB8;}
	.st115{fill:#11A3E0;}
	.st116{fill:#14A4E0;}
	.st117{fill:#09A0DE;}
	.st118{fill:#15A5E0;}
	.st119{fill:#0AA0DE;}
	.st120{fill:#106AB5;}
	.st121{fill:#16A5E0;}
	.st122{fill:#4181BE;}
	.st123{fill:#1069B4;}
	.st124{fill:#106BB5;}
	.st125{fill:#2485C5;}
	.st126{fill:#FBFBF9;}
	.st127{fill:#FAFAF8;}
	.st128{fill:#FAFAF9;}
	.st129{fill:#F7EEED;}
	.st130{fill:#F8F7F2;}
	.st131{fill:#E08831;}
	.st132{fill:#E10E2B;}
	.st133{fill:#CF7633;}
	.st134{fill:#E68734;}
	.st135{fill:#F8C62A;}
	.st136{fill:#D31931;}
	.st137{fill:#FDCD28;}
	.st138{fill:#FECC28;}
	.st139{fill:#F0822B;}
	.st140{fill:#D66B33;}
	.st141{fill:#F5C42C;}
	.st142{fill:#EAAA34;}
	.st143{fill:#F3AB29;}
	.st144{fill:#E6432C;}
	.st145{fill:#D06234;}
	.st146{fill:#FDC129;}
	.st147{fill:#CC4036;}
	.st148{fill:#EB9F2E;}
	.st149{fill:#E4AD31;}
	.st150{fill:#DA2238;}
	.st151{fill:#D36570;}
	.st152{fill:#FCC42A;}
	.st153{fill:#D73030;}
	.st154{fill:#D56D2F;}
	.st155{fill:#FBFAFA;}
	.st156{fill:#FAF6F7;}
	.st157{fill:#FAF6F6;}
	.st158{fill:#DE1E2C;}
	.st159{fill:#DE2331;}
	.st160{fill:#E70A29;}
	.st161{fill:#DF032C;}
	.st162{fill:#DD111A;}
	.st163{fill:#DD0A2D;}
	.st164{fill:#DE2F3B;}
	.st165{fill:#EA0728;}
	.st166{fill:#E90629;}
	.st167{fill:#E10211;}
	.st168{fill:#DE1F2E;}
	.st169{fill:#DD1F2E;}
	.st170{fill:#DD6E79;}
	.st171{fill:#F6FEFE;}
	.st172{fill:#E6E6E6;}
	.st173{fill:#424546;}
	.st174{fill:#A6A7A7;}
	.st175{fill:#D0D1D1;}
	.st176{fill:#F06F24;}
	.st177{fill:#090909;}
	.st178{fill:#282A2C;}
	.st179{fill:#000101;}
	.st180{fill:#A1A1A1;}
	.st181{fill:#E0DEDE;}
	.st182{fill:#E7E0DB;}
	.st183{fill:#D8D7D8;}
	.st184{fill:#CCCCCC;}
	.st185{fill:#23A9E1;}
	.st186{fill:#25ABE2;}
	.st187{fill:#28ABE2;}
	.st188{fill:#25AAE1;}
	.st189{fill:#28ABE1;}
	.st190{fill:#24A9E1;}
	.st191{fill:#3F80BD;}
	.st192{fill:#09A0DF;}
	.st193{fill:#3287C5;}
	.st194{fill:#4283C0;}
	.st195{fill:#228FCE;}
	.st196{fill:#3286C5;}
	.st197{fill:#2B86C5;}
	.st198{fill:#2C84C4;}
	.st199{fill:#3F7EBD;}
	.st200{fill:#3589C6;}
	.st201{fill:#1374BC;}
	.st202{fill:#187CC1;}
	.st203{fill:#2D85C4;}
	.st204{fill:#3F8FC8;}
	.st205{fill:#2F86C4;}
	.st206{fill:#3086C4;}
	.st207{fill:#126DB7;}
	.st208{fill:#227FC1;}
	.st209{fill:#21A9E1;}
	.st210{fill:#23AAE2;}
	.st211{fill:#21A7E0;}
	.st212{fill:#23A8E1;}
	.st213{fill:#22A8E0;}
	.st214{fill:#1D72B9;}
	.st215{fill:#3387C5;}
	.st216{fill:#1F73B9;}
	.st217{fill:#2073B8;}
	.st218{fill:#1B70B7;}
	.st219{fill:#2476BA;}
	.st220{fill:#2577BB;}
	.st221{fill:#2875B9;}
	.st222{fill:#2078BC;}
	.st223{fill:#2974B8;}
	.st224{fill:#166FB7;}
	.st225{fill:#1E71B8;}
	.st226{fill:#2884C4;}
	.st227{fill:#1C74BA;}
	.st228{fill:#F2AF34;}
	.st229{fill:#EEA624;}
	.st230{fill:#E1402D;}
	.st231{fill:#F9C227;}
	.st232{fill:#DB1828;}
	.st233{fill:#F7EDE8;}
	.st234{fill:#D62F43;}
	.st235{fill:#DA3445;}
	.st236{fill:#D62236;}
	.st237{fill:#DC1C1F;}
	.st238{fill:#D45362;}
	.st239{fill:#DA2D3A;}
	.st240{fill:#DD1A29;}
	.st241{fill:#E0404A;}
	.st242{fill:#E77C05;}
	.st243{fill:#1E7CB8;}
	.st244{fill:#1375B5;}
	.st245{fill:#1C7BB8;}
	.st246{fill:#1879B7;}
	.st247{fill:#046CB1;}
	.st248{fill:#036CB0;}
	.st249{fill:#D19D5B;}
	.st250{fill:#D5D2D0;}
	.st251{fill:#404244;}
	.st252{fill:#DEDEDE;}
	.st253{fill:#F5F7FA;}
	.st254{fill:#D5E8F4;}
	.st255{fill:#1E82C4;}
	.st256{fill:#F4F7FA;}
	.st257{fill:#EEF6FA;}
	.st258{fill:#F6FAFC;}
	.st259{fill:#E2EFF8;}
	.st260{fill:#277ABD;}
	.st261{fill:#2170B6;}
	.st262{fill:#ECF3F9;}
	.st263{fill:#307BBC;}
	.st264{fill:#EFF2F3;}
</style>
<g id="Layer_3">
	<path class="st0" d="M267.6,101.7H12.3c-2.8,0-5-2.2-5-5L7.3,24.8c0-2.8,2.2-5,5-5h255.3c2.8,0,5,2.2,5,5l0.1,71.8
		C272.6,99.4,270.4,101.7,267.6,101.7z"/>
</g>
<g>
	<path class="st1" d="M321.2,20.1c6,0.1,13.7-0.3,21.4,0.3c7.5,0.5,13,3.9,16,10.9c1.3,3.1,1.6,6.4,1.6,9.7c0.1,13.3,0,26.6,0,39.9
		c0,2.1-0.2,4.3-0.7,6.4c-1.5,7.6-7.3,12.9-15,13.9c-3.2,0.4-6.5,0.5-9.7,0.5c-10.9,0-21.9,0-32.8,0c-3.2,0-6.4-0.1-9.6-0.8
		c-7.1-1.6-12.3-7.3-13.3-14.7c-0.2-1.3-0.3-2.6-0.3-3.9c0-14.6,0-29.2,0-43.9c0-7.6,4.2-14.1,11-16.8c3.3-1.3,6.8-1.4,10.2-1.6
		c0.5,0,0.9,0,1.4,0C307.4,20.1,313.4,20.1,321.2,20.1z"/>
	<path class="st2" d="M246.4,38.1c-21.5,0-42.9,0-64.4,0c-0.3,0-0.5,0-0.8,0c-0.2,0-0.4-0.1-0.5-0.3c0-0.3,0.2-0.4,0.5-0.4
		c0.2,0,0.4,0,0.6,0c21.6,0,43.2,0,64.8,0c0.2,0,0.3,0,0.5,0c0.2,0.4,0.1,0.7,0.1,1.1c0,14.6,0,29.3,0,43.9c0,0.4,0.1,0.8-0.1,1.1
		l0,0c-0.4,0.2-0.9,0.1-1.4,0.1c-71.8,0-143.6,0-215.4,0c-0.5,0-0.9,0.1-1.4-0.1l0,0c-0.2-0.4-0.1-0.7-0.1-1.1c0-14.6,0-29.3,0-43.9
		c0-0.4-0.1-0.8,0.1-1.1c0.1,0,0.2,0,0.3,0c0.3,0.3,0.4,0.7,0.4,1.1c0,14.3,0,28.7,0,43c0,1.4,0,1.4,1.4,1.4c71.3,0,142.7,0,214,0
		c1.4,0,1.4,0,1.4-1.4c0-14,0-28,0-42C246.5,39,246.7,38.5,246.4,38.1z"/>
	<path class="st3" d="M164.7,47c6.7,0,13.4,0,20.2,0c2.9,0,4.5,1.6,4.5,4.5c0,7.7-0.1,15.4,0,23.1c0,3.8-2,4.9-5,4.9
		c-4.2,0.1-8.5,0-12.7,0c-8.8,0-17.6,0-26.4,0c-1,0-2-0.2-3-0.6c-1.4-0.5-2.3-1.8-2.3-3.5c0-8.1,0-16.2,0-24.3
		c0-2.7,1.5-4.1,4.2-4.1C151.1,47,157.9,47,164.7,47z"/>
	<path class="st4" d="M102.6,43.4c-1.1,0-2.1,0-3.2,0c-0.9,0-1.1-0.3-1-1.2c0.8-5.1,1.6-10.2,2.4-15.3c0.1-0.6,0.4-0.8,1-0.8
		c2.6,0,5.2,0,7.7,0c2.5,0.1,3.7,1.7,3.7,4.8c0.2,0.3,0.1,0.6-0.3,0.5c-0.7-0.5-1.4-0.7-2.2-0.7c-1.5,0-3,0-4.5,0
		c-0.8,0-1.3,0.4-1.4,1.1c-0.3,1.7-0.6,3.4-0.7,5.1c-0.3,1.6-0.6,3.2-0.8,4.8C103.1,42.5,103.1,43,102.6,43.4z"/>
	<path class="st5" d="M218.2,79.2c-6.8,0-13.6,0-20.4,0c-2.8,0-4.2-1.4-4.2-4.2c0-7.9,0.1-15.9,0-23.8c0-2.8,2.1-4.1,4.2-4.2
		c2.2,0,4.5,0,6.7,0c11.2,0,22.5,0.1,33.7,0c2.9,0,4.7,2.4,4.6,4.7c-0.1,7.7,0,15.4,0,23.1c0,1.5-0.3,3-1.6,3.9
		c-0.6,0.5-1.4,0.6-2.1,0.6C232.1,79.2,225.2,79.2,218.2,79.2z"/>
	<path class="st6" d="M246.4,38.1c0.5,0.5,0.3,1,0.3,1.6c0,13.8,0,27.6,0,41.5c0,0.6,0,1.3,0.2,1.9c-72.5,0-144.9,0-217.3,0
		c0-15,0-30,0-45c0.1-0.1,0.2-0.1,0.3,0c0,14.5,0,29.1,0,43.6c0,0.7,0.2,1.1,1,1c0.3,0,0.6,0,0.9,0c71,0,141.9,0,212.9,0
		c2.1,0,1.9,0.2,1.9-1.9C246.4,66.6,246.4,52.3,246.4,38.1z"/>
	<path class="st4" d="M126.4,30.3c1,0.1,2,0.1,3,0.2c1.5,0.2,2.4,1.2,2.5,2.7c0.3,3-1.7,5.2-4.7,5.4c-0.3,0-0.5,0-0.8,0
		c-1.2-0.2-1.7,0.4-1.7,1.5c0,0.5-0.2,1-0.2,1.5c0,0.9-0.5,1.1-1.3,1.1c-1.9,0-1.9,0-1.6-1.9c0.5-3,1-5.9,1.3-8.9
		c0.2-1.2,0.6-1.7,1.8-1.6C125.2,30.4,125.8,30.3,126.4,30.3C126.4,30.3,126.4,30.3,126.4,30.3z"/>
	<path class="st7" d="M157.7,30.3c1,0.1,2,0.1,3,0.2c1.6,0.2,2.5,1.3,2.5,3c0,3.2-1.8,5.1-5,5.1c-2.4,0-2,0.1-2.3,2
		c0,0.2-0.1,0.3-0.1,0.5c-0.2,1.4-1.6,2.1-2.9,1.6c-0.4-0.2-0.3-0.4-0.3-0.7c0.6-3.6,1.1-7.2,1.7-10.8c0.1-0.6,0.5-0.8,1.1-0.8
		C156.2,30.3,156.9,30.3,157.7,30.3C157.7,30.3,157.7,30.3,157.7,30.3z"/>
	<path class="st8" d="M102.6,43.4c0.6-2.1,0.4-4.3,1.2-6.3c0.3-0.6,0.9-0.5,1.4-0.6c0.8,0,1.7,0,2.5-0.1c2.2-0.4,3.9-1.5,4.6-3.8
		c0.1-0.4,0.2-0.8,0.6-1.1c0.1-0.2,0.2-0.4,0.2-0.5c1.1,0.6,1.5,1.5,1.5,2.7c0.2,3.8-2.1,6.3-5.9,6.4c-1.2,0-1.6,0.4-1.7,1.5
		c-0.1,1-0.3,2-0.4,3c-0.1,0.7-0.4,1-1.1,0.9c-0.4,0-0.8,0-1.1,0C102.3,45.5,102.3,45.5,102.6,43.4z"/>
	<path class="st4" d="M138.7,42.6c-0.3-0.1-1,0.4-1.2-0.6c-0.1-0.3-0.4,0.1-0.6,0.2c-1.7,0.9-3.4,0.8-4.5-0.1
		c-1.1-1-1.5-2.7-0.9-4.4c1-2.9,3.9-4.2,6.7-2.8c0.4,0.2,0.4,0,0.7-0.1c0.7-0.5,1.6-0.3,2.4-0.2c0.4,0,0.3,0.4,0.3,0.7
		c-0.3,2.1-0.7,4.2-1,6.4C140.4,42.7,139.7,42.7,138.7,42.6z"/>
	<path class="st7" d="M170.3,42.6c-0.4-0.1-1,0.3-1.3-0.5c-0.2-0.5-0.5,0.1-0.8,0.2c-2.4,1.2-4.9,0.3-5.4-2c-0.4-2,0.1-3.7,1.7-5
		c1.5-1.3,3.2-1.5,5-0.6c0.4,0.2,0.5,0.1,0.8-0.1c0.7-0.4,1.6-0.3,2.3-0.1c0.5,0.1,0.3,0.6,0.2,1c-0.3,1.9-0.6,3.8-0.9,5.7
		C171.9,42.3,171.5,42.9,170.3,42.6z"/>
	<path class="st6" d="M29,83.5c72.7,0,145.4,0,218.1,0c-0.4,0.4-0.9,0.2-1.3,0.2c-71.8,0-143.7,0-215.5,0
		C29.9,83.7,29.4,83.9,29,83.5z"/>
	<path class="st4" d="M146.9,39c1-1.5,1.8-2.7,2.7-3.9c0.4-0.6,2.5-0.9,3-0.5c0.4,0.3,0.1,0.5,0,0.7c-2.2,3.2-4.4,6.5-6.7,9.7
		c-0.3,0.4-2.5,0.7-3,0.4c-0.2-0.1-0.2-0.3-0.2-0.4c0.1-0.2,0.1-0.3,0.3-0.4c2.1-1.9,1.9-4,0.7-6.3c-0.5-0.9-0.7-2-1-3
		c-0.2-0.5,0-0.8,0.5-0.8c1.9-0.2,2.2-0.1,2.8,1.8C146.3,37.1,146.6,37.9,146.9,39z"/>
	<path class="st2" d="M29.8,38.1c-0.1,0-0.2,0-0.3,0c-0.3-0.2-0.2-0.5-0.3-0.7c21.7,0,43.3,0,65,0c0.3,0,0.5,0,0.8,0
		c0.2,0,0.4,0.2,0.4,0.4c0,0.2-0.2,0.3-0.3,0.3c-0.3,0-0.7,0-1,0C72.6,38.1,51.2,38.1,29.8,38.1z"/>
	<path class="st5" d="M80.3,78.7c-0.4,0.5-1,0.5-1.6,0.5c-13.9,0-27.8,0-41.7,0c-2,0-3.6-1.6-3.6-3.6c0-8.3,0-16.6,0-25
		c0-1.9,1.1-3.1,3-3.4c0.1,0.1,0.1,0.2,0.1,0.3c-0.1,0.2-0.2,0.4-0.4,0.6c-1,0.7-1.8,1.5-1.7,2.8c0,2.1,0.1,4.3,0,6.4
		c0,2.2,0.1,4.4,0,6.5c0,2.8,0,5.6,0,8.4c0,0.8,0,1.6,0,2.4c-0.1,1.7,0.6,2.9,2.3,3.5c1,0.3,2.1,0.4,3.1,0.4c11.9,0,23.9,0,35.8,0
		c1.1,0,2.1-0.2,3.1-0.3c0.1,0,0.3-0.1,0.5-0.1C79.7,78.1,80.1,78.2,80.3,78.7z"/>
	<path class="st9" d="M174.3,42.7c-0.8,0.2-1.2-0.2-1-1.3c0.6-3.3,1-6.7,1.6-10c0.2-1,1.8-1.6,2.6-1c0.3,0.2,0.2,0.5,0.2,0.8
		c-0.5,3.5-1.1,7.1-1.6,10.6C176,42.9,175.2,42.6,174.3,42.7z"/>
	<path class="st10" d="M36.4,47.5c0-0.1,0-0.2,0-0.3c0.4-0.4,0.9-0.2,1.3-0.2c13.4,0,26.9,0,40.3,0c2.1,0,3.5,0.9,4.1,2.5
		c0.1,0.4-0.2,0.4-0.5,0.4c-0.8-0.8-1.6-1.6-2.7-2.1c-0.6-0.1-1.1,0-1.6,0c-12.9,0-25.8,0-38.8,0C37.7,47.8,37,48,36.4,47.5z"/>
	<path class="st11" d="M89.1,79.2c-1.9-0.7-3-2.2-3-4.7c0-7.5,0-15.1,0-22.6c0-1.2,0-2.6,1.2-3.4c0.2,0,0.5-0.2,0.6,0.2
		c0,0.5-0.4,0.9-0.5,1.4c-0.1,0.2-0.2,0.5-0.3,0.7C87.1,50.9,87,51,87,51.1c-0.1,8-0.1,16.1,0,24.1c0,0.1,0.1,0.2,0.2,0.4
		c0.5,1,0.9,2,1.9,2.6c0.1,0.1,0.3,0.2,0.4,0.3c0.2,0.1,0.4,0.3,0.5,0.5c0,0.1-0.1,0.2-0.2,0.3C89.6,79.3,89.3,79.3,89.1,79.2z"/>
	<path class="st12" d="M88.1,47.7c0.5-0.7,1.3-0.8,2-0.8c14,0,28,0,42.1,0c1.8,0,3.5,1.4,3.6,3c0,0.1,0,0.1,0,0.2
		c-0.1,0.3-0.3,0.5-0.6,0.3c-0.6-0.9-1.1-1.9-2.2-2.4c-0.1,0-0.2-0.1-0.3-0.2c-0.1-0.1-0.2-0.1-0.3-0.2c-0.1-0.1-0.2-0.1-0.4-0.1
		c-13.7,0-27.4,0-41,0c-0.3,0-0.6,0-0.9,0c-0.1,0-0.3,0.1-0.4,0.2c-0.1,0.1-0.3,0.1-0.4,0.2C89.1,48,89,48,88.9,48
		C88.6,48,88.3,47.9,88.1,47.7z"/>
	<path class="st12" d="M89.1,79.2c0.3,0,0.5,0,0.8,0c0.6-0.5,1.4-0.4,2.1-0.4c12.7,0,25.5,0,38.2,0c0.6,0,1.2,0,1.8,0
		c0.1,0,0.3-0.1,0.4-0.2c0.1-0.1,0.2-0.2,0.3-0.3c0.1-0.1,0.2-0.2,0.3-0.2c1.1-0.4,1.6-1.4,2.2-2.3c0.4-0.2,0.5,0,0.6,0.3
		c0,0.1,0,0.1,0,0.2c-0.1,1.6-1.8,3-3.6,3c-5.3,0-10.6,0-15.9,0c-8.6,0-17.1,0-25.7,0C90.1,79.4,89.6,79.6,89.1,79.2z"/>
	<path class="st11" d="M81.5,49.7c0.2,0,0.4-0.1,0.5-0.3c0.4,0.8,0.5,1.7,0.5,2.5c0,7.4,0,14.7,0,22.1c0,1.3,0,2.8-1.2,3.8
		c-0.2,0-0.3-0.2-0.4-0.4c-0.1-0.6,0.3-1,0.5-1.4c0.1-0.2,0.2-0.4,0.3-0.6c0.1-8.3,0.1-16.6,0-24.9c-0.1-0.1-0.1-0.2-0.2-0.4
		C81.4,50.1,81.4,49.9,81.5,49.7z"/>
	<path class="st12" d="M135.8,50c0.4,0.7,0.5,1.5,0.5,2.3c0,7.3,0,14.5,0,21.8c0,0.8-0.1,1.6-0.5,2.3c0,0,0,0,0,0
		c-0.3-0.6-0.4-1.3-0.4-2c0-7.5,0-15,0-22.4C135.4,51.3,135.5,50.6,135.8,50L135.8,50z"/>
	<path class="st6" d="M29,37.3c0,15.4,0,30.8,0,46.1c-0.4-0.4-0.2-0.9-0.2-1.3c0-14.5,0-29,0-43.5C28.8,38.2,28.6,37.7,29,37.3z"/>
	<path class="st6" d="M247.2,83.5c0-15.4,0-30.8,0-46.1c0.4,0.4,0.2,0.9,0.2,1.3c0,14.5,0,29,0,43.5
		C247.4,82.6,247.6,83.1,247.2,83.5z"/>
	<path class="st13" d="M81,77.6c0.1,0.1,0.2,0.2,0.3,0.3c-0.2,0.4-0.5,0.7-1,0.8c-0.3-0.1-0.5-0.2-0.8-0.3c0-0.4,0.3-0.5,0.5-0.7
		C80.3,77.6,80.6,77.4,81,77.6z"/>
	<path class="st10" d="M88.1,47.7c0.3,0,0.6,0,0.8,0c-0.1,0.6-0.3,1-1,0.7c-0.2,0-0.4,0.3-0.6,0C87.5,48.1,87.8,47.9,88.1,47.7z"/>
	<path class="st14" d="M314.6,89c-0.9,0-1.9,0-2.8,0c-1.6,0-2.2-0.8-2-2.4c0.2-1,0.4-2.1,0.7-3.1c0.2-0.9,0-1.3-0.9-1.5
		c-3.2-0.9-6-2.6-8.4-4.8c-1.3-1.2-1.3-2-0.1-3.3c0.8-0.8,1.7-1.7,2.5-2.5c1.4-1.4,1.9-1.4,3.4-0.1c4.2,3.7,9.1,5,14.6,3.8
		c1.7-0.4,3.1-1.3,3.8-3c0.8-1.9,0.2-3.6-1.6-4.7c-1.7-1.1-3.6-1.7-5.4-2.4c-2.6-1-5.1-1.9-7.5-3.3c-3.8-2.4-6-5.7-5.8-10.4
		c0.1-4.8,2.4-8.3,6.6-10.6c2.3-1.2,4.9-1.9,7.5-2.1c0.8,0,1.1-0.2,1.2-1.1c0.1-1,0.5-2.1,0.6-3.1c0.2-1.1,0.9-1.6,1.9-1.6
		c1.9,0,3.8,0,5.7,0c1.4,0,2.1,0.8,1.8,2.3c-0.2,1.2-0.5,2.4-0.7,3.6c-0.2,0.8,0,1.2,0.8,1.5c2.6,0.9,5,2.4,7.2,4.2
		c1.2,1,1.3,1.9,0.2,3.1c-0.8,0.9-1.6,1.7-2.5,2.6c-1.2,1.2-1.8,1.2-3.1,0.2c-3.7-2.9-7.9-4.3-12.6-3.7c-1.1,0.1-2.2,0.5-3.2,1.2
		c-2,1.4-2.2,4-0.4,5.7c1.1,1,2.4,1.5,3.8,2c2.6,1,5.3,1.8,7.8,3c0.8,0.4,1.5,0.8,2.2,1.2c8.9,4.9,6.8,15.6,1.5,19.8
		c-3,2.4-6.4,3.5-10.1,3.9c-1,0.1-1.4,0.4-1.5,1.4c-0.1,1-0.4,2-0.6,3c-0.2,1-0.9,1.5-1.9,1.5C316.4,89,315.5,89,314.6,89
		C314.6,89,314.6,89,314.6,89z"/>
	<path class="st14" d="M141.1,49.5c0.5-0.8,1.2-1.2,2-1.5c0.5-0.4,1-0.3,1.6-0.3c13.3,0,26.6,0,40,0c0.5,0,0.9,0,1.4,0.2
		c0.4,0.8-0.3,0.6-0.6,0.8c-0.3,0-0.6,0-0.9,0c-0.5,0-0.9,0-1.4,0c-1-0.2-1.8,0.2-2.5,0.9c-2.1,2.2-4.3,4.3-6.4,6.5
		c0.2,0.5,0.7,0.3,0.9,0.6c-0.1,0.7-0.9,0.4-1.2,0.8c-0.1,0.1-0.2,0.3-0.3,0.4c-0.4,0.8-0.7,1.7-1.1,2.5c-0.1,0.3-0.3,0.6-0.6,0.6
		c-0.4,0-0.5-0.3-0.7-0.6c-0.4-0.9-0.6-1.9-1.2-2.7c-0.2-0.1-0.5-0.4-0.5,0.2c0.4,1.1,1,2.2,1.2,3.4c-0.1,0.4-0.2,0.8-0.7,0.4
		c-0.7-0.5-0.9-1.2-1-1.9c-0.5-1.2-1.3-2-2.5-2.5c-0.4-0.2-1-0.1-1.4-0.4c-0.1-0.3,0.2-0.4,0.4-0.5c1.2,0.2,1.9-0.5,2.7-1.3
		c2.2-2,4-4.4,6.4-6.5c0,0-0.3-0.1-0.2,0c-0.4,0.4-1,0.2-1.4,0.2c-0.5,0-1,0-1.4,0c-0.8,0-1.6,0-2.5,0c-1,0-2,0.1-3,0
		c-1.4,0-2.8,0.1-4.3,0c-1.2,0-2.4,0.1-3.5,0c-1,0-2,0-3,0c-0.7,0-1.4,0-2.1,0c-1.4-0.3-2.5,0.3-3.4,1.3c-2.2,2.3-4.5,4.6-6.8,6.8
		c-1,1-1.6,2-1.3,3.5c0,0.9,0,1.9,0,2.8c0,1.1,0,2.2,0,3.2c0.1,1.5,0,3,0,4.5c0.1,0.9,0,1.9,0,2.8c0,0.9,0.2,1.8-0.4,2.5
		c0,0.2-0.1,0.4-0.3,0.5c-0.2-0.4-0.1-0.9-0.1-1.4c0-4.3,0-8.6,0-12.8c0-3.9,0-7.8,0-11.7C141,50.3,140.9,49.9,141.1,49.5z"/>
	<path class="st14" d="M154.1,69.3c0.1,0,0.2,0,0.3,0c0.2-0.4,0.2-0.9,0.2-1.3c0-0.3-0.1-0.8,0.3-0.9c0.4-0.2,0.7,0.2,0.9,0.5
		c0.3,0.3,0.5,0.6,0.8,0.9c0.1,0.1,0.2,0.3,0.5,0.4c-0.1-1.7-0.2-3.5,1.4-4.7c0.3-0.3,0-0.8,0.4-1c0.4-0.1,0.7,0,1,0.1
		c0.4,0.2,0.8,0.2,1.3,0c0.3-0.1,0.6-0.2,0.8-0.4c0.1-0.3,0.5-0.6-0.2-0.7c-0.7,0.3-1.5,0.7-2.1-0.1c0-0.2,0.1-0.5,0.3-0.5
		c1.6,0,2-1.2,2.3-2.4c0.1-0.1,0.2-0.2,0.3-0.2c0.3,0,0.4,0.3,0.4,0.5c0,0.5-0.1,1,0.1,1.5c0.3,1.3,1.3,1.9,2.4,2.4
		c0.5,0.3,1.4-0.1,1.5,0.6c0.1,0.6-0.5,1-0.9,1.4c-0.4,0.4-0.7,1-1.1,1.3c-0.3,0-0.5,0.1-0.7,0.5c-0.1,0.3-0.3,0.8-0.7,0.7
		c-0.5-0.1-0.6-0.5-0.7-0.9c-0.1-0.2-0.1-0.3-0.2-0.5c-0.6-0.5-1.2-0.3-1.9-0.2c0.5,0.9-0.1,2,0.6,2.9c0.2,0.2,0.2,0.5-0.1,0.6
		c-3.1,2.2-5.4,5.3-8.3,7.8c0.5,0.2,0.9,0.1,1.2,0.1c0.4,0,0.8,0,1.1,0c0.3,0,0.7,0,1,0c0.4,0,0.9,0,1.2,0.3
		c0.1,0.2,0.1,0.3-0.1,0.4c-0.4,0.2-0.8,0.1-1.1,0.1c-3.9,0-7.8,0-11.6,0c-0.7,0-1.4,0-2.1-0.3c0.1-0.1,0.2-0.2,0.3-0.2
		c0.3-0.2,0.7-0.4,1.1-0.3c1.4,0.2,2.2-0.5,3.1-1.4C149.4,73.8,151.7,71.5,154.1,69.3z"/>
	<path class="st14" d="M188.3,76.1c-0.4,0.8-0.8,1.6-1.5,2c-0.7,0.3-1.4,0.3-2.1,0.3c-3.4,0-6.9,0-10.3,0c-0.5,0-1.1,0.1-1.6-0.1
		c-0.1-0.1-0.2-0.2-0.2-0.4c0.1-0.2,0.3-0.3,0.5-0.4c0.4-0.1,0.7-0.1,1.1-0.1c0.3,0,0.7,0,1,0c0.5,0,1,0,1.4,0c0.4,0,0.8,0,1.2,0
		c1.2,0.2,2-0.2,2.9-1.1c1.9-2,3.8-3.9,5.8-5.8c1-0.9,1.5-1.9,1.3-3.2c0-0.4,0-0.8,0-1.2c0-0.4,0-0.8,0-1.2c0-0.4,0-0.8,0-1.3
		c0-0.4,0-0.7,0-1.1c0-0.5,0-1,0-1.5c0-0.4,0-0.8,0.4-1.1c0.2,0,0.3,0,0.4,0.2c0.2,1.3,0.1,2.7,0.1,4c0,3.4,0,6.9,0,10.3
		C188.6,75.1,188.7,75.6,188.3,76.1z"/>
	<path class="st10" d="M141.4,76.1c0-0.8,0-1.7,0-2.5c0.3-0.5,0.6-0.9,1-1.3c2.9-2.9,5.8-5.7,8.6-8.7c0.3-0.2,0.7-0.1,0.9-0.3
		c0.8-0.7,1.4-0.2,1.9,0.3c0.1,0.1,0,0.2,0,0.3c-0.9,1.1-1.9,2-2.9,2.9c-1,0.9-1.8,2-2.8,2.9c-1.9,1.9-3.7,3.7-5.6,5.6
		C142.2,75.7,141.9,76.1,141.4,76.1z"/>
	<path class="st15" d="M154.1,69.3c0,0.6-0.5,0.9-0.8,1.2c-2.3,2.3-4.6,4.6-6.9,7c-0.4,0.5-0.9,0.4-1.4,0.4c-0.7,0-1.3,0-2,0
		c1.8-2.3,3.9-4.2,5.9-6.1c1.6-1.5,2.8-3.3,4.6-4.6c0.4-0.3,0.3-0.8,0.6-1.1C154.1,67.1,154.1,68.2,154.1,69.3z"/>
	<path class="st16" d="M174.1,78.2c4.2,0,8.5,0,12.7,0c-0.5,0.5-1.2,0.5-1.9,0.5c-13.5,0-26.9,0-40.4,0c-0.7,0-1.3,0-1.9-0.5
		c4.7,0,9.3,0,14,0c0.9,0.4,1.7-0.2,2.6-0.1c3.9,0.1,7.8,0.1,11.8,0C172,78,173,78.6,174.1,78.2z"/>
	<path class="st17" d="M153.8,63.9c0-0.1,0-0.2,0-0.3c0.1-0.2,0.3-0.2,0.5-0.3c1.9-0.3,2.2-0.6,2.6-2.5c0.1-0.2,0.2-0.3,0.4-0.3
		c0.6,0.8,1.3,1.6,1.7,2.6c0,0.6-0.2,1.1-0.7,1.6c-0.8,0.7-1,1.6-0.9,2.6c0.1,0.6,0,1.2-0.1,1.9c0,0-0.1,0-0.1,0c0,0-0.1,0-0.1-0.1
		c-0.5-0.7-0.1-1.5-0.2-2.2c0,0.3,0.1,0.6-0.1,0.9c-1.2,0.1-1.5-1.1-2.2-1.7c-0.1-0.1-0.1-0.3-0.2-0.4c0-0.2-0.3-0.5,0.1-0.4
		c0.9,0,1-0.7,1.6-1.2C155.1,64,154.4,64,153.8,63.9z"/>
	<path class="st18" d="M185.3,48.2c0.3,0,0.8,0.1,1-0.3c-0.1,0-0.1-0.1-0.1-0.1c0,0,0-0.1,0-0.1c0.5,0.2,1,0.3,1.3,0.7
		c0,0.2-0.2,0.3-0.3,0.4c-0.5,0.1-0.8,0.5-1.1,0.8c-2.1,2.1-4.3,4.3-6.4,6.5c-0.3,0.3-0.5,0.5-0.9,0.7c-0.4,0.1-0.9,0.1-1.3-0.1
		c-0.4-0.6,0.2-0.9,0.5-1.2C180.5,53.1,182.7,50.6,185.3,48.2z"/>
	<path class="st19" d="M186.3,47.7c0,0.1,0,0.1,0,0.2c-11.4,0-22.8,0-34.2,0c-3,0-5.9,0-8.9,0c0-0.1,0-0.2,0-0.2
		c0.5-0.3,1.1-0.3,1.6-0.3c13.3,0,26.6,0,39.9,0C185.2,47.5,185.8,47.4,186.3,47.7L186.3,47.7z"/>
	<path class="st14" d="M186.3,47.7c-14.4,0-28.7,0-43.1,0c0.1-0.1,0.2-0.2,0.3-0.3c0.4-0.2,0.7-0.1,1.1-0.1c13.5,0,26.9,0,40.4,0
		c0.4,0,0.8-0.1,1.1,0.1C186.1,47.5,186.2,47.6,186.3,47.7z"/>
	<path class="st10" d="M186,47.5c-14.2,0-28.4,0-42.6,0c0.4-0.4,0.9-0.2,1.3-0.2c13.3,0,26.7,0,40,0C185.2,47.2,185.6,47,186,47.5z"
		/>
	<path class="st20" d="M187.3,48.7c0.1-0.1,0.2-0.2,0.2-0.3c0.4,0.4,0.8,1,1,1.5c0.1,0.1,0.1,0.1,0.1,0.2c0,0.1,0,0.1,0,0.1
		c-0.1,0.1-0.2,0.1-0.3,0.1c-0.2,0-0.4,0.1-0.5,0.2c-1.7,1.7-3.6,3.1-5.1,5c-0.4,0.5-0.8,1-1.4,1.2c-0.4,0.1-0.9,0.1-1.3-0.1
		c-0.4-0.7,0.3-1,0.6-1.3C182.9,53.2,185.1,51,187.3,48.7z"/>
	<path class="st14" d="M188.5,50.3c0-0.1,0-0.2,0-0.2c0.4,0.3,0.2,0.8,0.2,1.2c0,7.9,0,15.8,0,23.7c0,0.4,0.1,0.9-0.3,1.2
		c-0.2-2.2-0.1-4.3-0.1-6.5c0-1.8,0-3.6,0-5.4c0-4.1-0.4-8.2-0.2-12.2C188.2,51.4,188.1,50.8,188.5,50.3z"/>
	<path class="st21" d="M141.1,62.4c0,4.7,0,9.5,0,14.2c-0.4-0.4-0.3-1-0.3-1.4c0-4.3,0-8.5,0-12.8C141,62.3,141,62.3,141.1,62.4z"/>
	<path class="st6" d="M141.1,62.4c-0.1,0-0.2,0-0.2,0c0-3.9,0-7.8,0-11.8c0-0.4-0.1-0.9,0.3-1.2C141.1,53.8,141.1,58.1,141.1,62.4z"
		/>
	<path class="st22" d="M188.5,64.2c0,4,0,7.9,0,11.9c-0.1,0-0.1,0-0.2,0c0-4,0-7.9,0-11.9C188.4,64.2,188.5,64.2,188.5,64.2z"/>
	<path class="st23" d="M154.3,65.7c0.7,0.7,1.5,1.5,2.2,2.2c0.3-0.1,0.4,0.1,0.4,0.4c0,0.3-0.1,0.5-0.4,0.4
		c-0.7-0.4-0.9-1.3-1.7-1.6c-0.4,0.6,0.3,1.5-0.5,2C154.1,68.1,154.2,66.9,154.3,65.7z"/>
	<path class="st24" d="M113,31.5c-0.6,3.2-2.7,5.1-6,5.3c-1.1,0.1-2.2-0.2-3.2,0.2c-0.3-1.4,0.2-2.8,0.4-4.2
		c0.5-2.9,0.3-2.4,2.9-2.4c1.4,0,2.9,0,4.3,0C112.1,30.5,113,30.5,113,31.5z"/>
	<path class="st25" d="M200,78.4c-0.9,0-1.8,0.1-2.7,0c-1.7-0.1-2.9-1.2-2.9-2.9c0-8.2,0-16.5,0-24.7c0-1.5,0.8-2.5,2.2-2.9
		c1.1-0.4,2.1-0.2,3.2-0.1c0.7,0.6,0.1,1.1-0.2,1.5c-2,2.8-3.4,5.8-4.1,9.1c-0.7,3-0.6,6.1-0.1,9.1c0.1,0.3,0.1,0.7,0.1,1
		c-0.2,2.4-0.1,4.8-0.1,7.2c0,1.1,0.7,1.6,1.8,1.8c0.7,0.1,1.3,0,2,0.1c0.3,0,0.5,0.2,0.7,0.4C200,78.1,200,78.2,200,78.4z"/>
	<path class="st26" d="M239.5,78.3c-1.2,0.2-2.4,0.1-3.5,0c-0.1-0.1-0.1-0.2,0-0.3c0.1-0.2,0.2-0.3,0.3-0.5
		c2.6-3.5,4.2-7.3,4.7-11.7c0.1-0.4-0.1-1,0.6-1.2c0.5,0.4,0.4,1,0.4,1.5c0,2.6,0,5.2,0,7.9c0,3.1-0.8,4-3.9,3.9
		C238.5,78.2,239.1,77.7,239.5,78.3z"/>
	<path class="st27" d="M239.5,78.3c-0.8-0.4-1.7,0-2.5-0.4c0.7,0,1.4,0,2.1,0c1.2,0,2.3-0.9,2.3-2c0.1-3.6,0-7.3,0-10.9
		c0-0.1-0.1-0.2-0.2-0.3c-0.6-0.9-0.4-1.8-0.3-2.7c0.1-0.4,0.2-0.9,0.2-1.4c0-3.1,0-6.2,0-9.3c0-2-0.7-2.6-2.7-2.7
		c-0.8,0-1.5,0-2.3,0c-0.4-0.2-0.4-0.4-0.2-0.7c1.3-0.2,2.5-0.3,3.8,0.1c1.1,0.3,1.7,1,2,2c0.3,0.4,0.2,1,0.2,1.5
		c0,7.7,0,15.5,0,23.2c0,0.5,0.1,1-0.2,1.5C241.5,77.3,240.8,78.1,239.5,78.3z"/>
	<path class="st28" d="M196.7,47.7c0-0.1,0-0.2,0-0.2c0.2,0,0.5-0.1,0.7-0.1c13.7,0,27.4,0,41.2,0c0.4,0,0.9-0.2,1.2,0.3
		c-2,0.1-3.9,0.3-5.9,0.3c-10.6,0-21.2,0-31.8,0C200.3,48.1,198.5,47.8,196.7,47.7z"/>
	<path class="st29" d="M196.7,47.7c14,0,28,0,42,0c0.4,0,0.8,0,1.1,0c0,0.1,0,0.1,0.1,0.2c-1.3,0-2.6,0-3.9,0
		c-0.1,0.1-0.3,0.2-0.4,0.2c-0.4,0.1-0.8,0.1-1.3,0.1c-10.9,0-21.7,0-32.6,0c-0.4,0-0.8,0-1.3-0.1c-0.2-0.1-0.3-0.1-0.4-0.3
		c-1.1,0-2.2,0-3.4-0.1C196.6,47.9,196.7,47.8,196.7,47.7z"/>
	<path class="st30" d="M236,78.2c0,0.1,0,0.1,0,0.2c-2.1,0-4.1,0.1-6.2,0.1c-9.4,0-18.9,0-28.3,0c-0.5,0-1,0-1.5-0.1
		c0-0.1,0-0.1,0-0.2c0.1-0.1,0.1-0.1,0.2-0.2c0.5-0.3,1.1-0.2,1.6-0.2c10.8,0,21.6,0,32.4,0C234.8,77.8,235.5,77.6,236,78.2z"/>
	<path class="st14" d="M242,50c0.5,0.3,0.3,0.8,0.3,1.3c0,7.8,0,15.7,0,23.5c0,0.4,0.2,0.9-0.3,1.3c-0.1-0.3-0.1-0.6-0.1-0.9
		c0-8.2,0-16.3,0-24.5C242,50.5,241.9,50.3,242,50z"/>
	<path class="st31" d="M242,50c0,4.5,0.1,9,0.1,13.6c0,4.2,0,8.4,0,12.5c-0.1,0-0.1,0-0.2,0c0-8.7,0-17.4,0-26.1
		C241.9,50,242,50,242,50z"/>
	<path class="st32" d="M126.3,36.1c-0.3-0.1-0.9,0.3-0.9-0.5c0-1.8,0.4-2.7,1.4-2.7c0.9,0,1.8,0.1,1.9,1.4
		C128.6,35.4,127.9,36,126.3,36.1z"/>
	<path class="st0" d="M157.5,36.1c-0.3-0.1-0.8,0.3-0.8-0.5c0.1-2.1,0.4-2.8,1.5-2.7c0.9,0,1.7,0.2,1.7,1.3
		C159.9,35.5,159.2,36.1,157.5,36.1z"/>
	<path class="st33" d="M138.3,38.3c-0.1,1.3-1.3,2.4-2.6,2.3c-1-0.1-1.6-0.7-1.6-1.8c0-1.3,1.2-2.4,2.5-2.3
		C137.7,36.6,138.4,37.3,138.3,38.3z"/>
	<path class="st34" d="M169.7,38.3c0,1.2-1.1,2.3-2.4,2.3c-1.1,0-1.8-0.7-1.8-1.7c0-1.3,1.1-2.4,2.4-2.4
		C169,36.5,169.7,37.3,169.7,38.3z"/>
	<path class="st35" d="M80,78c-0.2,0.1-0.4,0.3-0.6,0.4c0,0-0.1,0-0.1,0l-0.1,0.1c-1,0.2-2,0.2-3,0.2c-12.3,0-24.6,0-36.8,0
		c-1,0-2-0.1-3-0.2c-1.7-0.6-2.5-1.9-2.3-3.7c0.1-0.7,0-1.4,0.1-2.1c0,0,0.1,0,0.1,0c0.1,0.1,0.2,0.1,0.2,0c-0.1-0.6,0-1.2-0.1-1.8
		c0-0.7,0.4-1.1,1.1-1.1c1.9-0.1,3.9-0.1,5.8,0c0.5,0,0.9,0.3,1.2,0.6c0.3,0.4,0.7,0.6,1.1,0.8c1.2,0.6,2.2,1.4,3.4,1.8
		c3.3,1,6.5,0.9,9.5-1.2c0.4-0.3,0.9-0.7,1.5-0.6c0.4,0.1,0.7,0.2,1,0.5c3.5,2.9,9.7,2.6,13.1-0.6c0.4-0.4,0.9-0.7,1.6-0.7
		c2,0.1,3.9,0,5.9,0.1c0.6,0,1.2-0.1,1.7,0.3C82.3,72.8,81.7,76.4,80,78z"/>
	<path class="st36" d="M34.1,57.4c0-2.3,0-4.6,0-6.8c0.7,0.5,0.1,1.2,0.4,1.6c0-0.4,0-0.9,0-1.4c-0.1-1.4,0.1-1.6,1.5-1.6
		c14.5,0,29.1,0,43.6,0c1.2,0,1.8,0.6,1.9,1.6c0.2,2.1,0.3,4.3-0.1,6.4c-0.1,0.2-0.3,0.3-0.5,0.3c-2.2,0.1-4.5,0.4-6.7-0.3
		c-0.5-0.2-0.9-0.6-1.2-1.1c-3.3-3.9-9.9-4.6-13.7-1.7c-0.4,0.3-0.8,0.6-1.3,0.7c-0.5,0-0.8-0.2-1.1-0.5c-1.4-1.1-3.1-1.7-4.9-2
		c-0.4,0-0.8,0-0.9-0.5c0.2-0.3,0.4-0.2,0.6-0.2c-0.7,0.2-1.4,0.2-2,0c0.1-0.1,0.3,0,0.4,0.1c0,0.6-0.5,0.5-0.9,0.6
		c-2.8,0.4-5,1.7-6.8,3.8c-0.3,0.3-0.5,0.8-1.1,0.7c-0.3-0.7-0.8-1-1.6-0.9c-1.1,0.1-2.3,0-3.4,0c-1,0-1.4,0.4-1.3,1.4
		c0,0.5,0,1,0,1.5c0,0.4-0.1,0.8-0.5,1.2C34,59.2,34.4,58.2,34.1,57.4z"/>
	<path class="st37" d="M81.3,57.1c0-2,0-4.1,0-6.1c0-1.1-0.2-1.6-1.6-1.6c-14.7,0.1-29.5,0-44.2,0c-0.7,0-0.9,0.2-0.9,0.8
		c0,1,0,2,0,3.4c-0.5-1.2,0.1-2.3-0.5-3.1c0-1.4,0.9-2.1,2-2.6c0.3-0.4,0.8-0.3,1.2-0.3c13.6,0,27.3,0,40.9,0c0.3,0,0.7-0.1,1,0.2
		c1.1,0.3,1.8,1,2.3,2c0,0.2,0.1,0.3,0.1,0.5c0.3,1.3,0.1,2.6,0.1,3.9c0,2.1,0.2,4.3-0.1,6.4c-0.1,0.2-0.2,0.2-0.4,0.1
		C80.7,59.5,80.7,58.3,81.3,57.1z"/>
	<path class="st38" d="M43.5,71.3c-0.4,0.2-0.7-0.1-0.9-0.3c-0.6-1.2-1.7-1-2.8-1c-1.4,0-2.8,0-4.2,0c-0.8,0-1.2,0.2-1.1,1.1
		c0.1,0.7,0,1.4,0,2.4c-0.2-0.4-0.4-0.7-0.5-0.9c0-2.9,0-5.7,0-8.6c0.8,0.5,0.2,1.2,0.4,1.9c-0.1-0.8,0-1.4-0.1-2
		c-0.2-1.5,0-1.8,1.6-1.8c0.5,0,1,0,1.5,0c2,0,2.2,0.1,2.3,2.1c0.2,0.1,0.3,0.2,0.3,0.4c0.4,2.3,1.4,4.3,2.9,6
		C43.3,70.7,43.7,70.9,43.5,71.3z"/>
	<path class="st39" d="M39.7,64.1c0,0.2-0.1,0.4-0.1,0.9c-0.4-2.5-0.4-2.5-2.5-2.5c-2.5,0-2.5,0-2.5,2.5c0,0.3,0,0.7,0,1.2
		c-0.5-0.8,0-1.6-0.5-2.2c0-2.2,0-4.4,0-6.6c0.6,0.8,0,1.7,0.5,2.8c0-1.3,0-2.3,0-3.3c0-0.8,0.3-1.1,1.1-1.1c1.4,0,2.9,0,4.3,0
		c1.5,0,1.5,0,1.4,1.3c0,1.4-1,2.4-1.2,3.7C40,61.2,40,61.6,40,62.1C40,62.8,40.2,63.5,39.7,64.1z"/>
	<path class="st13" d="M36.4,78.4c14.3,0,28.6,0,42.9,0c-0.9,0.3-1.8,0.5-2.8,0.5c-12.4,0-24.8,0-37.3,0
		C38.2,78.9,37.3,78.7,36.4,78.4z"/>
	<path class="st14" d="M79.2,47.7c-13.8,0-27.5,0-41.3,0c-0.6,0-1.2,0.1-1.8,0.1c0.1-0.1,0.2-0.3,0.2-0.4c13.9,0,27.7,0,41.6,0
		c0.4,0,0.8,0,1.2,0.1c0,0,0,0.1,0,0.1C79.2,47.7,79.2,47.7,79.2,47.7z"/>
	<path class="st40" d="M135.3,75.9c-0.4,1.2-1,2.2-2.3,2.5c-0.9,0.2-1.8,0.1-2.6,0.1c-13.6,0-27.1,0-40.7,0c-0.2,0-0.3-0.1-0.5-0.1
		C88,78,87.4,77,87.1,75.9c-0.3-1.1-0.4-2.1,0-3.2c0.7-0.4,1.4-0.3,2.1-0.3c14.5,0,29,0,43.4,0c0.7,0,1.4,0.1,2-0.1
		c0.3,0,0.5,0,0.7,0.2C135.6,73.7,135.7,74.8,135.3,75.9z"/>
	<path class="st26" d="M133,47.8c1.1,0.6,2,1.5,2.3,2.7c0.4,1.1,0.3,2.2,0.1,3.3c-0.1,0.1-0.3,0.2-0.5,0.2c-1.7-0.1-3.4,0-5.1,0
		c-13.5,0-27.1,0-40.6,0c-0.7,0-1.4,0.1-2.1-0.2c-0.4-1-0.4-2.1-0.1-3.2c0.1-0.2,0.2-0.4,0.2-0.5c0.5-0.9,1.1-1.7,2.1-2.1
		c0.1,0,0.3,0,0.4,0c13.6,0,27.3,0,40.9,0C131.5,47.8,132.3,48.1,133,47.8z"/>
	<path class="st41" d="M89.2,78.4c0.1,0,0.1,0,0.2,0c0.4-0.1,0.8-0.1,1.1-0.1c13.7,0,27.4,0,41.1,0c0.4,0,0.8-0.1,1.2,0.2
		c0,0.1,0,0.1-0.1,0.2c-0.4,0.4-1,0.3-1.5,0.3c-13.4,0-26.8,0-40.2,0c-0.6,0-1.2,0-1.7-0.3C89.3,78.6,89.3,78.5,89.2,78.4z"/>
	<path class="st14" d="M89.4,78.6c14.5,0,28.9,0,43.4,0c0,0.1,0,0.2,0,0.3c-0.4,0.2-0.7,0.1-1.1,0.1c-13.5,0-27.1,0-40.6,0
		c-0.4,0-0.8,0.1-1.1-0.1C89.7,78.9,89.5,78.9,89.4,78.6z"/>
	<path class="st42" d="M89.9,78.9c14.3,0,28.6,0,42.9,0c-0.4,0.4-1,0.2-1.4,0.2c-13.8,0-27.6,0-41.4,0C89.9,79.1,89.9,79,89.9,78.9z
		"/>
	<path class="st43" d="M87.1,50.5c0,1,0.1,2,0.1,3.1c0.1,0.1,0.2,0.3,0.2,0.4c0,0.2,0.1,0.3,0.1,0.5c0,5.8,0,11.7,0,17.5
		c0,0.2,0,0.3-0.1,0.5c-0.1,0.1-0.1,0.3-0.2,0.4c0,1-0.1,2-0.1,3.1c-0.1,0-0.1,0-0.2,0c-0.2-0.3-0.1-0.7-0.1-1c0-7.8,0-15.6,0-23.4
		c0-0.3-0.1-0.7,0.1-1C86.9,50.5,87,50.5,87.1,50.5z"/>
	<path class="st44" d="M86.9,50.5c0,8.5,0,16.9,0,25.4c-0.4-0.3-0.2-0.8-0.2-1.2c0-7.7,0-15.3,0-23C86.6,51.3,86.5,50.8,86.9,50.5z"
		/>
	<path class="st45" d="M89.1,48.1c-0.6,0.6-1.2,1.3-1.8,1.9c-0.1-0.6,0.6-0.9,0.6-1.5c0.6,0.1,0.7-0.4,1-0.7c0,0,0.1,0,0.1,0.1
		C89.3,47.9,89.3,48,89.1,48.1z"/>
	<path class="st18" d="M135.3,53.8c0-1.1,0-2.2,0-3.3c0.2-0.2,0.3-0.3,0.5-0.5c0,8.8,0,17.6,0,26.4c-0.2-0.2-0.3-0.3-0.5-0.5
		c0-1.1,0-2.2,0-3.3c-0.1-0.1-0.2-0.3-0.2-0.4c-0.2-3.5-0.1-6.9-0.1-10.4c0-2.5-0.1-5.1,0.1-7.6C135.1,54.1,135.2,53.9,135.3,53.8z"
		/>
	<path class="st45" d="M133,47.8c-0.1,0.6-0.6,0.4-1,0.4c-13.9,0-27.8,0-41.6,0c-0.3,0-0.7,0-1-0.2c0.4-0.5,1-0.4,1.5-0.4
		c13.4,0,26.8,0,40.2,0c0.6,0,1.1,0.1,1.6,0.2C132.8,47.8,132.9,47.8,133,47.8z"/>
	<path class="st46" d="M132.8,47.8c-0.5,0.3-1,0.2-1.5,0.2c-13.4,0-26.9,0-40.3,0c-0.5,0-1.1,0-1.6,0.1c0,0-0.1,0-0.1,0
		s-0.1,0-0.1,0c0-0.1,0-0.2-0.1-0.2c0.1,0,0.2-0.1,0.3-0.1c0.4-0.4,1-0.3,1.5-0.3c13.4,0,26.8,0,40.2,0c0.5,0,1-0.1,1.5,0.2
		C132.6,47.7,132.7,47.8,132.8,47.8z"/>
	<path class="st10" d="M89.4,47.5c0.3-0.4,0.8-0.2,1.2-0.2c13.7,0,27.4,0,41,0c0.3,0,0.6,0,0.9,0c0,0,0.1,0.1,0.1,0.1
		c0,0,0,0.1,0,0.1c-0.4,0.2-0.7,0.1-1.1,0.1c-13.6,0-27.3,0-40.9,0C90.1,47.6,89.7,47.7,89.4,47.5z"/>
	<path class="st14" d="M89.4,47.5c14.4,0,28.7,0,43.1,0c0,0.1,0,0.2,0,0.2c-12.1,0-24.3,0-36.4,0c-2.2,0-4.5,0-6.7,0
		C89.4,47.6,89.4,47.6,89.4,47.5z"/>
	<path class="st47" d="M132.8,78.4c-4.8,0-9.5,0-14.3,0c-9.2,0-18.3,0-27.5,0c-0.5,0-1.1,0-1.6-0.1c0.4-0.3,0.9-0.2,1.3-0.2
		c13.6,0,27.3,0,40.9,0c0.4,0,0.9-0.2,1.3,0.2C133,78.4,132.9,78.4,132.8,78.4z"/>
	<path class="st10" d="M81.5,60.6c0-3.5,0.1-6.9,0.1-10.4c0.1,0,0.1,0,0.2,0c0.1,0.3,0.1,0.6,0.1,0.9c0,8,0,16.1,0,24.1
		c0,0.3,0.1,0.6-0.1,0.9c-0.1,0.1-0.2,0.2-0.3,0.3c-0.1-0.1-0.1-0.3-0.1-0.5c0.2-2.9-0.3-5.8-0.2-8.6c0-1.7,0-3.4,0-5.1
		C81.2,61.7,81.1,61.1,81.5,60.6z"/>
	<path class="st48" d="M81.8,76.1c0-8.6,0-17.2,0-25.8c0.4,0.1,0.2,0.4,0.2,0.7c0,8,0,16.1,0,24.1C82,75.4,82.2,75.8,81.8,76.1z"/>
	<path class="st49" d="M81.5,67.2c0.1,3,0.1,6.1,0,9.1c-0.2,0.4-0.6,0.8-0.6,1.3c-0.4-0.1-0.6,0.3-0.9,0.4c2.1-2.1,1-4.8,1.2-7.2
		c-0.6-1.1-0.5-2.3-0.1-3.4C81.2,67.2,81.4,67.2,81.5,67.2z"/>
	<path class="st50" d="M151,63.7c-0.2,0.3-0.3,0.6-0.5,0.9c-3,3-6.1,6-9.1,9c0-0.9,0-1.9,0-2.8c0.5-1,1.4-1.6,2.1-2.4
		c1.5-1.6,3.3-3,4.6-4.8c0-0.1,0-0.2,0.1-0.3c0-0.1,0.1-0.2,0.2-0.3c1.9-1.3,2.1-1.9,1.6-4.5c-0.4-1,0-1.8,0.7-2.5
		c2.6-2.5,5.1-5.2,7.8-7.7c1.2,0,2.4,0,3.5,0c0.4,0.7-0.2,1-0.6,1.4c-1.9,1.9-3.8,3.8-5.7,5.7c-0.4,0.4-0.8,0.7-1,1.3
		c0,0.1-0.1,0.2-0.2,0.3c-0.1,0.2-0.2,0.3-0.3,0.4c-0.8,0.5-0.6,1.5-1.1,2.1c-0.2,0-0.3-0.1-0.4-0.2c-0.3-0.5-0.1-1.2-0.7-1.6
		c-0.7,0.2-0.5,0.8-0.5,1.3c-0.1,1.4,0.1,2.8-0.1,4.2C151.3,63.3,151.1,63.5,151,63.7z"/>
	<path class="st50" d="M154.3,56.6c0-0.5,0.4-0.8,0.7-1.1c2-2,4.1-4.1,6.1-6.1c0.3-0.3,0.7-0.6,0.7-1.1c1.4,0,2.9,0,4.3,0
		c0.2,0.7-0.3,1-0.6,1.4c-2.5,2.5-4.9,5-7.4,7.4c-0.4,0.4-0.9,0.7-1.6,0.6c-0.8-0.4-1.8-0.1-2.5-0.6c0.1-0.1,0.2-0.2,0.3-0.3
		c0.4-0.2,0.8,0,1.2-0.2c0.1,0-0.1-0.3,0-0.1c0,0.1,0,0.1,0,0.1C155.1,56.7,154.7,56.8,154.3,56.6z"/>
	<path class="st42" d="M156.8,57.7c0.4-0.2,0.8-0.4,1.1-0.7c2.5-2.5,5-5,7.5-7.5c0.4-0.4,0.6-0.8,0.8-1.2c1,0,2,0,3,0
		c0.2,0.6-0.4,0.9-0.7,1.2c-2.1,2.1-4.1,4.4-6.4,6.5c-0.4,0.4-0.8,0.6-1.3,0.7c-0.4,0.1-0.9,0-1.1,0.4c-0.3,0.5-0.9,0.7-1.3,1.1
		c-0.7,0.7-0.5,1.8-1.2,2.5c-0.1,0.1-0.2,0.2-0.3,0.3c-0.8-0.5-1.6-1.1-2.4-1.5c-0.4-0.2-0.6-0.5-0.5-0.9c0.1-0.5,0.5-0.7,1-0.7
		C155.7,57.9,156.3,58,156.8,57.7z"/>
	<path class="st51" d="M158.4,48.2c0,0.5-0.4,0.8-0.8,1.1c-2.1,2.1-4.1,4.1-6.2,6.2c-0.8,0.8-1.9,1.4-1.5,2.8
		c-0.6,0-0.9-0.6-1.4-0.7c-0.2-0.1-0.4-0.1-0.6-0.2c-0.1-0.1-0.2-0.2-0.3-0.4c-0.1-0.2-0.3-0.4-0.3-0.6c0-0.4,0.3-0.6,0.5-0.8
		c2.5-2.5,4.9-5,7.4-7.4C156.4,48.2,157.4,48.2,158.4,48.2z"/>
	<path class="st52" d="M147.5,56.6c0.2,0,0.4,0.1,0.5,0.3c-0.4,0.3-0.8,0.4-1.3,0.3c-0.9-0.1-1.2,0.4-1.1,1.2c0,1.4,0.1,2.8,0,4.2
		c0,0.3,0.1,1.5-0.8,0.5c-0.2-1-0.1-2-0.1-3c0-0.7,0.1-1.4,0-2.2c-0.7,0.4-1.1,1-1.7,1.5c-0.4,0.4-0.8,0.9-1.5,0.7
		c-0.2-1.4,0.3-2.3,1.3-3.3c2.4-2.3,4.8-4.6,7-7c0.9-1,1.9-1.6,3.3-1.3c0.2,0.6-0.4,0.9-0.7,1.2c-2,2.3-4.4,4.3-6.4,6.7
		C146.4,56.4,147.1,56.1,147.5,56.6z"/>
	<path class="st50" d="M144.9,62.9c0,0,0,0.1,0,0.1c0.1,0.1,0.2,0.1,0.2,0c0-1.3,0-2.7,0-4c0-2.5-0.4-2.2,2.3-2.2c0.2,0,0.3,0,0.5,0
		c0,0.2,0,0.3,0,0.5c0,0-0.1,0.1-0.1,0.1c-2.1,0.3-2.1,0.3-2.1,2.6c0,1-0.1,2.1,0.1,3.1c0.7,0.7,1.7,0,2.3,0.7
		c0.1,0.1,0.2,0.2,0,0.3c-2.3,2.3-4.6,4.5-6.9,6.8c0-1.5,0-3,0-4.6c0.8-0.9,1.7-1.8,2.5-2.8C144.2,63.2,144.4,62.8,144.9,62.9z"/>
	<path class="st53" d="M159.8,56.9c-0.1-0.8,0.5-0.5,0.9-0.5c0.5-0.1,0.9-0.1,1.3-0.5c2.3-2.4,4.7-4.8,7-7.2
		c0.1-0.1,0.3-0.3,0.4-0.5c0.8,0,1.7,0,2.5,0c0.1,0.7-0.4,1-0.8,1.3c-2.6,2.6-5.1,5.3-7.9,7.8c-0.5,0.5-0.2,1.2-0.7,1.6l0,0
		c-0.2,0.1-0.4-0.1-0.5-0.3c-0.1-0.9-0.5-1.6-1.6-1.5C160.2,57.2,159.9,57.1,159.8,56.9z"/>
	<path class="st54" d="M147.5,56.6c-0.7-0.1-1.7,0.3-2-0.2c-0.3-0.6,0.8-1,1.2-1.6c2-2.3,4.4-4.2,6.3-6.6c0.8,0,1.5,0,2.3,0
		c0,0.6-0.5,0.9-0.8,1.2C152.2,51.8,149.8,54.2,147.5,56.6z"/>
	<path class="st55" d="M177.4,56.6c0.5,0,1,0,1.5,0c0.1,0.1,0.1,0.3-0.1,0.4c-0.5,0.3-1.1,0.2-1.7,0.2c-0.4,0-0.9-0.1-1.3,0.3
		c-0.3,0.9,0.1,1.9-0.2,2.9c-0.7,0.4-1.5,0.6-2,1.4c-0.2,0.4-0.5-0.1-0.5-0.4c0.1-1,0.6-1.8,1-2.8c0.3-0.6,0.3-1.2-0.4-1.5
		c0.4-0.6,1.1,0,1.5-0.5c-0.2-0.5,0.1-0.8,0.4-1.1c2.4-2.5,4.7-5.1,7.5-7.3c0.5,0,1,0,1.5,0c0.1,0.7-0.5,1-0.9,1.4
		c-2.1,1.8-3.9,4-5.9,6C177.4,55.8,176.9,56.1,177.4,56.6z"/>
	<path class="st56" d="M166.7,56.8c1.3,0.4,2.2,1.3,2.6,2.6c0.1,1.3,0.6,2.7-1.1,3.4c-1.5-1.7-3.3-3.1-4.6-5c0.3-0.8,1-1,1.8-1.1
		C165.8,56.8,166.3,56.6,166.7,56.8z"/>
	<path class="st57" d="M165.3,56.9c-0.5,0.3-1.2,0.4-1.5,1c-0.2,0.6-0.3,1.3-1,1.6c0-0.2-0.1-0.5-0.3-0.6c0-0.7,0-1.3,0.7-2
		c3-2.8,5.8-5.8,8.6-8.7c0.5,0,1,0,1.5,0c0.2,0.5-0.2,0.8-0.5,1.1c-2.4,2.4-4.7,4.8-7.1,7.1c-0.2,0-0.4,0.1-0.5,0.3
		C165,56.7,165.2,56.8,165.3,56.9z"/>
	<path class="st54" d="M168,62.8c1.2-0.8,1.4-2.1,1.3-3.4c0.2,0.8,0.4,1.6,1.1,2.1c0,0,0.1,0,0.1-0.1c0-0.1,0-0.2,0.1-0.2
		c0.9,0.3,0.8,1.2,0.9,1.9c0,0.2-0.1,0.4-0.4,0.4c-1.6-0.1-2.3,1-2.8,2.3c-0.8,0.6-1.3,1.3-1.4,2.3c-0.6,0.5-0.7-0.2-0.9-0.5
		c-0.1-0.3,0-0.6,0-0.9c-0.4,0.4-0.1,1.5-1.2,1c-0.2-0.4-0.4-0.8-0.1-1.2c0.4-1.1,1.5-1.7,2-2.7c-0.5-0.3-1.1,0.1-1.5-0.3
		c0.1-0.2,0.3-0.3,0.5-0.3C166.5,63.2,167.3,62.9,168,62.8z"/>
	<path class="st15" d="M165.7,56.3c0-0.6,0.5-0.9,0.8-1.2c2.3-2.3,4.5-4.6,6.8-6.9c0.5,0,1,0,1.5,0c0.1,0.5-0.3,0.7-0.5,0.9
		c-2.2,2.3-4.4,4.6-6.6,6.9C167.1,56.7,166.4,56.2,165.7,56.3z"/>
	<path class="st58" d="M171.3,63.1c-0.4-0.6-0.3-1.4-0.8-2c-0.4-1.2-0.8-2.4-1.3-3.6c0.2-0.5,0.7-0.3,1-0.5c0.8,1.1,1,2.5,1.7,3.8
		c0.5-1.2,1-2.3,1.6-3.4c0.5,0.2,0.6,0.6,0.8,1.1c-0.3,0.9-0.7,1.8-1,2.8c-0.2,0.6-0.1,1.2-0.5,1.7c-0.3,0.4-0.7,0.7-1.3,0.4
		C171.5,63.4,171.4,63.3,171.3,63.1z"/>
	<path class="st52" d="M183,48.2c-1.8,1.8-3.5,3.7-5.3,5.5c-0.9,0.9-1.9,1.8-2.6,2.9c-0.3,0-0.5,0-0.8,0c-0.2,0-0.6,0.1-0.6-0.2
		c0-0.2,0.1-0.4,0.3-0.5c2.4-2.4,4.8-4.8,7.2-7.2C181.7,48.1,182.4,48.3,183,48.2z"/>
	<path class="st13" d="M144.9,62.9c-0.9,0.6-1.5,1.6-2.3,2.4c-0.4,0.4-0.7,0.9-1.3,0.9c0-1.1,0-2.2,0-3.3c0.7-1.2,1.7-2.1,2.7-3.1
		c0.2-0.2,0.5-0.5,0.9-0.2C144.9,60.7,144.9,61.8,144.9,62.9z"/>
	<path class="st54" d="M144.9,59.6c-1.1,0.5-1.6,1.6-2.5,2.4c-0.4,0.3-0.7,0.6-1,0.9c0-1,0-2,0-3c1.2-0.5,1.8-1.6,2.7-2.3
		c0.2-0.2,0.3-0.4,0.6-0.3c0.3,0.1,0.2,0.4,0.2,0.7C144.9,58.5,144.9,59.1,144.9,59.6z"/>
	<path class="st51" d="M177.4,56.6c-0.3,0-0.6,0.1-0.9-0.2c2.7-2.7,5.3-5.4,8-8.2c0.3,0,0.5,0,0.8,0c0.1,0.7-0.5,0.9-0.8,1.3
		C182.1,51.9,179.7,54.2,177.4,56.6z"/>
	<path class="st59" d="M174.3,58.6c-0.4-0.2-0.7-0.6-0.8-1.1c0-0.1,0-0.3,0.1-0.4c0.4-0.1,0.8-0.1,1.3,0
		C174.9,57.7,174.6,58.1,174.3,58.6z"/>
	<path class="st15" d="M165.3,56.9c-0.1,0-0.3,0-0.3-0.2c0,0,0.2-0.1,0.3-0.1c0.5,0.1,1.1-0.2,1.5,0.2
		C166.2,56.8,165.7,56.8,165.3,56.9z"/>
	<path class="st60" d="M170.3,57.1c-0.3,0.2-0.7,0.3-1,0.5C169.1,56.9,169.2,56.9,170.3,57.1z"/>
	<path class="st61" d="M159.9,66c1-0.3,2.1-0.8,3,0.3c-0.4,0.5,0,0.8,0.1,1.2c0.1,0.4,0.4,0.8,0.4,1.3c-0.2,0.7-1,0.8-1.4,1.3
		c-2.6,2.6-5.1,5.4-7.9,7.8c-0.5,0-1,0-1.5,0c-0.2-0.5,0.2-0.6,0.4-0.8c2.3-2.3,4.6-4.6,6.8-6.9c0.4-0.4,0.8-0.7,1.4-0.8
		c0,0,0-0.1,0-0.1c0,0-0.1-0.1-0.1-0.1c-0.2-1-0.4-2,0.2-3C160.8,66.2,160.4,66.1,159.9,66z"/>
	<path class="st62" d="M168,62.8c-0.6,0.7-1.4,0.8-2.3,0.7c-1.2-0.6-1.9-1.8-3-2.6c0-0.5-0.3-0.9,0-1.4c0.3-0.5,0.4-1.2,1-1.6
		c1.3,1.3,2.6,2.5,3.9,3.8C167.9,62,168.1,62.3,168,62.8z"/>
	<path class="st18" d="M166.2,67.4c0.2,0.2,0.1,0.7,0.6,0.6c0.3,0,0.4,0.2,0.4,0.5c-0.5,1-1.4,1.6-2.1,2.3c-2.4,2.4-4.7,4.9-7.3,7.1
		c-0.1,0-0.1,0-0.2,0c-0.4,0-0.8,0-1.3,0c-0.2-0.5,0.2-0.7,0.4-1c2.6-2.6,5.2-5.2,7.7-7.8c0.1-0.1,0.2-0.1,0.3-0.2
		C165.6,68.7,165.4,67.6,166.2,67.4z"/>
	<path class="st63" d="M165,68.9c-2.4,2.8-5.2,5.3-7.7,7.9c-0.3,0.3-0.6,0.7-0.9,1c-0.3,0-0.7,0-1,0c0-1,0.8-1.5,1.3-2.1
		c2.2-2.3,4.4-4.5,6.7-6.7c0.2-0.4,0.2-0.9,0.5-1.3c0.2-0.2,0.1-0.7,0.6-0.7c0.3,0,0.4,0.4,0.5,0.6C165.2,68.2,165.3,68.6,165,68.9z
		"/>
	<path class="st57" d="M162.2,58.5c0.1,0.1,0.2,0.2,0.3,0.3c0,1.8-0.9,2.9-2.8,3c-1.3-0.1-1.2-1-1.3-1.9c0-0.7,0.3-1.3,0.8-1.8
		C160.6,57.4,161.2,57.5,162.2,58.5z"/>
	<path class="st55" d="M163.5,69.2c-1.2,1.6-2.8,2.9-4.2,4.3c-1.4,1.4-2.8,2.7-4,4.3c-0.4,0-0.8,0-1.3,0c0-0.8,0.7-1,1.2-1.4
		c2.3-2.4,4.7-4.7,6.9-7.1c0.3-0.4,1,0,1-0.6C163.6,68.8,163.6,68.9,163.5,69.2z"/>
	<path class="st64" d="M159.4,58.4c-1,1.6-1,2.5,0.2,3.5c0.9,0.7,1.6,0.2,2.3-0.3c0.7,0.4,0.4,1,0.2,1.6c-0.3,0.1-0.6,0.2-1,0.3
		c-0.4,0.1-0.8,0.1-1.3,0c-0.3-0.1-0.6-0.2-0.9-0.3c-0.8-0.6-1.5-1.4-1.6-2.5c0-1,0.1-2.1,1.1-2.8C158.8,57.9,159.2,57.9,159.4,58.4
		z"/>
	<path class="st65" d="M174.1,78.2c-0.3,0.3-0.6,0.2-0.9,0.2c-5.2,0-10.4,0-15.6,0c-0.3,0-0.7,0.1-0.9-0.2c0.3,0,0.7,0,1,0
		c1-0.6,2-0.3,3.1-0.3c0.5,0,1,0,1.5,0c1.7,0,3.4,0,5.1,0c1.3,0,2.6,0,3.9,0c0.5,0,1,0,1.4,0.3C173.1,78.1,173.6,78.2,174.1,78.2z"
		/>
	<path class="st66" d="M159.6,66c-0.2,0.7-1.3,0-1.2,0.8c0,0.6,0.9,0,1.1,0.6c-0.1,0.7-1.4-0.1-1.2,1c0.2,0.8,0.9,0.1,1.3,0.6
		c-0.5,0.4-1.1,0.3-1.7,0.1c-0.2-0.1-0.2-3,0-3.1C158.5,65.7,159.1,65.6,159.6,66z"/>
	<path class="st67" d="M163.5,69.2c-0.1-0.2-0.2-0.3-0.3-0.5c-0.3-0.8-0.5-1.5-0.8-2.3c-0.1-0.2-0.1-0.4,0.2-0.5
		c0.1,0,0.2,0.2,0.4,0.3c0.1,0.5,0.2,1,0.6,1.6c0.2-0.6,0.4-1.1,0.6-1.5c0.3-0.5,0.4,0.1,0.6,0.1c0.1,0.4,0.2,0.8,0.3,1.2
		c0.1,0.2,0,0.3-0.2,0.3c-0.1-0.2-0.1-0.4-0.3-0.5c-0.3-0.1-0.2,0.2-0.3,0.3C163.9,68.3,164,68.9,163.5,69.2z"/>
	<path class="st68" d="M162.8,60.9c0.9-0.2,1,0.7,1.5,1c0.5,0.4,1,1,1.4,1.5c-0.2,0-0.3,0-0.5,0C164,63,163.1,62.2,162.8,60.9z"/>
	<path class="st69" d="M159.9,66c0.6,0,1.2-0.1,2.2-0.1c-1.6,1-0.6,2.3-1.1,3.4c-0.8-0.4-0.4-1.1-0.4-1.7
		C160.8,66.8,160.5,66.3,159.9,66z"/>
	<path class="st70" d="M156.6,68.8c0.4-0.3,0.4-0.6,0-0.8c0.2-0.7-0.1-1.5,0.4-2.5c0.4,1.5,0.2,2.6,0.2,3.7
		C156.9,69.1,156.7,68.9,156.6,68.8z"/>
	<path class="st18" d="M162.2,78.1c-1.5,0-3,0-4.6,0c0-0.1,0-0.2,0-0.2c0,0,0,0,0,0c0.4-0.2,0.8-0.4,1.2-0.4c0.4,0,0.8,0,1.3,0
		c0.4,0,0.8,0,1.2,0c0.3,0,0.5,0.1,0.8,0.2C162.2,77.9,162.3,78,162.2,78.1z"/>
	<path class="st57" d="M162.1,63.2c0-0.5,0.3-1.1-0.2-1.6C162.6,61.9,162.6,62.2,162.1,63.2z"/>
	<path class="st17" d="M159.9,63.5c0.4,0,0.8,0,1.3,0C160.7,63.8,160.3,63.8,159.9,63.5z"/>
	<path class="st71" d="M188,61.2c0,0.5,0,1,0,1.5c-1.3,2-3.1,3.5-4.8,5.2c-3,3-5.9,6-8.9,9c-0.4,0.4-0.8,0.8-1.3,1
		c-0.2,0-0.3,0-0.5,0c-0.4,0.2-0.7,0.1-1.1,0.1c-0.5-0.5,0-0.8,0.3-1.1c5-4.9,9.8-10,14.8-14.9C187,61.7,187.3,61,188,61.2z"/>
	<path class="st2" d="M188,61.2c-2.7,2.7-5.5,5.4-8.2,8.1c-2.7,2.7-5.4,5.4-8.1,8.1c-0.2,0.2-0.3,0.4-0.5,0.6
		c-0.3,0.2-0.7,0.1-1.1,0.1c-0.6-0.7,0.2-1,0.5-1.3c1.8-1.9,3.7-3.7,5.5-5.5c2.5-2.5,5-4.9,7.3-7.5c0.1-0.1,0.3-0.3,0.4-0.5
		c0-0.3-0.1-0.5,0.1-0.8c0.9,0,1.6-0.6,2.2-1.3c0.5-0.6,0.9-1.4,2-1.4c0.1,0.1,0.1,0.1,0.1,0.2c0,0.1,0,0.1-0.1,0.1
		C188.1,60.5,188.1,60.8,188,61.2z"/>
	<path class="st52" d="M188.1,67.5c0.2,1.4-0.4,2.3-1.3,3.3c-2.3,2.2-4.5,4.4-6.7,6.7c-0.7,0.7-1.4,0.3-2.1,0.4
		c-0.2-0.7,0.3-1,0.7-1.4c2.7-2.8,5.6-5.5,8.3-8.4C187.2,67.8,187.5,67.3,188.1,67.5z"/>
	<path class="st11" d="M188,65c0,0.4,0,0.8,0,1.3c-0.3,0.4-0.5,0.8-0.9,1.2c-3,3.1-6.2,5.9-9,9.2c-0.4,0.5-1.1,0.8-1.5,1.3
		c-0.5,0-1,0-1.5,0c-0.1-0.6,0.4-0.9,0.7-1.2c3.7-3.7,7.3-7.3,11-11C187.1,65.3,187.4,64.8,188,65z"/>
	<path class="st72" d="M188,65c-3.3,3.2-6.5,6.4-9.8,9.7c-1.1,1.1-2.1,2.2-3.1,3.3c-0.3,0-0.7,0-1,0c-0.2-0.7,0.3-1,0.7-1.4
		c3.4-3.2,6.5-6.7,9.9-9.9c0.7-0.7,1.3-1.4,2-2.1c0.4-0.4,0.7-0.9,1.3-0.8C188,64.1,188,64.5,188,65z"/>
	<path class="st55" d="M176.6,77.9c0.2-1.1,1.4-1.6,2-2.3c3-3.2,6.2-6.3,9.4-9.4c0,0.4,0,0.8,0,1.3c-1.1,0.7-1.8,1.8-2.7,2.8
		c-2.1,2-4.1,4.1-6.1,6.1c-0.5,0.5-0.9,1-1.3,1.5C177.5,77.9,177.1,77.9,176.6,77.9z"/>
	<path class="st73" d="M188,63.7c-3.2,3.2-6.5,6.4-9.7,9.8c-1.4,1.5-3.2,2.7-4.3,4.4c-0.3,0-0.7,0-1,0c2.1-2.6,4.6-4.7,6.9-7.1
		c2.6-2.8,5.4-5.4,8.1-8.1C188,63,188,63.4,188,63.7z"/>
	<path class="st74" d="M188.5,64.2L188.5,64.2c-0.1,0-0.2,0-0.2,0c0-1.3,0-2.7-0.1-4c-0.2-0.5-0.3-0.9-0.3-1.5c0-2.4,0-4.8,0-7.1
		c0-0.5,0-0.9,0.4-1.3c0.1,0,0.1,0,0.2,0C188.5,54.9,188.5,59.6,188.5,64.2z"/>
	<path class="st13" d="M188.3,50.3c0,3.3,0,6.6-0.1,9.9c0,0-0.1,0-0.1,0s-0.1,0-0.1,0c0-0.1,0-0.2,0-0.3c-0.5-0.5-0.3-1.2-0.4-1.8
		c-0.1-1.9,0-3.8,0-5.7c0-0.7-0.1-1.5,0.4-2.1C188.1,50.1,188.2,50.1,188.3,50.3z"/>
	<path class="st73" d="M170,77.9c0.4,0,0.8,0,1.3,0c0.4,0,0.9,0,1.3,0c0,0.1,0,0.2,0,0.2c-1.8,0-3.5,0-5.3,0
		c-0.1-0.1-0.1-0.3,0.1-0.4c0.4-0.2,0.8-0.2,1.3-0.2C169.1,77.6,169.6,77.5,170,77.9z"/>
	<path class="st3" d="M152.3,57.1c0.4,0.6,0.4,1.3,0.5,2c0.1,0.9,0,1.9,0.3,2.8c0.1,0.9,1.1,1,1.4,1.7c-0.2,0-0.4,0-0.6,0.1
		c-0.9-0.9-1.9,0.2-2.8,0c-0.2-0.2,0-0.2,0.1-0.3c0.7-0.5,0.8-1.3,0.8-2.1C152,59.9,151.6,58.5,152.3,57.1z"/>
	<path class="st75" d="M154.4,63.6c-0.7-0.4-1.6-0.5-1.6-1.5c0.3-0.8,0.9-0.6,1.4-0.3c0.3,0.2,0.6,0.2,0.9-0.1
		c0.2-0.8-0.4-0.9-0.9-1.1c-0.6-0.3-1.2-0.5-1.2-1.4c-0.1-1,0-1.8,1-2.3c1-0.2,1.9-0.1,2.8,0.6c-0.3,0.5-0.5,1-1.3,0.5
		c-0.4-0.3-1-0.1-1.1,0.4c-0.2,0.6,0.3,0.7,0.7,0.8c0.8,0.3,1.6,0.7,2,1.6C157,63,156.4,63.5,154.4,63.6z"/>
	<path class="st76" d="M178.9,56.8c0-0.1,0-0.1,0-0.2c2-2.2,4.1-4.2,6.2-6.3c0.4-0.4,0.9-0.8,1.2-1.3c0.3-0.5,0.6-0.5,1-0.2
		c0.2,0.5-0.3,0.7-0.5,1c-2.3,2.3-4.6,4.6-6.8,6.9c0,0.2,0,0.3,0,0.5c0,0.1,0,0.2,0,0.4c0,0.3-0.1,0.6-0.4,0.8
		C178.7,58.1,178.9,57.4,178.9,56.8z"/>
	<path class="st77" d="M179.7,57.2c0-0.1,0-0.2,0-0.3c0.5-0.2,1.1,0,1.7-0.1c0.2,0,0.3,0,0.1,0c0,0,0-0.1,0-0.1c1.7-2.3,4-4.1,6-6.1
		c0.1-0.1,0.4-0.2,0.6-0.2c0,0.7,0,1.4,0,2c-0.7,1.5-2.1,2.5-3.3,3.6c-0.7,0.6-1,1.2-0.6,2c0,0.1-0.1,0.2-0.2,0.3
		c-0.1,0-0.3,0-0.4,0c-0.7-0.6-1.5-0.8-2.5-0.8C180.6,57.5,180.1,57.5,179.7,57.2z"/>
	<path class="st11" d="M181.5,56.6c0.2,0,0.3,0,0.5,0.1c0,0.1,0,0.1,0,0.2c-0.7,0-1.5,0-2.2,0c0.1-0.1,0.2-0.2,0.2-0.2
		C180.4,56.6,181,56.6,181.5,56.6z"/>
	<path class="st78" d="M200,48c0.1,0,0.2,0,0.3,0c0.3,0.2,0.7,0.1,1,0.1c11.2,0,22.3,0,33.5,0c0.3,0,0.7,0.1,1-0.1
		c0.1,0,0.2,0,0.3,0c0.1,0.2,0.2,0.3,0.3,0.5c0.4,0.1,0.7,0.3,0.9,0.6c2.5,3.6,4.3,7.5,4.3,12.1c0,0.2,0.1,0.5-0.1,0.7
		c0,0.9,0,1.9,0,2.8c-0.3,4.9-1.9,9.4-5.1,13.2c-0.4,0.2-0.9,0.1-1.4,0.1c-11.2,0-22.4,0-33.5,0c-0.5,0-0.9-0.1-1.4,0.1c0,0,0,0,0,0
		c-0.2-0.1-0.3-0.2-0.5-0.3c-2.4-2.7-4.1-5.7-4.3-9.4c-1-4.6-0.7-9.2,1-13.6c0.9-2.2,2-4.3,3.5-6.1C199.8,48.5,200,48.3,200,48z"/>
	<path class="st79" d="M195.1,68.5c0.8,3.3,2.1,6.3,4.2,8.9c0.1,0.1,0.1,0.3,0.2,0.5c-0.8,0-1.7,0-2.5,0c-1.1,0-1.9-0.7-2-1.7
		c-0.1-2.4,0-4.9,0-7.3C194.9,68.7,195.1,68.6,195.1,68.5z"/>
	<path class="st80" d="M200,78.1c0.4-0.4,0.9-0.2,1.3-0.2c11.7,0,23.3,0,35,0c-0.1,0.1-0.2,0.2-0.3,0.3C224,78.2,212,78.1,200,78.1z
		"/>
	<path class="st26" d="M241.3,61.9c-0.2-5-2.1-9.5-5.1-13.4c1.3-0.5,2.6-0.4,3.8-0.1c0.9,0.2,1.5,0.9,1.5,1.8c0,3.8,0,7.6,0,11.4
		C241.5,61.7,241.4,61.8,241.3,61.9z"/>
	<path class="st81" d="M235.7,48c-0.4,0.4-0.9,0.2-1.3,0.2c-10.9,0-21.9,0-32.8,0c-0.4,0-0.9,0.2-1.3-0.2
		C212.1,48,223.9,48,235.7,48z"/>
	<path class="st82" d="M57.9,54.9c4.4-4.1,12.1-3.7,16.2,2c1.7,1.4,1.8,3.5,2.1,5.5c0.1,0.6,0,1.2,0,1.8c-0.4,2.4-1.1,4.6-2.9,6.4
		c-0.3,0-0.5,0.2-0.7,0.3c-4.7,4.1-9.8,4.2-14.8,0.4c0-0.1-0.1-0.1-0.2-0.2c-0.3-0.3-1-0.4-0.8-0.9c0.1-0.4,0.7-0.3,1.1-0.4
		c0.2,0,0.4,0,0.6-0.1c0.1,0,0.2-0.1,0.3-0.1c0.2-0.1,0.2-0.3,0.3-0.5c0-0.1,0.1-0.2,0.1-0.3c0.1-0.1,0.2-0.2,0.1-0.4
		c-0.9-0.1-1.8,0-2.7-0.1c-0.5,0-1,0.1-1.3-0.4c0-0.1,0.1-0.2,0.2-0.3c1.4-0.4,2.9-0.1,4.3-0.2c0.1,0,0.2-0.1,0.3-0.1
		c0.1-0.1,0.3-0.3,0.3-0.5c0-0.1,0.1-0.2,0.1-0.3c0.1-0.1,0.1-0.3,0.1-0.4c0-0.1,0-0.2,0.1-0.3c0-0.1,0.1-0.2,0.1-0.3
		c0.1-0.2,0.3-0.4,0.5-0.4c0.6,0.1,1.1,0.4,1.9,0.1c-0.9-0.4-1.8-0.8-1.6-2c0.2-1.2,1.1-1.6,2.3-1.7c-1.1-0.6-1.8,0.1-2.5,0.4
		c-0.1,0-0.3,0-0.4,0c-0.1-0.1-0.2-0.1-0.4-0.2c-1.6-0.2-3.2,0-4.7-0.1c-0.5,0-0.9,0-1.4-0.1c-0.2-0.1-0.4-0.2-0.3-0.5
		c0.5-0.5,1.2-0.3,1.8-0.3c1.4,0,2.8,0.1,4.1-0.1c0.1,0,0.2-0.1,0.2-0.2c0-0.1,0-0.3,0-0.4c0-0.1-0.1-0.2-0.1-0.3
		c-0.1-0.2-0.3-0.3-0.5-0.4c-1.3-0.1-2.6,0-3.9,0c-0.4,0-0.9-0.1-0.9-0.5c0-0.6,0.5-0.6,0.9-0.6c1.1-0.1,2.3,0,3.4-0.1
		c0.1,0,0.1-0.1,0.2-0.2c0-0.1-0.1-0.3-0.2-0.4c-0.1-0.1-0.1-0.2-0.2-0.3c-0.1-0.2-0.2-0.3-0.4-0.4c-0.4-0.1-0.8,0-1.3-0.1
		c-0.4,0-0.9,0-0.9-0.5c0-0.5,0.5-0.6,0.9-0.7c0.2,0,0.4,0.2,0.7,0.1C57.9,55.5,57.8,55.3,57.9,54.9z"/>
	<path class="st83" d="M61,60.4c0,0.8-0.6,0.5-1,0.5c-1.8,0-3.7,0-5.5,0c-0.7,0.3-0.8,1-1,1.7c-0.1,0.4-0.3,0.9-0.6,1.3
		c-0.1,0.1-0.2,0.1-0.3,0.2c-0.3,0-0.6-0.1-0.8-0.3C51,63.2,51,62.9,52,62.3c-0.7-0.2-1.3,0.2-1.8,0.5c-0.1,0-0.2,0-0.4,0
		c-0.9-0.7-2-0.5-3-0.5c-0.3-0.1-0.4-0.3-0.5-0.5c-0.5-0.8-1-0.6-1.5,0c-0.2,0.2-0.2,0.4-0.4,0.7c-0.2,0.4-0.3,1-0.8,0.9
		c-0.4-0.1-0.3-0.7-0.4-1.1c0-0.4-0.1-0.9-0.6-0.9c-0.6,0-0.7,0.5-0.8,0.9c-0.2,1-0.4,2.1-0.5,3.1c0.2,0.3,0.3,0.1,0.4-0.1
		c0-0.1,0.1-0.2,0.1-0.3c0.1-0.4,0.1-0.8,0.2-1.2c0.2-0.4,0.5-0.4,0.7,0c0.2,0.4,0.1,0.8,0.2,1.2c0,0.8,0.3,1,0.9,0.3
		c0.1-0.3,0.3-0.5,0.6-0.6c0.4,0,0.4,0.3,0.6,0.6c0.1,0.3,0.3,0.4,0.6,0.2c0.1-0.2,0.2-0.4,0.4-0.5c0.1,0,0.2-0.1,0.3,0
		c1,1,2.1,0.4,3.2,0.5c0.2,0,0.5,0,0.7,0.1c0.9,0.4,1.6-0.1,2.4-0.3c0.2,0,0.5,0,0.7,0.1c0.2,0.1,0.5,0.2,0.8,0.1c0-0.4-0.5-1,0-1.4
		c0.4-0.1,0.6,0.2,0.9,0.2c0.5,0.5,0.8,1.1,1.4,1.5c0,0.7-0.6,0.5-0.9,0.6c-0.1,0-0.1,0.1,0,0.2c0.1,0.1,0.2,0.2,0.2,0.3
		c0,0.2,0,0.4,0,0.5c0,0.1-0.1,0.3-0.1,0.4c1.3,0.5,2.7,0.1,4,0.3c0.2,0,0.9-0.3,0.6,0.5c-0.1,0.1-0.2,0.1-0.3,0.1
		c-1,0-2.1,0-3.1,0.1c-0.1,0.1-0.2,0.1-0.2,0.3c0.1,0.1,0.1,0.2,0.2,0.3c0.1,0.1,0.2,0.1,0.4,0.2c0.6,0.2,1.2,0,1.8,0.2
		c0.1,0,0.2,0.1,0.2,0.2c-0.6,0.4-1.3,0-1.8,0.3c-0.4,0.9,1.5,0,0.8,1.1c-0.2,0.1-0.3,0.1-0.4,0.2c-5.1,3.4-9,3.4-14-0.1
		c-1.9-1.9-3.4-4.1-3.6-6.9c0-1,0.1-2-0.1-3c0-0.3-0.1-0.5,0.1-0.8c0.4-1.2,0.9-2.4,1.5-3.6c2.1-3,5.1-4.7,8.7-5
		c0.3-0.3,0.6-0.3,0.9,0c2.6,0.3,4.9,1.2,6.9,2.9c0.1,0.2,0.3,0.5,0.4,0.8c-0.6,0-1.1-0.2-1.5,0.5c0.8,0.5,1.7-0.2,2.4,0.4
		c0,0-0.1,0.1-0.1,0.1c-0.8,0.4-1.7,0.1-2.5,0.2c-0.1,0-0.3,0.1-0.4,0.2c0,0-0.1,0.1-0.1,0.1c0,0,0,0.1-0.1,0.1c0,0.2,0,0.3,0.2,0.3
		c1.2,0.1,2.4,0,3.5,0c0.1,0,0.1,0,0.2,0c0.4,0.6,0,0.5-0.4,0.5c-1.1,0-2.1,0-3.2,0c-0.4,0-0.8-0.1-1.3,0.4c1.9,0.5,3.7-0.1,5.4,0.4
		c0,0.1-0.1,0.1-0.1,0.2c-1.6,0.5-3.2,0-4.7,0.3c-0.1,0.1-0.3,0.2-0.3,0.3c1.3,0.4,2.6,0.1,4,0.2C59.9,60.1,60.5,60,61,60.4z"/>
	<path class="st84" d="M73.4,70.5c0.1-0.8,0.7-1.3,1.1-1.9c0.8-1.4,1.1-2.9,1.5-4.4c1.8,0.3,3.6-0.2,5.4,0.5
		c0.1,0.9,0.2,1.7-0.1,2.5c0,1.2,0,2.4,0,3.6c-2.2,0-4.4,0-6.6,0C74.2,70.8,73.7,71,73.4,70.5z"/>
	<path class="st49" d="M81.3,64.7c-1.8-0.2-3.6,0.5-5.3-0.5c0.1-2.6-0.4-5.1-1.8-7.3c2.4,0.4,4.7,0.1,7.1,0.2c0,1.2,0,2.4,0,3.5
		C81.5,62,81.5,63.4,81.3,64.7z"/>
	<path class="st85" d="M51,52.1c-0.3,0-0.6,0-0.9,0c-0.3,0-0.5-0.1-0.8-0.1c0,0,0-0.1,0-0.1c0.8,0,1.7,0,2.5,0c0,0,0,0.1,0,0.1
		C51.6,52,51.3,52,51,52.1z"/>
	<path class="st36" d="M81.3,64.7c0-1.4,0-2.7,0-4.1c0.1,0,0.2,0,0.3,0c0.1,2.2,0.1,4.4,0,6.6c-0.1,0-0.2,0-0.3,0
		C81.3,66.4,81.3,65.6,81.3,64.7z"/>
	<path class="st86" d="M39.9,61.4c0.4,1,0.4,2,0,3c-0.1-0.1-0.1-0.2-0.2-0.4c0-0.7,0-1.4,0-2.1C39.8,61.8,39.8,61.6,39.9,61.4z"/>
	<path class="st38" d="M39.9,61.4c-0.1,0.2-0.2,0.4-0.2,0.6c0-0.5-0.2-1,0.2-1.4C39.9,60.9,39.9,61.2,39.9,61.4z"/>
	<path class="st87" d="M135.3,72.3c0,0.1,0,0.2,0,0.3c-0.2,0-0.3,0-0.5,0c-0.4,0.1-0.8,0.1-1.1,0.1c-15.1,0-30.3,0-45.4,0
		c-0.4,0-0.8,0.1-1.1-0.1c0-0.1,0-0.2,0-0.3c0.1-0.1,0.3-0.2,0.4-0.3c0.3-0.1,0.7-0.1,1-0.1c15.3,0,30.6,0,45.8,0
		c0.2,0,0.3,0,0.5,0.1C135,72.1,135.2,72.2,135.3,72.3z"/>
	<path class="st88" d="M87.1,72.6c15.9,0,31.8,0,47.7,0c-0.4,0.4-0.9,0.2-1.3,0.2c-15.4,0-30.9,0-46.3,0
		C87.1,72.7,87.1,72.7,87.1,72.6z"/>
	<path class="st89" d="M135.3,53.8c0,0.1,0,0.2,0,0.3c-0.1,0.1-0.3,0.2-0.4,0.3c-0.5,0.1-1,0.1-1.5,0.1c-14.8,0-29.5,0-44.3,0
		c-0.7,0-1.4,0.1-1.9-0.3c0-0.1,0-0.2,0-0.3c0.3-0.2,0.7-0.1,1-0.1c15.3,0,30.7,0,46,0c0.3,0,0.6,0,0.9,0.1
		C135.1,53.8,135.2,53.8,135.3,53.8z"/>
	<path class="st90" d="M135,53.8c-0.6,0-1.2,0-1.8,0c-15.4,0-30.8,0-46.1,0c0-0.1,0-0.1,0-0.2c15.6,0,31.1,0,46.7,0
		C134.2,53.6,134.7,53.4,135,53.8z"/>
	<path class="st91" d="M87.1,54.1c16,0,31.9,0,47.9,0c0.2,0.3,0.1,0.6,0.1,0.9c0,5.5,0,11,0,16.5c0,0.3,0.1,0.6-0.1,0.9l-0.1,0
		l-0.1,0c-0.1-0.1-0.2-0.3-0.3-0.4c-0.2-0.6-0.1-1.3-0.1-1.9c0-4.5,0-9,0-13.4c0-1.7-0.1-1.8-1.7-1.8c-14.4,0-28.7,0-43.1,0
		c-1.7,0-1.7,0.1-1.8,1.8c0,4.5,0,9,0,13.4c0,0.6,0.1,1.3-0.1,1.9c-0.1,0.2-0.2,0.3-0.3,0.4l-0.1,0c0,0-0.1,0-0.1,0
		C87.1,66.2,87.1,60.1,87.1,54.1z"/>
	<path class="st92" d="M135,72.3c0-6.1,0-12.2,0-18.3c0.1,0,0.2,0,0.3,0c0,6.1,0,12.2,0,18.3C135.2,72.3,135.1,72.3,135,72.3z"/>
	<path class="st64" d="M148.7,57.4c0.5,0.2,0.9,0.6,1.3,1c1.1,2.3,0.4,4-1.8,4.8c-0.2,0,0.1,0-0.1,0c-2.4,0.3-2.5,0.2-2.5-2.2
		c0-1,0-2,0-3c0-0.6,0.2-0.8,0.8-0.8C147.2,57.2,147.9,57.7,148.7,57.4z"/>
	<path class="st93" d="M152.3,57.1c0,1.7-0.1,3.5,0,5.2c0,0.9-0.3,1.2-1.1,1.1c0-1.9,0-3.8-0.1-5.6C151,56.7,151.7,57.1,152.3,57.1z
		"/>
	<path class="st94" d="M153,59.4c0.4,0.8,1.2,1,1.9,1.3c0.7,0.3,1.2,0.7,0.4,1.5c-0.4,0-0.8,0-1.2,0c-0.4-0.4-0.9-0.4-1.3,0
		c-0.3-1-0.4-2,0-3C152.9,59.2,153,59.3,153,59.4z"/>
	<path class="st95" d="M148.7,57.4c-0.6,0.4-1.2,0.1-1.8,0c-0.8-0.2-1.3,0-1.2,1c0.1,1.1,0.1,2.1,0,3.2c-0.1,1,0.2,1.5,1.3,1.4
		c0.4-0.1,0.8,0,1.2,0.2c0,0,0,0.1,0,0.1c-0.9,0.4-1.8,0.3-2.8,0.1c0-1.8,0-3.5-0.1-5.3c0-0.8,0.1-1.2,1-1.1
		c0.5,0.1,1.1-0.1,1.6,0.3C148.2,57.3,148.5,57.4,148.7,57.4z"/>
	<path class="st57" d="M145.5,63.4c0.9,0,1.8,0,2.8-0.1c0,0.1,0,0.2,0,0.4C147.3,63.5,146.3,64,145.5,63.4z"/>
	<path class="st57" d="M154.3,56.6c0.4,0,0.8,0,1.2,0c0,0.1,0,0.2,0,0.2c-0.4,0-0.8,0-1.2,0C154.3,56.7,154.3,56.7,154.3,56.6z"/>
	<path class="st96" d="M159.4,58.4c-0.3-0.2-0.7-0.3-1-0.5c0.3-0.5,0.9-0.6,1.4-1c0.2,0,0.4-0.1,0.6-0.1c1.5-0.1,1.8,0.2,1.8,1.7
		C161.3,57.9,160.4,57.7,159.4,58.4z"/>
	<path class="st97" d="M171.6,63.3c0.5,0.3,0.8,0.3,1-0.4c0.2-0.5,0.5-1.1,0.7-1.6c0.3,0.1,0.4,0.1,0.5-0.3c0.3-0.8,0.8-1,1.5-0.5
		c0.6,0.8,0.4,1.7,0.3,2.5c-1.1,1-1.9,2.3-3.2,3c-0.5,0.2-1-0.3-1.4,0.2c-0.3,0.7,0.1,1.5-0.4,2.2c-0.2,0.2-0.5,0.1-0.7-0.1
		c-0.1-0.8-0.3-1.7-0.5-2.5c0.8-0.9,1.3-2.2,2.8-2.2c0.2,0,0-0.2,0.1-0.1c0,0.1,0,0.1-0.1,0.1C171.9,63.7,171.4,64,171.6,63.3z"/>
	<path class="st97" d="M178.9,56.8c0.6,0.3-0.1,1.2,0.8,1.3c0.4,0.4,0.3,0.8,0.2,1.3c0,0.1-0.1,0.2-0.2,0.3c-0.2,0.1-0.4,0-0.6-0.1
		c-0.1,0-0.2-0.1-0.3-0.2c-0.3-0.3-0.9-0.3-0.9-0.9c0,0,0.1-0.1,0.1-0.1c-0.4,0.1-0.8,0.2-1.1-0.2c0.2-0.7,1-0.4,1.4-0.7
		c-0.9-0.3-1.7,0-2.5-0.2c-0.1-0.1-0.2-0.1-0.3-0.2C176.5,56.5,177.7,57,178.9,56.8z"/>
	<path class="st98" d="M175.4,57.2c0.1,0,0.2,0,0.2,0c0.6,0.9,0.3,1.9,0.4,2.9c-0.1,2.7-0.1,2.7,2.5,2.9c0.1,0,0.3,0.1,0.4,0.2
		c0,0.1,0.1,0.1,0.1,0.2c0,0.2-0.1,0.3-0.2,0.3c-1.1,0.2-2.1,0.3-3.2-0.1c0-0.1-0.1-0.1-0.1-0.2c0-0.9-0.1-1.8-0.1-2.8
		C175.4,59.5,175.4,58.3,175.4,57.2z"/>
	<path class="st99" d="M171.6,63.3c0,0.5,0.5,0.3,0.8,0.6c-1.5,0.1-1.8,1.7-2.9,2.2c-0.5,0.2-0.9,0.1-1.2-0.3
		c-0.1-1.4,1.6-2.8,3.1-2.6C171.4,63.2,171.5,63.2,171.6,63.3z"/>
	<path class="st100" d="M168.3,65.7c0.4,0.1,0.8,0.2,1.2,0.3c0.7,0.6,0.8,1.4,0.6,2.2c-0.5,1.3-1,1.5-2.5,1
		c-0.4-0.1-0.4-0.5-0.5-0.8c-0.1-0.2-0.2-0.3-0.3-0.5C166.7,66.8,167.1,66,168.3,65.7z"/>
	<path class="st101" d="M164.8,68c0.1-0.1,0.1-0.2,0.2-0.3c0.8,0,0.5-0.8,0.8-1.2c0.2-0.2,0.2-0.8,0.7-0.6c0.4,0.2,0,0.5-0.1,0.8
		c0,0.2-0.1,0.5-0.2,0.7c-0.2,0.5-0.5,0.9-0.7,1.4c-0.1,0.4-0.3,0.3-0.5,0.1C164.9,68.6,164.9,68.3,164.8,68z"/>
	<path class="st76" d="M167,68.5c0.2,0.2,0.3,0.4,0.5,0.6c0.1,0.5-0.3,0.8-0.5,1.1c-2.3,2.4-4.7,4.7-7,7.1c-0.3,0.3-0.7,0.5-1,0.7
		c-0.4,0-0.8,0-1.3,0c1.1-1.4,2.4-2.5,3.7-3.8c1.7-1.7,3.3-3.4,5-5.1C166.5,68.8,166.8,68.7,167,68.5z"/>
	<path class="st2" d="M167.3,77.9c0,0.1,0,0.2,0,0.2c-1.7,0-3.4,0-5.1,0c0-0.1,0-0.2,0-0.2c0.2-0.3,0.5-0.3,0.9-0.3
		C164.5,77.6,165.9,77.1,167.3,77.9z"/>
	<path class="st102" d="M162.9,77.9c-0.3,0-0.5,0-0.8,0c-0.3,0-0.5,0-0.8,0c0.1-0.8,0.8-1.3,1.3-1.8c2.1-2.2,4.4-4.3,6.4-6.6
		c0.4-0.4,0.9-0.7,1.4-1c0.1-0.8-0.2-1.7,0.2-2.5c0.7,0.9,0.2,2,0.5,2.9c0.2,0.4,0.1,0.8-0.2,1C168.3,72.6,165.9,75.5,162.9,77.9z"
		/>
	<path class="st103" d="M170.5,68.5c-0.4,0.3-0.8,0.7-1.3,1c-2,1.2-3.5,3.1-5.2,4.7c-1.3,1.2-2.4,2.7-3.9,3.7c-0.4,0-0.8,0-1.3,0
		c2.4-2.4,4.8-4.9,7.2-7.3c0.5-0.5,1-1,1.5-1.6c1,0.4,1.9,0.2,2.5-0.8C170.2,68.5,170.3,68.5,170.5,68.5z"/>
	<path class="st2" d="M160.2,77.9c2.5-2.8,5.2-5.3,7.9-8c0.4-0.4,0.8-0.4,1.3-0.4c0,0.6-0.5,0.9-0.8,1.2c-2.3,2.4-4.7,4.8-7,7.2
		C161,77.9,160.6,77.9,160.2,77.9z"/>
	<path class="st92" d="M170,77.9c-0.5,0-1,0-1.5,0c-0.4-0.8,0.4-1.1,0.8-1.5c3.8-3.8,7.6-7.6,11.4-11.4c0.8-0.8,1.5-1.6,0.9-2.8
		c0-0.1,0.1-0.2,0.2-0.3c0.8,0,0.9,0.8,1.3,1.2c0.2,0.3,0.5,0.3,0.7,0.6c-0.6,1-1.4,1.7-2.1,2.5c-3.5,3.6-7.1,7.1-10.7,10.7
		C170.6,77.2,170.4,77.5,170,77.9z"/>
	<path class="st104" d="M182.7,63.3c-0.3-0.5-0.7-1-1-1.4c-0.1,0-0.2-0.1-0.4-0.1c-0.2,0.3-0.1,0.6-0.1,0.9c-0.1,1-0.6,1.3-1.5,0.9
		c-0.2-0.1-0.3-0.3-0.4-0.5c-0.1-1.1-0.4-2.3,0.2-3.3c0-0.5,0-1,0-1.5c0-0.3,0-0.6,0-1c1.5-0.1,3-0.5,4,1c0.5,0.8,0.4,1.5-0.2,2.2
		c-0.3,0.4-0.6,0.7-0.2,1.2c0.3,0.4,0.5,0.8,0.6,1.2c0.1,0.2,0.2,0.4,0.3,0.6C183.7,63.6,183.2,63.7,182.7,63.3z"/>
	<path class="st92" d="M184,62.7c-0.3-0.3-0.6-0.6-0.8-1c1.3-0.5,2.2-1.5,3-2.5c0.3-0.4,0.6-0.7,1-1c0.2-0.2,0.5-0.3,0.8-0.1
		c0,0.6,0,1.2,0,1.8c-0.9,0.5-1.4,1.2-2.1,2C185.4,62.4,184.9,63.1,184,62.7z"/>
	<path class="st72" d="M182.7,63.3c0.5,0,1,0,1.5,0.1c-0.1,0.2-0.3,0.3-0.5,0.3C183.4,63.7,182.9,63.8,182.7,63.3z"/>
	<path class="st105" d="M188,58.1c-0.8,0.2-1.2,0.9-1.8,1.5c-0.6,0.7-1.3,1.2-1.8,1.9c-0.5,0.6-0.9-0.2-1.3,0.1
		c-0.5-0.5-1-0.8,0-1.4c0.8-0.5,0.6-1.4,0.5-2.2c0.1,0,0.2,0,0.3,0c0.2,0.3,0.1,0.7,0.1,1.1c-0.1-0.4,0.1-0.8-0.1-1.1
		c-1-1.1-0.3-1.7,0.6-2.4c1.2-1,2.3-2.3,3.5-3.4C188,54.2,188,56.2,188,58.1z"/>
	<path class="st105" d="M179.7,63.2c0.1,0.1,0.2,0.2,0.3,0.2c0.4,0.3,0.8,0.3,1.2-0.2c0.2-0.4-0.2-1,0.6-1.1
		c0.9,1.2,0.3,1.9-0.6,2.8c-4,3.9-7.9,7.8-11.8,11.7c-0.3,0.3-0.8,0.6-0.8,1.2c-0.4,0-0.8,0-1.3,0c-1.4,0-2.9,0-4.3,0
		c0-0.4,0.3-0.6,0.6-0.8c2.4-2.4,4.9-4.8,7.4-7.3c0.2-0.2,0.5-0.3,0.1-0.6c0.1-0.4-0.1-1,0.4-1.2c0.5-0.2,0.6,0.4,1,0.6
		c0.1,0.1,0.2,0,0.3-0.1c0.3-0.9-0.3-2,0.5-2.8c0.8,0.2,0.4,0.9,0.5,1.3c0.1,0.4-0.3,1,0.6,0.8c0.2-0.1,0.4,0.4,0.9,0.7
		c-1.7-1.1-0.3-1.8-0.1-2.7c-0.1-1.3,0.8-1.8,1.7-2.2c0.7-0.1,1.4,0.1,2.1-0.1l0,0c0.1-0.1,0.2-0.3,0.3-0.3
		C179.4,63,179.6,63,179.7,63.2z"/>
	<path class="st44" d="M154.1,62.1c0.4-0.3,0.8-0.3,1.2,0C154.9,62.5,154.5,62.4,154.1,62.1z"/>
	<path class="st106" d="M204,55.9c0.5,0,0.9,0.1,1.4,0.1c1-0.1,1.9,0,2,1.4c0.7-0.4,0.6-1.1,1-1.5c0.2-0.3,0.5-0.2,0.8-0.2
		c3.5,0.1,7-0.2,10.5,0.2c0.1,0,0.2-0.1,0.4-0.1c0.8,0,1.7-0.3,2.5,0.2c0.1,0.1,0.1,0.1,0.2,0.2c1.9-0.5,3.7-0.5,5.6-0.2
		c0.3,0.4,0.5,0.5,0.8,0c0.1-0.1,0.2-0.1,0.2,0c1.9,0.2,3.7,0.3,5.6,0c0.1-0.2,0.2-0.2,0.3,0c0.1,0.1,0.1,0.1,0.2,0.2
		c0.3,2,0.3,4,0,6c-0.1,0.1-0.1,0.2-0.2,0.3c-0.9,0.3-1.8,0.3-2.7,0c-0.2-0.2-0.3-0.6-0.6-0.6c-0.3,0-0.2,0.4-0.3,0.6
		c-1.2,0.3-2.3,0.3-3.5,0c-0.4-0.3-0.3-1.1-1.1-1.1c-0.6,0-0.6,0.6-0.8,1c-0.8,0.4-1.6,0.3-2.4,0.1c-0.5-0.1-0.9-0.7-1.4,0
		c-1.4,0.3-2.8,0.3-4.2,0c-0.5-0.5,0-1.1-0.4-1.7c-0.3,0.5-0.1,1.1-0.2,1.6c0,0.1-0.1,0.2-0.2,0.2c-2.8,0.1-5.7,0-8.5,0
		c-0.1,0-0.1-0.1-0.2-0.2c-0.2-0.7-0.4,0-0.6,0c-0.5,0.3-1,0.2-1.4,0c-0.2,0-0.3-0.7-0.6-0.1c-1.2,0.4-2.3,0.3-3.5,0
		c-0.3-0.4-0.2-1-0.9-1c-0.7,0-0.7,0.6-0.9,1c-1.1,0.4-2.2,0.4-3.3,0c0.9-2.1,1.9-4.3,2.8-6.4c0.8-0.4,1.7-0.3,2.5-0.1
		c0.3,0.3,0.5,0.5,0.8,0C203.9,55.8,204,55.8,204,55.9z"/>
	<path class="st34" d="M219,68.5c-0.8,0-1.7-0.2-1.5,1.1c0,0.2-0.1,0.4-0.3,0.4c-1.2-0.1-2.5,0.5-3.6-0.4c-0.2-0.2-0.4-0.5-0.7-0.2
		c-1.8,1.4-3.9,0.4-5.8,0.6c-0.6,0.1-0.5-0.5-0.5-0.8c0-1.8,0-3.6,0-5.4c0.5-0.5,1.1-0.3,1.7-0.3c1.4,0.1,2.8-0.2,4.1,0.2
		c0.7,1,1.3,0.2,1.9-0.1c1.8-0.3,3.6,0.1,5.4,0c1.2-0.1,2.4-0.2,3.6,0c1.8-0.1,3.5-0.3,5.3-0.1c1.8,0.2,3.7-0.4,5.5,0.1
		c0.2,0.1,0.5-0.1,0.7-0.2c1,0.1,2-0.3,3,0.3c0.1,1.3,0,2.5,0.3,3.8c0.3,1.3-0.6,2.5-1.9,2.5c-4.3,0.1-8.6,0.1-13,0.1
		c-1.1,0-0.3-1-0.8-1.5c-0.5,0.4,0.3,1.6-0.9,1.5c-0.7-0.1-1.4,0-2.2,0C218.9,69.6,219.2,69,219,68.5z"/>
	<path class="st107" d="M234.7,63.7c-0.7,0.4-1.4,0-2.1,0c-2.9,0.3-5.8-0.3-8.6,0.2c-0.2,0-0.5-0.1-0.7-0.2
		c-0.1-0.1-0.1-0.1-0.1-0.2c0-0.1,0.1-0.1,0.1-0.1c2.8-0.6,5.6,0,8.4-0.2c1.6-0.1,3.2,0,4.9,0c0.4,0,0.9-0.2,1.2,0.2
		C236.8,63.8,235.7,63.4,234.7,63.7z"/>
	<path class="st108" d="M220,55.9c-0.7,0.5-1.4,0-2.1,0c-3.2,0.1-6.4,0-9.6,0c0.1-0.7,0.6-0.3,0.9-0.3c3.6,0,7.1,0,10.7,0
		C220.1,55.7,220.1,55.7,220,55.9C220.1,55.8,220.1,55.9,220,55.9z"/>
	<path class="st109" d="M212.7,63.9c-2-0.5-4-0.2-6.1-0.2c0.1-0.4,0.4-0.5,0.7-0.5c1.5,0,3,0,4.5,0c0.4,0,0.6,0.2,0.8,0.5
		C212.7,63.8,212.8,63.8,212.7,63.9C212.7,63.9,212.7,63.9,212.7,63.9z"/>
	<path class="st110" d="M219.5,63.7c-1.9,0-3.7,0-5.6,0.1c-0.1-0.1-0.1-0.2,0-0.3c1.4-0.5,2.8-0.2,4.2-0.2c0.5,0,0.9,0.1,1.4,0.2
		C219.6,63.5,219.6,63.6,219.5,63.7C219.6,63.7,219.5,63.7,219.5,63.7z"/>
	<path class="st111" d="M222.9,70.3c2.9,0,5.8,0,8.7,0c0,0,0,0.1,0,0.1c-2.9,0-5.8,0-8.8,0C222.9,70.4,222.9,70.4,222.9,70.3z"/>
	<path class="st112" d="M208.9,62.4c3,0,5.9,0,8.9,0c-0.1,0.3-0.3,0.4-0.6,0.4c-2.5,0-5.1,0-7.6,0C209.2,62.7,209,62.6,208.9,62.4z"
		/>
	<path class="st113" d="M219.5,63.7c0-0.1,0-0.2,0-0.3c1.3-0.4,2.5-0.3,3.8,0c0,0.1,0,0.2,0,0.3C222,63.7,220.8,63.7,219.5,63.7z"/>
	<path class="st114" d="M228.4,55.9c-1.9,0.1-3.7-0.1-5.6,0.2c1.4-1,2.9-0.4,4.4-0.5C227.5,55.6,228.1,55.1,228.4,55.9z"/>
	<path class="st115" d="M235.4,62.1c0-2,0-4,0-6c0.3,0.1,0.3,0.4,0.3,0.7c0,1.7,0,3.5,0,5.2c0,0,0,0.1-0.1,0.1
		C235.6,62.1,235.5,62.1,235.4,62.1z"/>
	<path class="st116" d="M212.1,70.5c-1.7,0-3.5,0-5.2,0c0,0,0-0.1,0-0.1c1.8,0,3.5,0,5.3,0C212.1,70.4,212.1,70.4,212.1,70.5z"/>
	<path class="st117" d="M218.3,62.4c1.4,0,2.8,0,4.2,0c0.1,0.2,0,0.3-0.2,0.3c-1.4,0-2.7,0-4.1-0.1c0,0,0-0.1,0-0.1
		C218.2,62.5,218.3,62.4,218.3,62.4z"/>
	<path class="st118" d="M219,68.5c0.7,0.4,0.1,1,0.3,1.5c-0.5-0.1-0.1-1.1-0.9-1c-0.5,0-0.4,0.5-0.5,0.7C217.8,69,217.8,69,219,68.5
		z"/>
	<path class="st117" d="M228.2,62.4c1.2,0,2.3,0,3.5,0c-1.1,0.6-2.3,0.2-3.5,0.2c0,0,0-0.1,0-0.1C228.1,62.5,228.2,62.4,228.2,62.4z
		"/>
	<path class="st116" d="M217.2,70.5c-1,0-2,0-3,0c0,0,0-0.1,0-0.1c1,0,2,0,2.9,0C217.2,70.4,217.2,70.4,217.2,70.5z"/>
	<path class="st119" d="M202.8,62.4c1.2,0,2.4,0,3.5,0C205.1,62.9,204,62.9,202.8,62.4z"/>
	<path class="st111" d="M236,70.5c-1,0-2,0-2.9,0c0,0,0-0.1,0-0.1C234,70.4,235,70.4,236,70.5C236,70.4,236,70.4,236,70.5z"/>
	<path class="st120" d="M204,55.9c0,0-0.1,0-0.1,0s-0.1,0-0.1,0c0.5-0.4,1.1-0.4,2.8-0.1C205.7,55.8,204.9,55.8,204,55.9z"/>
	<path class="st117" d="M197.7,62.3c1.1,0,2.2,0,3.3,0C199.9,62.9,198.8,62.9,197.7,62.3z"/>
	<path class="st121" d="M223.9,62.4c0.8,0,1.6,0,2.4-0.1c-0.8,0.8-1.8,0.2-2.7,0.3C223.6,62.6,223.8,62.4,223.9,62.4z"/>
	<path class="st117" d="M232.5,62.4c0.9,0,1.8,0,2.7,0c-0.9,0.6-1.8,0.2-2.8,0.2c0,0,0-0.1,0-0.1C232.4,62.5,232.5,62.4,232.5,62.4z
		"/>
	<path class="st122" d="M234.7,63.7c1-0.5,2-0.1,3-0.2c0,0.1,0,0.2,0,0.3C236.7,63.7,235.7,63.7,234.7,63.7z"/>
	<path class="st120" d="M229.4,55.9l-0.1,0c0,0-0.1,0-0.1,0c0.8-0.7,1.7-0.1,2.5-0.1C230.9,55.8,230.2,55.8,229.4,55.9z"/>
	<path class="st123" d="M203,55.9c-0.8,0-1.7,0-2.5,0.1C201.3,55.3,202.2,55.4,203,55.9z"/>
	<path class="st123" d="M235.2,55.9c-0.1,0-0.2,0-0.3,0c-0.8,0-1.5-0.1-2.3-0.1C233.6,55.7,234.4,55.2,235.2,55.9z"/>
	<path class="st124" d="M220,55.9c0-0.1,0-0.2,0-0.3c0.8,0.1,1.8-0.4,2.5,0.3C221.7,55.9,220.9,55.9,220,55.9z"/>
	<path class="st125" d="M213.9,63.4c0,0.1,0,0.2,0,0.3c-0.4,0.4-0.7,1.3-1.3,0.2c0-0.1,0-0.2,0-0.2
		C213.2,64.1,213.5,63.7,213.9,63.4z"/>
	<path class="st119" d="M206.9,62.4c0.5,0,1,0,1.4,0c-0.4,0.6-1,0.2-1.5,0.2c0,0,0-0.1,0-0.1C206.8,62.5,206.8,62.4,206.9,62.4z"/>
	<path class="st126" d="M70.4,62.9c0.6-0.7,1.3-1.4,2.4-0.9c0.5,0.2,0.5-0.2,0.5-0.4c0.1-0.4,0.3-0.8,0.8-0.6
		c0.6,0.2,0.2,0.6,0.2,0.9c-0.1,0.7-0.1,1.4-0.4,2.1c-0.2,0.6,0.2,1.5-0.7,1.7c-1.6,0.4-2.3,0.2-3-1.1C69.8,64,70,63.5,70.4,62.9z"
		/>
	<path class="st127" d="M67.6,65.5c-0.9,0.4-1.8,0.3-2.7,0.2c-0.4,0-0.6-0.5-0.6-0.9c0-0.6,0.3-1.1,0.8-1.3c0.5-0.2,1.1-0.3,1.7-0.4
		c-0.2-0.6-0.7-0.4-1.1-0.4c-0.2,0-0.6,0.3-0.6-0.3c0-0.4,0.3-0.5,0.6-0.5c0.8-0.1,1.5-0.2,2.2,0.3C68.3,63.3,68.3,64.4,67.6,65.5z"
		/>
	<path class="st128" d="M61.5,61.7c0.6-0.7,1.4-1,2.3-0.8c0.4,0.1,0.9-0.1,0.9,0.6c0,0.6-0.5,0.5-0.9,0.5c-0.9-0.1-1.4,0.4-1.6,1.2
		c-0.3,1,0.2,1.6,1.2,1.7c0.3,0,0.8-0.3,0.7,0.3c0,0.4-0.3,0.6-0.8,0.7c-0.7,0.1-1.4-0.1-2-0.6c-0.1,0-0.1,0-0.2,0
		c-0.2-0.1-0.3-0.3-0.4-0.4c-0.2-0.4-0.3-0.8-0.2-1.3C60.8,62.8,60.8,62.1,61.5,61.7z"/>
	<path class="st129" d="M54.1,64c-0.2,0.3-0.4,0.6,0,0.9c0.2,0.2,0.7,0.2,0.4,0.7c-0.2,0.3-0.6,0.3-0.9,0.3c-0.3,0-0.6-0.1-0.8-0.3
		c-0.3-0.5-0.4-1,0-1.5c-0.1-0.9,0.5-1.7,0.6-2.6c0-0.5,0.6-0.4,1-0.4c0,0.1,0.1,0.1,0.1,0.2c0.1,0,0.1,0.1,0.2,0.2
		c0.1,0.2,0.2,0.5,0.3,0.7c0,0.2,0,0.4-0.1,0.6C54.5,63,54.5,63.6,54.1,64z"/>
	<path class="st130" d="M69.2,64.4c-0.3,1.5-0.3,1.5-1.3,1c0-0.9,0.2-1.7,0.5-2.6c0.2-0.9,1.3-1.5,2.1-1c0.6,0.4-0.1,0.6-0.3,0.9
		C69.6,63.3,69.4,63.9,69.2,64.4z"/>
	<path class="st131" d="M61,60.4c-1.9,0-3.7,0-5.6,0c-0.5,0-1,0-0.5-0.7c1.9-0.4,3.9-0.4,5.8,0c0,0.1,0,0.2,0,0.3
		c-1.9,0.3-3.8,0-5.3,0.1c1.6,0.1,3.6-0.1,5.6,0.1C61,60.2,61,60.3,61,60.4z"/>
	<path class="st132" d="M55.2,67.3c0.1-0.2,0.2-0.3,0.3-0.5c1.8-0.7,3.5-0.6,5.3,0c-0.1,0.2-0.1,0.3-0.2,0.5
		C58.7,67.7,56.9,67.6,55.2,67.3z"/>
	<path class="st133" d="M54.9,66.5c-0.3-0.4-0.1-0.5,0.3-0.5c0.4,0,0.7,0.1,1-0.2c0.3-0.4,0.7-0.3,1.1-0.3c0.5,0.1,1,0.2,1.5,0.1
		c0.2,0,0.4,0,0.6,0c0.5,0.2,1.2,0,1.7,0.4c0,0.1,0,0.2,0,0.3c-0.9,0.5-2,0.2-3,0.3C57,66.5,55.9,66.5,54.9,66.5z"/>
	<path class="st134" d="M54.9,61.9c-0.3,0-0.5-0.1-0.3-0.5c2.2-0.2,4.4-0.2,6.7,0c0,0.1,0,0.2,0,0.2c-0.2,0.2-0.5,0.3-0.7,0.3
		c-0.3,0-0.7,0-1,0c-0.7,0-1.4,0-2.1,0c-0.4,0-0.8,0-1.2,0C55.7,62,55.3,62,54.9,61.9z"/>
	<path class="st135" d="M61.2,61.4c-2.2,0-4.4,0-6.7,0c0-0.1,0-0.1,0-0.2c1.9,0,3.8,0,5.7,0C60.6,61.2,61,61.1,61.2,61.4z"/>
	<path class="st136" d="M60.7,59.6c-1.9,0-3.9,0-5.8,0c0.1-0.1,0.2-0.2,0.2-0.2c1.3-0.3,2.6-0.1,3.9-0.1c0.4,0,0.9,0.1,1.3-0.1
		c0,0,0.1,0,0.1,0C60.7,59.2,60.8,59.4,60.7,59.6z"/>
	<path class="st137" d="M61,60.1c-1.9,0-3.9,0-5.8,0c0-0.1,0-0.2,0-0.2c1.9,0,3.7,0,5.6,0C60.8,60,60.9,60,61,60.1z"/>
	<path class="st138" d="M54.9,66.5c0.8-0.6,1.8-0.2,2.7-0.2c1.1-0.1,2.3,0,3.4,0c-0.1,0.1-0.2,0.2-0.3,0.3
		C58.8,66.7,56.8,66.7,54.9,66.5L54.9,66.5z"/>
	<path class="st139" d="M54.9,66.5c1.9,0,3.9,0,5.8,0c0,0.1,0,0.2,0,0.3c-1.8,0-3.5,0-5.3,0C55.2,66.7,55,66.7,54.9,66.5z"/>
	<path class="st140" d="M55.2,67.3c1.8,0,3.6,0,5.3,0c0,0.1,0,0.2,0,0.2c-1.2,0.3-2.4,0-3.6,0.1c-0.5,0-1-0.1-1.5,0.1
		c0,0-0.1,0-0.1,0C55.3,67.6,55.2,67.4,55.2,67.3z"/>
	<path class="st141" d="M55.5,67.8c1.1-0.6,2.3-0.1,3.4-0.3c0.5-0.1,1.1,0,1.6,0c-1.1,0.6-2.4,0.1-3.5,0.3
		C56.5,67.8,56,67.8,55.5,67.8z"/>
	<path class="st142" d="M68.3,62.9c0,0.9-0.2,1.7-0.5,2.6c-0.1,0-0.2,0-0.3,0c0-1.1,0.5-2.2,0.2-3.3C68.2,62.3,68,62.8,68.3,62.9z"
		/>
	<path class="st143" d="M69.2,64.4c0.1-0.6,0.1-1.3,0.9-1.5c0.1,0,0.2,0,0.3,0c-0.1,0.6-0.1,1.1-0.2,1.7c-0.7-0.1,0-0.7-0.4-0.9
		C69.5,63.9,69.5,64.3,69.2,64.4z"/>
	<path class="st144" d="M55.7,57.9c0.1-0.2,0.1-0.3,0.2-0.5c1.4-0.1,2.8-0.3,4.1,0.3c0,0.1,0,0.1,0,0.2c0,0-0.1,0.1-0.1,0.1
		C58.5,58,57.1,58.1,55.7,57.9z"/>
	<path class="st145" d="M59.7,68.5c0.1,0,0.2,0,0.2,0c-0.1,0.2-0.3,0.3-0.5,0.3c-1,0.5-2,0.3-3,0.2c-0.1,0-0.3,0-0.4,0
		c-0.1-0.2-0.1-0.3-0.2-0.5C57.2,68.3,58.4,68.3,59.7,68.5z"/>
	<path class="st146" d="M60,57.6c-1.4-0.1-2.8,0.3-4.1-0.3c0,0,0.1,0,0.1,0c1.2-0.6,2.4-0.6,3.5,0C59.7,57.4,59.9,57.4,60,57.6z"/>
	<path class="st147" d="M55.9,57.2c0.1-0.1,0.2-0.2,0.2-0.3c1-0.3,2,0.1,3-0.2c0,0,0.1,0,0.1,0c0.2,0.1,0.2,0.3,0.2,0.5
		C58.3,57.3,57.1,57.2,55.9,57.2z"/>
	<path class="st148" d="M56.4,69.3c-0.1-0.1-0.2-0.2-0.3-0.3c0,0,0.1,0,0.1,0c1.1-0.2,2.2-0.2,3.3,0c0,0.3,0,0.6-0.3,0.7
		C58.3,69.2,57.3,69.8,56.4,69.3z"/>
	<path class="st149" d="M55.9,57.2c1.2,0,2.3,0,3.5-0.1c0,0.1,0,0.2,0,0.3c-1.2,0-2.4,0-3.5,0C55.9,57.3,55.9,57.2,55.9,57.2z"/>
	<path class="st150" d="M61,66c-0.6,0-1.2,0.2-1.8-0.2c-0.1-0.3,0.1-0.4,0.3-0.5c0.6-0.1,1.2-0.4,1.5,0.5C61,65.8,61,65.9,61,66z"/>
	<path class="st151" d="M60.5,61.7c0.2,0,0.5,0,0.7,0c0.1,0,0.1,0,0.2,0c-0.2,0.6-0.5,1.2-0.7,1.8c0,0-0.1-0.1-0.1-0.1
		c-0.2-0.2-0.2-0.3-0.3-0.6c0-0.3,0.2-0.6,0-0.9C60.4,61.8,60.4,61.7,60.5,61.7z"/>
	<path class="st152" d="M59.5,69c-1.1,0-2.2,0-3.3,0c1.1-0.6,2.2-0.1,3.2-0.2C59.5,68.9,59.5,68.9,59.5,69z"/>
	<path class="st153" d="M56.4,69.3c0.7,0,1.4,0,2.1,0c0.3,0,0.7,0,0.7,0.5c-0.1,0-0.1,0-0.2,0c0,0-0.1,0-0.1,0
		c-0.7-0.3-1.5,0.1-2.2-0.2C56.6,69.5,56.5,69.4,56.4,69.3z"/>
	<path class="st154" d="M61,65.7c-0.5-0.5-1.1-0.2-1.6-0.3c0-0.2,0-0.3,0.2-0.4c0.6-0.3,1.1-0.2,1.7,0.1c0,0,0,0,0,0
		C61.2,65.4,61.1,65.6,61,65.7z"/>
	<path class="st155" d="M44.3,64.7c-0.2,0.2-0.3,0.4-0.3,0.7c-0.8,0.6-1.1,0.6-1.5-0.3c0-0.5,0.1-1.1-0.1-1.5
		c-0.2-0.4-0.2,0-0.2,0.2c-0.2,0.4,0.1,1-0.2,1.4l0,0.1l0,0.1c-0.3,0.7-0.7,0.7-1.2,0.3c0.2-1.3,0.5-2.5,0.7-3.8
		c0.1-0.7,0.4-0.9,1.1-0.8c0.7,0,0.9,0.3,0.9,0.9c0,0.4,0.1,0.9,0.1,1.7c0.4-0.9,0.6-1.5,0.9-2.1c0.4-0.8,1.5-0.7,2,0.1
		c0,1.2-0.2,2.4-0.7,3.4c0,0.2,0,0.4-0.1,0.6c-0.9,0.4-1,0.4-1.1-0.8c-0.1-0.4,0.1-0.7,0.2-1c0-0.2-0.1-0.2-0.1,0
		c0.1,0.1-0.2,0.1,0,0.1c0.2,0-0.1,0.2,0,0.1C44.6,64.3,44.5,64.5,44.3,64.7z"/>
	<path class="st156" d="M46.8,62.2c1.3-0.7,2.2-0.5,3,0.5c0.5,0.7,0.1,1.4,0,2.2c-0.1,0.3-0.2,0.5-0.5,0.7c-1.6,0.6-2.6,0.4-3.3-0.5
		c-0.3-1.2,0.5-1.6,1.4-1.9C46.9,62.8,46.9,62.8,46.8,62.2z"/>
	<path class="st157" d="M56.2,61.8c0.3,0,0.7,0,1,0c1.2,0.3,1.3,0.5,1.2,2c-0.3,0.7-0.9,0.7-1.5,0.8c0.4,0.2,0.9-0.1,1.1,0.3
		c0.1,0.6,0,0.9-0.6,1c-0.4,0-0.8,0-1.2,0c-0.9-0.2-1.3-0.8-1.5-1.6c-0.4-0.4-0.2-0.9,0.1-1.2C55.2,62.5,55.3,61.6,56.2,61.8z"/>
	<path class="st156" d="M50,62.7c0.5-1,1.4-0.9,2.3-0.8c0.2,0,0.4,0,0.4,0.3c0,0.2-0.1,0.4-0.3,0.5c-0.4,0.2-1.1-0.3-1.1,0.4
		c0,0.6,0.8,0.6,1.2,1c0.3,0.5,0.2,0.9-0.2,1.3c-0.7,0.7-1.6,0.8-2.6,0.5c-0.2-0.2-0.2-0.4-0.1-0.7c0.2-0.3,0.6-0.3,0.9-0.5
		C50.2,64,49.7,63.4,50,62.7z"/>
	<path class="st158" d="M46.8,62.2c0,0.3,0,0.6,0.4,0.5c0.4-0.1,0.9-0.2,1.4,0.4c-1.1,0.4-2.6,0.1-2.7,1.8c-0.1,0-0.2,0-0.2,0
		c-0.1-1.2,0.4-2.3,0.7-3.4C46.5,61.8,46.6,62.1,46.8,62.2z"/>
	<path class="st159" d="M50,62.7c-0.1,0.6,0.1,1.1,0.7,1.4c0.3,0.1,0.7,0.2,0.5,0.7c-0.1,0.3-0.5,0.2-0.8,0.2c-0.2,0-0.5,0-0.7,0
		c-0.1,0.1-0.2,0.1-0.3,0c0.1-0.8,0.2-1.5,0.3-2.3C49.9,62.7,50,62.7,50,62.7z"/>
	<path class="st160" d="M60.4,59.2c-1.7,0.5-3.5,0.1-5.3,0.2C56.9,58.9,58.7,59.3,60.4,59.2z"/>
	<path class="st161" d="M55.7,57.9c1.4,0,2.9,0,4.3,0.1C58.5,58.2,57.1,58.3,55.7,57.9z"/>
	<path class="st162" d="M54.9,62.9c-0.1,0.4-0.2,0.8-0.2,1.2c-0.3,0.4-0.4,0.2-0.5-0.2c0.3-0.4-0.4-1.4,0.8-1.3
		C55,62.8,55,62.8,54.9,62.9C54.9,62.9,54.9,62.9,54.9,62.9z"/>
	<path class="st163" d="M59.7,68.5c-1.3,0-2.5,0-3.8,0C57.2,68.1,58.4,68.1,59.7,68.5z"/>
	<path class="st164" d="M44.8,64.5c0,0.6-0.4,1.6,0.9,1.1c-0.9,0.6-0.9,0.6-1.5-0.9c0.1-0.3,0.2-0.5,0.3-0.8
		C45,64,44.8,64.3,44.8,64.5z"/>
	<path class="st165" d="M59.1,56.6c-1,0.5-2,0.1-3,0.2C57.1,56.3,58.2,56.7,59.1,56.6z"/>
	<path class="st164" d="M42.5,65.1c0.3,0.9,0.8,0.8,1.5,0.3c-0.1,0.7-0.6,0.5-1,0.5C42.4,65.9,42.5,65.5,42.5,65.1z"/>
	<path class="st166" d="M56.7,69.5c0.7,0.1,1.5-0.3,2.2,0.2C58.2,69.7,57.4,70,56.7,69.5z"/>
	<path class="st167" d="M48.7,61.6c-0.4,0-0.8,0-1.3,0C48,61.3,48.4,61.4,48.7,61.6z"/>
	<path class="st168" d="M52.4,65.2c0.3-0.4,0.4-0.8,0.2-1.3c0.1,0,0.2,0,0.3,0c0,0.5,0,1,0,1.5C52.7,65.4,52.6,65.3,52.4,65.2z"/>
	<path class="st169" d="M40.7,65.6c0.5,0.2,0.9,0.3,1.2-0.3C41.7,66.3,41.3,66.1,40.7,65.6z"/>
	<path class="st170" d="M49.5,65c0.1,0,0.2,0,0.3,0c0,0.3,0,0.5,0,0.8c-0.2-0.1-0.3-0.1-0.5-0.2C49.3,65.3,49.3,65.1,49.5,65z"/>
	<path class="st169" d="M41.9,65.2c0-0.5,0-1,0.2-1.4C42.1,64.3,42.4,64.8,41.9,65.2z"/>
	<path class="st171" d="M87.4,72.3c0-0.1,0-0.2,0-0.2c0.5-0.4,1.1-0.4,1.7-0.4c14.7,0,29.4,0,44.1,0c0.6,0,1.2,0,1.7,0.4
		c0,0.1,0,0.2,0,0.2C119,72.3,103.2,72.3,87.4,72.3z"/>
	<path class="st55" d="M134.8,72.1c-15.8,0-31.6,0-47.4,0c0-5.5,0-11,0-16.5c0-1,0.2-1.3,1.3-1.3c15,0,30,0,45,0
		c1,0,1.3,0.4,1.3,1.3C134.8,61.1,134.8,66.6,134.8,72.1z"/>
	<path class="st172" d="M148,58.4c1.1,0.4,1.4,1.3,1.2,2.3c-0.2,1.1-1,1.5-2.1,1.5c-0.6-1-0.4-2.1-0.3-3.1
		C146.8,58.3,147.4,58.4,148,58.4z"/>
	<path class="st57" d="M148,58.4c-0.8,0.2-1.1,0.7-1,1.5c0.1,0.7,0,1.5,0,2.3c-0.1,0-0.2,0-0.3,0c-0.4-1.3-0.4-2.7,0.1-4
		C147.2,58.1,147.6,58.2,148,58.4z"/>
	<path class="st173" d="M146.5,62.2c-0.4-1.4-0.5-2.7,0.1-4C146.6,59.5,146.7,60.8,146.5,62.2z"/>
	<path class="st174" d="M146.5,62.2c0-1.3,0-2.7,0.1-4c0.1,0,0.2,0,0.3,0.1c0,1.3,0,2.7-0.1,4l-0.1,0L146.5,62.2z"/>
	<path class="st175" d="M173.4,65.7c-0.6,0.5-0.2,1.2-0.3,1.9c-0.1,0.5,0.2,1-0.2,1.4c-0.8-0.3-1-0.8-0.8-1.6c0.1-0.5,0.1-1,0.2-1.5
		c0.7-0.5,1.3-1.1,1.8-1.7c0.4-0.4,0.7-0.9,1.3-0.8c0,0,0,0,0,0c0.4,0.4,0.9,0,1.3,0.3c-0.4,0.4-0.7,0.8-1.1,1.2
		c-0.4,0.4-0.2,0.6,0,0.9c-0.3,0.2-0.6,0.4-0.8,0.7c-0.2,0.3-0.4,0.6-0.8,0.5c-0.4-0.1-0.3-0.5-0.4-0.8
		C173.6,66,173.5,65.9,173.4,65.7z"/>
	<path class="st176" d="M172.3,66c0.2,0.4,0.6,0.8,0.2,1.1c-0.8,0.8,0,1.3,0.3,1.9c-0.9,0.4-0.8-0.7-1.5-0.9
		c-0.2,0.3,0.1,0.9-0.4,1.1c-0.5-1.1-0.1-2.2-0.2-3.3C171.3,65.5,171.8,66,172.3,66z"/>
	<path class="st177" d="M175.7,60.1c0-1,0-2,0-3c0.9,0,1.9,0,2.8-0.1c0.5,0,0.5,0.2,0.5,0.6c0,0.4-0.2,0.4-0.6,0.5
		c-0.5,0.1-1.1-0.3-1.5,0.2c0.3,0.2,0.4,0.7,0.8,0.7c0.3,0.1,0.8,0,1.1,0.3c0.4,0.4,0.6,0.8,0.3,1.3c-0.5,0.5-1.1,0.3-1.7,0.3
		c-0.6,0.1-1.1,0.4-1.5-0.4C175.8,60.4,175.7,60.3,175.7,60.1z"/>
	<path class="st92" d="M178.9,60.6c0-0.4,0.2-0.9-0.3-1.2c0.1-0.1,0.2-0.1,0.3-0.1c0.1,0,0.2,0,0.3,0c0.2,0.3,0.2,0.6,0.1,0.9
		c0.2-0.1-0.1-0.5,0.2-0.6c0.1,0,0.2,0,0.2,0c0,1.2,0,2.4,0,3.5c-0.2,0-0.3,0-0.5,0c-0.3-0.2-0.3-0.6-0.7-0.6
		c-0.4-0.1-0.9,0-1.2-0.5c-0.3-0.9,0-1.4,1-1.3C178.5,60.8,178.8,60.9,178.9,60.6z"/>
	<path class="st76" d="M178.9,59.3c-0.1,0-0.2,0.1-0.3,0.1c-0.4,0.1-0.8,0.1-1.2,0c-0.3-0.2-0.5-0.4-0.3-0.7c0.2-0.3,0.5-0.2,0.8,0
		C178.2,59,178.8,58.8,178.9,59.3z"/>
	<path class="st15" d="M177.9,58.6c-0.6-0.1-0.8,0.2-0.5,0.8c-1,0.1-0.5-0.6-0.5-1c0.6,0,1.2,0,1.8,0
		C178.5,58.8,178.1,58.5,177.9,58.6z"/>
	<path class="st76" d="M179.4,59.6c0,0.2,0,0.5,0,0.7c-0.1,0-0.1,0-0.2,0c0-0.3,0-0.7-0.1-1C179.3,59.5,179.4,59.6,179.4,59.6z"/>
	<path class="st178" d="M175.7,60.1c0.1,0.1,0.1,0.2,0.2,0.3c0.2,0.2,0.2,0.5,0.3,0.7c0.3,1.5,0.3,1.5,2,1.4
		c0.4,0.1,0.6,0.2,0.6,0.6C175.6,63.2,175.6,63.2,175.7,60.1z"/>
	<path class="st16" d="M176.6,63.7c-0.4-0.1-0.9,0.2-1.3-0.3c1.2,0,2.4,0,3.5,0C178.2,63.9,177.4,63.6,176.6,63.7z"/>
	<path class="st179" d="M178.7,63.2c-0.2-0.2-0.3-0.3-0.5-0.5c-0.4,0-0.3-0.2-0.1-0.3c0.3-0.1,0.6-0.1,0.9,0c0.2,0.3,0.2,0.5,0,0.8
		l-0.1,0L178.7,63.2z"/>
	<path class="st180" d="M178.9,63.2c0-0.2,0-0.5,0-0.7c-0.1,0-0.1-0.1-0.1-0.1c0-0.1,0-0.1,0-0.1c0.5,0.2,0.3,0.6,0.3,1
		c-0.1,0.1-0.2,0.2-0.3,0.2C178.9,63.3,178.9,63.2,178.9,63.2z"/>
	<path class="st181" d="M168,66.5c1.4,0,2,0.5,1.6,1.4c-0.3,0.6-0.7,1-1.4,0.8c-0.7-0.3-1.3-0.8-0.8-1.7
		C167.7,66.9,167.9,66.7,168,66.5z"/>
	<path class="st182" d="M168,66.5c0,0.2,0.3,0.5,0.1,0.6c-0.1,0.1-0.4-0.1-0.6-0.1C167.6,66.7,167.6,66.4,168,66.5z"/>
	<path class="st183" d="M181.7,62.2c-0.5,0.3,0,1-0.5,1.3c0-0.7-0.5-1.4,0.2-2c0.1,0.2,0.2,0.3,0.3,0.5
		C181.7,62,181.7,62.1,181.7,62.2z"/>
	<path class="st184" d="M181,59c0.1-0.3-0.3-0.9,0.5-0.9c0.5,0,1,0.2,1,0.9c0,0.6-0.4,0.9-0.9,1C180.7,60,181.1,59.3,181,59z"/>
	<path class="st92" d="M181.5,61.4c-0.5,0.6-0.1,1.3-0.2,2c-0.4,0.4-0.8,0.3-1.3,0.2c0,0,0-0.1,0-0.1c0,0,0-0.1,0.1-0.1
		c1.6,0.1,0.9-1.1,1-1.8c0-0.2-0.2-0.5,0.2-0.6C181.3,61,181.4,61.3,181.5,61.4z"/>
	<path class="st77" d="M184,58.1c0.4,0.4,0.2,0.8,0,1.2C184,58.9,184,58.5,184,58.1L184,58.1z"/>
	<path class="st62" d="M173.4,65.7c0.8,0,0.2,0.9,0.6,1.1c0.7-0.2,0.7-1.3,1.6-1.1c-0.9,1-1.6,2.1,0.3,3.3c-1.3,0-1.3-1-2-1.2
		c-0.3,0.3,0.1,0.9-0.6,1.2C173.3,67.9,173.3,66.8,173.4,65.7z"/>
	<path class="st185" d="M209.6,60.9c0-0.8,0-1.7,0-2.7c-0.8,0.9-0.9,2-1.5,2.7c-0.5,0.3-1,0.3-1.4-0.3c-0.4-0.8-0.7-1.5-1.1-2.3
		c-0.1,0-0.2,0-0.2,0c0,0.8,0,1.7,0,2.5c-0.3,0.3-0.7,0.3-1,0c0-1,0-1.9,0-2.9c0-0.4-0.3-1,0.4-1.1c0.6-0.1,1.3-0.2,1.6,0.7
		c0.2,0.7,0.6,1.4,1,2.3c0.4-0.9,0.7-1.5,0.9-2.2c0.2-0.9,0.9-0.9,1.6-0.8c0.9,0.1,0.5,0.7,0.5,1.1c0,1,0,1.9,0,2.9
		C210.3,61.2,210,61.2,209.6,60.9z"/>
	<path class="st186" d="M223.6,58.1c-0.1,0.4-0.2,0.8-0.2,1.2c0,0.5,0.2,1,0.9,1.1c0.6,0.1,0.8-0.3,1-0.7c0.3-0.7,0.6-1.3,0.8-2
		c0.2-0.6,0.5-0.9,1.2-0.9c0.7,0,0.9,0.4,1.1,0.9c0.4,1,0.9,2.1,1.3,3.1c-0.4,0.3-0.8,0.3-1.1,0c-0.1-0.1-0.1-0.3-0.2-0.4
		c-0.9-0.6-1.7-0.7-2.5,0.2l0,0c-1.2,0.9-2.2,0.7-3.4-0.5c-0.5-2.2,0.3-3.4,2.3-3.3c0.7,0,0.9,0.3,0.5,0.9
		C224.7,57.5,224,57.4,223.6,58.1z"/>
	<path class="st187" d="M217,59.7c-0.2,0.5,0.1,1.1-0.2,1.6c-0.3-0.2-0.5-0.2-0.8,0c-0.3-1.3-0.1-2.7-0.1-4c0-0.2,0.1-0.4,0.3-0.4
		c1.1,0,2.2-0.2,3.3,0.2c0.4,0.1,0.8,0.6,0.6,1c-0.6,1,0.1,1.9,0,2.9c-0.3,0.3-0.6,0.3-1,0c0-0.6-0.2-1-0.8-1.2
		C217.8,59.3,217.4,59.4,217,59.7z"/>
	<path class="st188" d="M200.7,60.4c-0.1,0.1-0.2,0.3-0.3,0.4c-0.3,0.5-0.7,0.5-1,0c0.4-1.1,0.9-2.2,1.3-3.3
		c0.2-0.5,0.5-0.8,1.1-0.8c0.6,0,0.9,0.2,1.1,0.8c0.4,1.1,0.9,2.2,1.4,3.3c-0.4,0.4-0.7,0.2-1.1,0c-0.1-0.2-0.2-0.3-0.2-0.5
		C202.3,60.1,201.5,60.1,200.7,60.4z"/>
	<path class="st189" d="M211.5,61.1c0-1.2,0-2.3-0.1-3.5c0-0.2,0-0.4,0.1-0.6c0.3-0.4,3-0.1,3.4,0.3c-0.7,0.2-1.3,0.1-1.8,0.1
		c0.5,0.2,1.2-0.2,1.8,0.2c-0.3,0.4-0.8,0.1-1.2,0.2c-0.4,0.1-1.1-0.3-1.1,0.4c0,0.8,0.8,0.3,1.2,0.4c0.4,0.2,1.1-0.4,1.1,0.5
		c-0.7,0.2-1.3,0.2-1.9,0.1c0.5,0.3,1.2-0.2,1.8,0.2c-0.5,0.4-1,0.1-1.6,0.2c-0.3,0-0.7-0.1-0.7,0.5c0,0.4,0.4,0.3,0.7,0.4
		c0.6,0.2,1.4-0.5,1.7,0.5C213.8,61.4,212.7,61.1,211.5,61.1z"/>
	<path class="st187" d="M229.8,60.9c0-1,0-2,0-3c0-0.4-0.2-0.9,0.4-1c0.5,0,1.1-0.2,1.4,0.5c0.3,0.6,0.7,1.2,1.1,1.8
		c0.1,0.2,0.2,0.6,0.6,0.4c0.3-0.7-0.3-1.6,0.6-2.5c0.3,1.4,0.3,2.6,0.1,3.8c-0.8,0.6-1.2,0-1.7-0.5c-0.4-0.6-0.8-1.3-1.3-2
		c-0.4,1,0,1.9-0.2,2.7C230.5,61.2,230.1,61.2,229.8,60.9z"/>
	<path class="st190" d="M220.8,60.9c0-1.1,0-2.3,0-3.4c0-0.4,0.1-0.7,0.5-0.7c0.5,0,0.5,0.3,0.5,0.7c0,1.1,0,2.3,0,3.4
		C221.4,61.2,221.1,61.2,220.8,60.9z"/>
	<path class="st191" d="M211.5,61.1c1.1-0.4,2.3-0.1,3.5-0.2c0,0.1,0,0.3-0.1,0.3C213.8,61.4,212.6,61.7,211.5,61.1z"/>
	<path class="st192" d="M233.9,60.9c0-1.1,0-2.2,0-3.3c-0.1,0-0.1,0-0.2,0c0,0.7-0.1,1.3-0.1,2c0,0-0.1,0-0.1,0c0,0-0.1,0-0.1-0.1
		c0,0,0-0.1,0-0.1c-0.1-0.8-0.2-1.6,0-2.4l0,0c0.7-0.3,0.9,0,0.9,0.7c0,1,0,2,0,3C234.2,60.9,234.1,61,233.9,60.9z"/>
	<path class="st193" d="M222.5,60.1c1,0.9,2.2,1,3.4,0.5c0,0.8-0.6,0.8-1.1,0.8C223.8,61.4,222.8,61.4,222.5,60.1z"/>
	<path class="st187" d="M234.2,60.9c0-1,0-2,0-3c0-0.6-0.2-0.8-0.8-0.8c0.4-0.3,0.9-0.4,1,0.3c0,1.3,0.2,2.7-0.1,4
		C234.1,61.2,234.1,61.1,234.2,60.9z"/>
	<path class="st194" d="M225.9,60.7c0.5-1.1,1.7-1.1,2.5-0.2C227.5,60.4,226.7,60.2,225.9,60.7z"/>
	<path class="st195" d="M203.3,60.9c0.4-0.3,0.7,0.1,1.1,0c0.1,0,0.1,0,0.2,0c0.3,0,0.7,0,1,0C205,61.6,203.9,61.6,203.3,60.9z"/>
	<path class="st196" d="M229.8,60.9c0.3,0.1,0.7,0.2,1,0.2c-0.8,0.4-1.6,0.7-2.3-0.2c0.4,0,0.8,0,1.1,0
		C229.7,60.9,229.8,60.9,229.8,60.9z"/>
	<path class="st197" d="M234.2,60.9c0,0.1,0,0.3,0.1,0.4c-0.9,0.2-1.6,0.1-1.9-0.9c0.5,0.2,1,0.7,1.6,0.5
		C234,60.9,234.1,60.9,234.2,60.9z"/>
	<path class="st198" d="M223.6,58.1c0.5-0.9,1-1.2,1.8-0.4C224.8,57.9,224.1,57.7,223.6,58.1z"/>
	<path class="st199" d="M200.7,60.4c0.8-0.6,1.5-0.6,2.3,0C202.3,60.5,201.5,60.4,200.7,60.4z"/>
	<path class="st200" d="M206.8,60.6c0.4,0.3,0.9,0.3,1.4,0.3C207.5,61.9,207.1,61.6,206.8,60.6z"/>
	<path class="st201" d="M214.9,59.4c-0.7,0-1.3,0-2,0c0-0.1,0-0.2,0-0.3c0.7,0,1.3,0,2,0C214.9,59.2,214.9,59.3,214.9,59.4z"/>
	<path class="st202" d="M214.9,57.6c-0.7,0-1.3,0-2,0c0-0.1,0-0.2,0-0.3c0.7,0,1.4,0,2,0C214.9,57.4,214.9,57.5,214.9,57.6z"/>
	<path class="st187" d="M233.4,57.1c0,0.8,0,1.6,0,2.4C233.2,58.7,233.2,57.9,233.4,57.1z"/>
	<path class="st203" d="M209.6,60.9c0.3,0,0.6,0,1,0c0.1,0.4-0.1,0.5-0.5,0.5C209.8,61.4,209.5,61.3,209.6,60.9z"/>
	<path class="st204" d="M199.5,60.9c0.3,0.2,0.7,0.2,1,0c0,0.6-0.5,0.6-0.9,0.5C199.1,61.4,199.3,61.1,199.5,60.9z"/>
	<path class="st205" d="M219,60.9c0.3,0,0.6,0,1,0c0.1,0.4-0.1,0.5-0.5,0.5C219.1,61.4,218.9,61.3,219,60.9z"/>
	<path class="st206" d="M220.8,60.9c0.3,0,0.6,0,1,0c0.1,0.4-0.1,0.5-0.4,0.5C220.9,61.4,220.7,61.4,220.8,60.9z"/>
	<path class="st207" d="M217,59.7c0.4-0.6,1-0.3,1.4-0.3c0.2,0-0.1,0.2-0.2,0.3C217.8,59.7,217.4,59.7,217,59.7z"/>
	<path class="st208" d="M215.9,61.3c0.3-0.6,0.5-0.6,0.8,0C216.5,61.4,216.2,61.4,215.9,61.3z"/>
	<path class="st209" d="M216.5,67.8c0,0.3,0,0.7,0,1c-0.7,0.3-1.4,0-2.1,0.2c-0.3-0.1-0.4-0.3-0.5-0.6c-0.2-0.4-0.3-1.1-1-0.6
		c-0.3,0.4-0.7,0.8-1,1.1c-1.4-0.2-2.9,0.1-4.3-0.2c0-1.1,0-2.2-0.1-3.3c0-0.7,0.2-0.9,0.9-0.9c0.7,0,1.4,0.1,2.2,0
		c0.9-0.1,1.6,0.1,2,0.9c0.3,0.5,0.6,0.5,1.1,0c0.8-0.9,4.2-1.3,5.3-0.7c0.8,0.4,0.9,1.3,0.2,2.4c-0.6,0.1-1.2,0.2-1.8,0.2
		C217.1,67.3,216.7,67.3,216.5,67.8z"/>
	<path class="st210" d="M220.3,68.8c0-1.1,0-2.3,0-3.4c0-0.2,0-0.5,0.2-0.7c0.4-0.2,3.4,0,3.7,0.3c0.3,0.3,0.5,0.7,0.3,1
		c-0.5,0.7-0.4,1.3-0.1,2c0.1,0.3,0.3,1-0.3,1.1c-0.8,0.2-0.7-0.5-0.7-1c0-0.1,0-0.2,0-0.4c-0.6-0.8-1.3-0.7-2-0.2
		c0,0.4,0,0.8,0,1.2C221,69,220.6,69,220.3,68.8z"/>
	<path class="st211" d="M226.1,65.7c0.1,0.9,0.8,0.6,1.3,0.7c0.4,0.1,1.2-0.4,1.2,0.6c-0.8,0.5-1.8-0.3-2.5,0.5
		c0,0.9,0.7,0.7,1.2,0.8c0.4,0.1,1.2-0.5,1.3,0.5c-1.1,0.4-2.2-0.1-3.3,0.2c-0.4-1.3-0.1-2.5-0.2-3.8c0-0.1,0-0.2,0-0.2
		c0.8-0.7,1.8-0.2,2.7-0.3c0.4-0.1,0.9-0.1,0.8,0.6c-0.5,0.3-1,0.1-1.4,0.1C226.8,65.4,226.4,65.2,226.1,65.7z"/>
	<path class="st212" d="M230.7,65.5c-0.7,1.2,0.5,0.8,0.9,0.9c1.5,0.2,1.8,0.7,1.3,2.1c-1.1,0.6-2.3,0.4-3.4,0.2
		c0.2-1.1,1-0.4,1.5-0.5c0.5-0.1,1.4,0.1,0.7-0.9c-0.7-0.4-1.5-0.1-2.1-0.6c-0.5-1.2-0.1-2,1.1-2.1c0.5-0.1,1.1,0,1.6,0
		c0.7,0,0.8,0.3,0.5,0.8C232,65.3,231.3,65.2,230.7,65.5z"/>
	<path class="st213" d="M233.7,69c-0.3-0.5-0.2-0.8,0.4-0.8c0.5,0,1,0.1,1.5,0c0.7-0.1,0.7-0.5,0.2-0.9c-0.6-0.4-1.5-0.1-2.1-0.6
		c-0.5-1.4-0.1-2,1.3-2.1c0.5,0,1,0,1.5,0c0.4,0,0.6,0.2,0.5,0.6c-0.7,0.4-1.5-0.2-2.2,0.3c-0.5,0.5-0.2,0.7,0.4,0.8
		c0.4,0.1,0.9,0,1.3,0.1c1,0.3,1.2,1.2,0.4,2.3C235.7,69.1,234.7,68.7,233.7,69z"/>
	<path class="st214" d="M207.6,68.8c1.4,0.1,2.9-0.2,4.3,0.2c-1.3,0.4-2.7,0.1-4,0.2C207.7,69.1,207.6,69,207.6,68.8z"/>
	<path class="st215" d="M221.3,67.6c0.7-0.9,1.5-0.8,2,0.2C222.7,67.4,222,67.5,221.3,67.6z"/>
	<path class="st216" d="M229.4,68.8c1.1,0,2.3,0.1,3.4-0.2C231.9,69.3,230.3,69.4,229.4,68.8z"/>
	<path class="st217" d="M216.5,67.8c0-0.3,0.1-0.5,0.4-0.5c0.8,0,1.6,0,2.3-0.1C218.5,67.9,217.4,67.3,216.5,67.8z"/>
	<path class="st218" d="M225.3,69c1.1-0.5,2.2-0.1,3.3-0.2C227.6,69.5,226.4,69,225.3,69z"/>
	<path class="st219" d="M233.7,69c1-0.5,2.1-0.1,3.1-0.3C235.8,69.4,234.7,69.1,233.7,69z"/>
	<path class="st220" d="M233.7,66.7c0.7,0.1,1.4,0.2,2.1,0.3c0,0,0,0.1,0,0.1c0,0,0,0.1-0.1,0.1C235,67.3,234.2,67.5,233.7,66.7z"/>
	<path class="st221" d="M226.1,65.7c0.1-0.8,0.7-0.5,1.2-0.5c0.4,0,0.9,0,1.3,0C227.9,66,226.9,65.1,226.1,65.7z"/>
	<path class="st222" d="M229.5,66.7c0.7,0.1,1.5,0.2,2.2,0.3c0,0,0,0.1,0,0.1c0,0,0,0.1-0.1,0.1C230.9,67.2,230.1,67.5,229.5,66.7z"
		/>
	<path class="st223" d="M226.1,67.5c0.6-1,1.7-0.3,2.5-0.5C227.9,67.7,226.9,66.9,226.1,67.5z"/>
	<path class="st216" d="M234.8,65.5c0.6-0.7,1.5-0.2,2.2-0.3C236.3,65.9,235.5,65.4,234.8,65.5z"/>
	<path class="st224" d="M214.4,69c0.7-0.4,1.4-0.1,2.1-0.2C215.9,69.5,215.1,69,214.4,69z"/>
	<path class="st225" d="M230.7,65.5c0.7-0.6,1.4-0.4,2-0.1C232,65.5,231.4,65.5,230.7,65.5z"/>
	<path class="st226" d="M212.9,67.8c0-0.2,0-0.5,0.3-0.5c0.5,0.1,0.7,0.5,0.7,1C213.6,68.3,213.5,67.6,212.9,67.8z"/>
	<path class="st227" d="M220.3,68.8c0.3,0,0.6,0,0.9,0C220.9,69.3,220.7,69.3,220.3,68.8z"/>
	<path class="st228" d="M72.9,63.7c-0.1,0.6-0.3,1.1-1,1.1c-0.5,0-0.6-0.5-0.6-1c0-0.6,0.3-1.1,0.9-1.1
		C72.8,62.8,72.9,63.2,72.9,63.7z"/>
	<path class="st229" d="M66.1,64c0.3,0,0.5,0,0.5,0.3c0,0.4-0.2,0.6-0.6,0.7c-0.3,0.1-0.5,0-0.5-0.3C65.5,64.2,65.8,64.1,66.1,64z"
		/>
	<path class="st230" d="M60.8,63.4c0.1,0.4,0.2,0.9,0.2,1.3c-0.5,0.3-1,0.2-1.4,0.1c-0.6-0.6-0.3-1.1,0.1-1.6c0.4-0.1,0.7-0.3,1,0.2
		C60.7,63.4,60.7,63.4,60.8,63.4z"/>
	<path class="st231" d="M59.5,64.8c0.5,0,1,0,1.5,0c0.1,0.1,0.2,0.3,0.3,0.4c-0.6,0-1.2,0-1.8,0C59.3,65,59.3,64.9,59.5,64.8z"/>
	<path class="st232" d="M54.9,62.9c0-0.1,0-0.1,0-0.2c0-0.3,0.2-0.6,0-0.8c0.4-0.3,0.9-0.3,1.3-0.1C55.6,62,55.3,62.5,54.9,62.9z"/>
	<path class="st233" d="M59.5,64.8c0,0.1,0,0.3,0,0.4c0,0.1,0,0.2-0.1,0.3c-0.1,0.1-0.1,0.2-0.2,0.4c-0.2,0-0.3,0-0.5,0
		c-0.4,0.1-0.7,0-0.6-0.5c0.1-0.4,0-0.7,0.1-1.1c0-0.1,0.1-0.3,0.1-0.4c0.2-0.4,0.1-0.9,0.1-1.3c0-0.5,0.2-0.8,0.7-0.7
		c0.4,0,0.8,0.1,1.3,0.1c0.9,0.3,0,0.7,0,1c-0.1,0.2-0.3,0.2-0.5,0.3C59.7,63.7,59.4,64.2,59.5,64.8z"/>
	<path class="st234" d="M58.4,64.2c0.3,0.5-0.7,1.2,0.3,1.6c-0.4,0.2-0.9,0.3-1.3,0c0.5-0.2,0.6-0.6,0.5-1.1
		C57.9,64.4,58,64.1,58.4,64.2z"/>
	<path class="st235" d="M59.5,61.9c-0.6-0.1-0.7,0.3-0.7,0.8c0,0.5,0,0.9-0.3,1.3c-0.1,0.1-0.1,0.1-0.2,0c0.1-0.9,0.1-1.8-1-2.2
		c0.7-0.3,1.5-0.1,2.3-0.1C59.5,61.7,59.6,61.8,59.5,61.9C59.5,61.9,59.5,61.9,59.5,61.9z"/>
	<path class="st236" d="M59.5,61.9c0-0.1,0-0.1,0-0.2c0.4,0,0.7,0,1.1,0c0,0.1,0,0.1-0.1,0.2C60.1,62.3,59.8,62,59.5,61.9z"/>
	<path class="st237" d="M60,63.2c0.1-0.2,0.3-0.2,0.5-0.3c0.2,0.1,0.3,0.3,0.2,0.5C60.4,63.3,60.2,63.2,60,63.2z"/>
	<path class="st238" d="M44.8,64.5c-0.1-0.2,0-0.5-0.3-0.6c0.1-0.3,0.2-0.6,0.4-1C45.1,63.6,45,64.1,44.8,64.5z"/>
	<path class="st239" d="M48.5,64.3c-0.1,0.4-0.4,0.7-0.8,0.7c-0.3,0-0.6-0.1-0.6-0.4c0.1-0.5,0.5-0.6,0.9-0.7
		C48.4,63.9,48.5,64,48.5,64.3z"/>
	<path class="st240" d="M58.2,64c0.1,0,0.1,0,0.2,0c0,0.1,0,0.2,0,0.2c-0.2,0.2-0.3,0.4-0.5,0.5c-0.7,0.2-1.4,0.5-2-0.4
		C56.7,63.9,57.5,64.3,58.2,64z"/>
	<path class="st241" d="M57.3,63.1c0,0.3-0.3,0.3-0.5,0.3c-0.3,0-0.7,0.2-0.7-0.2c0-0.3,0.3-0.5,0.6-0.5
		C57,62.6,57.2,62.8,57.3,63.1z"/>
	<path class="st26" d="M120.3,68.8c1.6-3.7,3.1-7.4,4.7-11.2c0.4-0.9,1.2-1,2.1-1c2.3,0,2.3,0,2.8,2.2c0.7,3.4,1.4,6.8,2.1,10.3
		c-0.9,0.4-1.9-0.1-2.9,0.3c-0.3-2.1-1.8-1.8-3.3-1.8c-1.2-0.1-1.9,0.2-2.2,1.4C122.6,69.5,121.1,69.5,120.3,68.8z"/>
	<path class="st26" d="M119.8,66.7c-0.7,1.8-2.3,2.4-4,2.7c-1.5,0.3-2.9,0.1-4.4-0.2c-0.7-0.2-1.2-0.4-0.9-1.3
		c0.2-0.6,0.1-1.3,0.4-1.9c1.3,0.5,2.6,1,4.1,0.7c0.6-0.1,1.3-0.3,1.5-1c0.2-0.8-0.5-1.1-1-1.4c-0.4-0.2-0.8-0.4-1.2-0.7
		c-1.3-0.8-2.5-1.6-2.4-3.4c0.1-1.8,1.2-2.9,2.9-3.5c1.3-0.1,2.5-0.4,3.8-0.3c1.9,0.1,2.3,1,1.3,2.3c-1.1,0-2.1-0.3-3.1-0.2
		c0.5,0.4,1.5-0.5,2,0.3c-0.7,0-1.3,0-2,0c-0.6,0-1.1,0.2-1.3,0.8c-0.2,0.7,0.4,1,0.8,1.2c1,0.6,2.1,0.9,2.9,1.8
		c0.1,0.1,0.2,0.3,0.3,0.5C120.1,64.5,120,65.6,119.8,66.7z"/>
	<path class="st26" d="M96.7,69.1c-1.1-3.5-2-7.2-3-10.8c0.2-0.1,0.4-0.2,0.6,0c1.5,1,3,2.1,3.6,3.9c0.2,0.3,0.2,0.7,0.4,1
		c0.1,0.6,0.3,1.1,0.5,2c1-2.5,1.9-4.6,2.6-6.9c0.5-1.4,1.2-2.1,2.7-1.8c0.5,0.1,1,0,1.7,0c-1.8,4.3-3.6,8.4-5.4,12.6
		C99.1,69.2,97.9,69.2,96.7,69.1z"/>
	<path class="st26" d="M105.1,69c0.6-3.9,1.3-7.8,1.9-11.7c0.1-0.5,0.3-0.7,0.8-0.7c2.8-0.2,2.8-0.2,2.3,2.5
		c-0.5,3.2-1.1,6.3-1.6,9.5c0,0.3,0,0.6-0.3,0.8C107.2,68.9,106.1,69.4,105.1,69z"/>
	<path class="st242" d="M97.9,62.4c-1-1.7-2.3-3.2-4.1-4.1c-1-0.8-2.3-1.1-3.4-1.8c1.9,0,3.8,0,5.7,0c0.7,0,1.1,0.5,1.2,1.2
		c0.3,1.4,0.6,2.9,0.8,4.3C98.2,62.4,98,62.4,97.9,62.4z"/>
	<path class="st243" d="M119.8,58.9c0.5-1.8,0.3-1.9-1.6-2.1c-1.2-0.1-2.3,0.4-3.4,0.1c1.4-0.7,2.8-0.7,4.3-0.5
		c1.8,0.2,2,0.8,1.1,2.5C120,59,119.9,59,119.8,58.9z"/>
	<path class="st244" d="M120.3,68.8c1.1,0.5,2.2,0.2,3.4,0.1c0,0.3-0.2,0.6-0.5,0.6c-0.9,0-1.8,0-2.7,0
		C119.9,69.4,120,69.1,120.3,68.8z"/>
	<path class="st245" d="M119.8,66.7c-0.1-1.1-0.2-2.2-0.3-3.3C120.4,64.5,120.3,65.6,119.8,66.7z"/>
	<path class="st246" d="M119.8,58.9c0.1,0,0.2,0,0.3,0c-0.3,1.1-0.9,0.2-1.3,0.2c-0.7-0.5-1.5,0-2.4-0.4
		C117.6,58.5,118.7,58.6,119.8,58.9z"/>
	<path class="st247" d="M96.7,69.1c1.2-0.1,2.4-0.1,3.7,0C99.1,69.5,97.9,69.6,96.7,69.1z"/>
	<path class="st248" d="M105.1,69c1,0.2,2.1-0.3,3.1,0.3c-1,0-1.9,0.1-2.9,0.1C105.1,69.4,104.9,69.3,105.1,69z"/>
	<path class="st248" d="M129.2,69.3c0.9-0.6,1.9-0.1,2.9-0.3c0.2,0.3,0,0.4-0.2,0.4C130.9,69.4,130.1,69.3,129.2,69.3z"/>
	<path class="st249" d="M97.9,62.4c0.1-0.1,0.1-0.2,0.2-0.3c0.3,0.3,0.2,0.7,0.2,1.1C98.1,63,98,62.7,97.9,62.4z"/>
	<path class="st250" d="M171.6,66.4c0.3,0.1,0.5,0.2,0.5,0.5c0,0.2-0.2,0.4-0.4,0.4c-0.4,0.1-0.4-0.2-0.4-0.5
		C171.3,66.6,171.3,66.4,171.6,66.4z"/>
	<path class="st251" d="M178.9,62.2c0,0.1,0,0.2,0,0.2c-0.2,0.1-0.6-0.2-0.7,0.2c-1.9,0.7-2.3,0.4-2.3-1.4c0-0.3,0-0.6,0-0.9
		c0.3,0,0.5,0.9,1,0.2c0.5,0.4,0.1,1.1,0.5,1.5C177.9,62.2,178.4,62.2,178.9,62.2z"/>
	<path class="st252" d="M177.4,62.2c-1.1-0.2-0.4-1-0.5-1.5c0.7,0,1.4,0,2-0.1c-0.1,0.2-0.3,0.3-0.5,0.3
		C177.4,60.8,177.3,61.4,177.4,62.2z"/>
	<path class="st253" d="M227.1,58c0.4,0.4,0.8,0.9,0.6,1.4c-0.1,0.2-0.7,0.2-0.9,0C226.3,58.8,227,58.5,227.1,58z"/>
	<path class="st254" d="M218.8,57.9c0.2,0.3,0.3,0.7-0.1,0.9c-0.5,0.2-1.1,0.3-1.6,0c-0.4-0.2-0.3-0.6-0.1-1
		C217.6,57.6,218.2,57.5,218.8,57.9z"/>
	<path class="st255" d="M218.8,57.9c-0.6,0-1.2-0.1-1.8-0.1C217.6,57.1,218.2,57.1,218.8,57.9z"/>
	<path class="st256" d="M201.8,57.9c0.2,0.5,0.9,0.9,0.4,1.4c-0.1,0.1-0.7,0.1-0.8,0C201,58.8,201.7,58.4,201.8,57.9z"/>
	<path class="st257" d="M211.6,65.8c0.1,0.5,1,0.7,0.6,1.3c-0.4,0.7-1,1.4-2,1.1c-0.6-0.2-1.8,0.6-1.6-0.9c0.7-0.5,1.6,0.1,2.3-0.3
		c-0.1-1-0.9-0.5-1.3-0.5c-0.6,0-1.1-0.1-1-0.9C209.7,65.3,210.7,65,211.6,65.8z"/>
	<path class="st258" d="M215.4,68.5c-1.8-1.9-2-1.3,0-3.2C215.4,66.4,215.4,67.4,215.4,68.5z"/>
	<path class="st259" d="M218.2,65.5c0.3,0.3,0.6,0.6,0.2,1c-0.4,0.5-1,0.3-1.5,0.2c-0.7-0.1-0.3-0.7-0.4-1.1
		C217.1,65.2,217.7,65.3,218.2,65.5z"/>
	<path class="st260" d="M211.6,65.8c-1-0.5-2-0.2-3-0.2C209.7,65,211.1,65.1,211.6,65.8z"/>
	<path class="st261" d="M210.9,67c-0.7,0.7-1.5,0.1-2.3,0.3C209.3,66.6,210.2,67.2,210.9,67z"/>
	<path class="st221" d="M218.2,65.5c-0.6,0-1.2,0-1.7,0.1C217.1,65.1,217.6,65,218.2,65.5z"/>
	<path class="st262" d="M223.3,65.7c0.2,1.1-0.6,0.8-1.2,0.9c-0.8,0.1-0.8-0.4-0.8-1C222,65.2,222.7,65.1,223.3,65.7z"/>
	<path class="st263" d="M223.3,65.7c-0.7-0.3-1.3-0.2-2-0.1C222,65,222.7,64.9,223.3,65.7z"/>
	<path class="st264" d="M127,60.1c0.3,1.6,0.6,2.9,0.9,4.1c0.1,0.4,0,0.7-0.5,0.6c-0.5,0-1.1,0-1.6,0c-0.4,0-0.5-0.2-0.4-0.6
		C125.9,63,126.4,61.7,127,60.1z"/>
</g>
</svg>
