<?xml version="1.0" encoding="utf-8"?>
<!-- Generator: Adobe Illustrator 22.0.0, SVG Export Plug-In . SVG Version: 6.00 Build 0)  -->
<svg version="1.1" id="Layer_1" xmlns="http://www.w3.org/2000/svg" xmlns:xlink="http://www.w3.org/1999/xlink" x="0px" y="0px"
	 viewBox="0 0 300 300" style="enable-background:new 0 0 300 300;" xml:space="preserve">
<style type="text/css">
	.st0{fill-rule:evenodd;clip-rule:evenodd;fill:url(#SVGID_1_);}
</style>
<linearGradient id="SVGID_1_" gradientUnits="userSpaceOnUse" x1="150.5955" y1="278.9622" x2="150.5955" y2="17">
	<stop  offset="0" style="stop-color:#6F4118"/>
	<stop  offset="0.5" style="stop-color:#CC9639"/>
	<stop  offset="1" style="stop-color:#6F4118"/>
</linearGradient>
<path class="st0" d="M218.5,184.6c-1.9-2-4.4-3-7.6-3c-3.2,0-5.8,0.8-7.6,2.5c-1.9,1.7-2.8,3.8-2.8,6.4c0,2.3,1,4.3,3.1,6.1
	c2.1,1.8,5.7,3.7,10.8,5.7c5.2,2,9.4,4.1,12.7,6.3c8.1,5.5,12.1,13,12.1,22.7c0,7.7-2.5,13.8-7.4,18.1c-0.9,0.8-1.9,1.6-3,2.2
	c-3.6,2.3-8,3.7-13.2,4.2v6.3c0,2.2-1.8,4-4,4c-2.2,0-4-1.8-4-4v-6.3c-3.9-0.4-7.5-1.3-10.8-2.8c-0.6-0.3-1.1-0.5-1.7-0.8
	c-4.9-2.6-8.6-6.1-11.1-10.5c-2.5-4.5-3.7-9.6-3.7-15.4h18.1c0,4.7,1,8.2,3.1,10.4c2.1,2.2,5.4,3.4,10.1,3.4c3,0,5.3-0.8,7.1-2.3
	c1.7-1.5,2.6-3.6,2.6-6.4c0-3.1-0.9-5.5-2.8-7.3c-1.9-1.7-5.1-3.5-9.8-5.4c-4.7-1.9-8.5-3.6-11.5-5.4c-9.7-5.6-14.5-13.3-14.5-23.1
	c0-4.2,0.9-7.9,2.6-11.2c-0.2,0-0.4,0-0.6,0c-0.1,0-0.1,0-0.2,0c-0.1,0-0.2,0-0.3,0c-4-0.5-7.5-3.4-8.5-7.5L159.8,111l-0.4,154.8
	c0.1,7.2-5.7,13.1-12.9,13.1c-7.2,0.1-13.1-5.7-13.1-12.9l0-76.9h-10.2l0,76.6c0.1,7.2-5.7,13.1-12.9,13.1
	c-7.2,0.1-13.1-5.7-13.1-12.9l0.2-154.9l-15.7,60.2c-1.3,5.4-6.8,8.6-12.1,7.3c-5.4-1.3-8.6-6.8-7.3-12.1l21.7-83.1
	c0-0.1,0.1-0.2,0.1-0.3c0-0.1,0-0.1,0.1-0.2c0,0,0,0,0,0c0,0,0,0,0,0c0-0.1,0.1-0.2,0.1-0.3c0.5-1.4,1.2-2.6,2.2-3.6
	c4-4.7,14.6-11.1,42.2-11.1c0.7,0,1.4,0,2.1,0c0.2,0,0.4,0,0.5,0c0.3,0,0.5,0,0.8,0c0.2,0,0.3,0,0.5,0c2.1,0.1,4.1,0.1,6,0.3
	c0,0,0,0,0.1,0c20.7,1.4,29.1,7,32.4,11.1c0,0,0,0,0,0c0.1,0.1,0.1,0.1,0.1,0.2c0,0,0,0,0,0c0,0.1,0.1,0.1,0.1,0.2c0,0,0,0,0.1,0.1
	c0.1,0.1,0.2,0.3,0.3,0.4c0,0,0,0,0,0.1c0.1,0.1,0.2,0.2,0.3,0.4c0,0,0,0.1,0.1,0.1c0.1,0.1,0.1,0.2,0.2,0.4c0,0,0,0.1,0,0.1
	c0.1,0.1,0.1,0.3,0.2,0.4c0,0,0,0,0,0.1c0.1,0.1,0.1,0.3,0.2,0.4c0,0,0,0,0,0c0.2,0.5,0.4,1,0.5,1.5l21.6,83.2
	c0.2,0.9,0.3,1.8,0.3,2.6c0.4-0.2,0.8-0.4,1.2-0.6c1.2-0.6,2.5-1.1,3.8-1.5c1.8-0.6,3.7-1,5.7-1.3c0.1,0,0.1,0,0.2,0c0,0,0,0,0,0
	c0.5-0.1,1-0.1,1.5-0.2v-8c0-2.2,1.8-4,4-4c2.2,0,4,1.8,4,4v8.1c3.6,0.5,7,1.5,10.1,3.1c4.3,2.3,7.6,5.5,9.9,9.6s3.5,8.9,3.5,14.3
	h-18C221.3,189.4,220.3,186.6,218.5,184.6z M128.6,63.2c-12.8,0-23.1-10.3-23.1-23.1S115.8,17,128.6,17c12.8,0,23.1,10.3,23.1,23.1
	S141.4,63.2,128.6,63.2z"/>
</svg>
