<?xml version="1.0" encoding="utf-8"?>
<!-- Generator: Adobe Illustrator 22.0.0, SVG Export Plug-In . SVG Version: 6.00 Build 0)  -->
<svg version="1.1" id="Layer_1" xmlns="http://www.w3.org/2000/svg" xmlns:xlink="http://www.w3.org/1999/xlink" x="0px" y="0px"
	 viewBox="0 0 80 75" style="enable-background:new 0 0 80 75;" xml:space="preserve">
<style type="text/css">
	.st0{fill:url(#SVGID_1_);}
	.st1{fill:url(#SVGID_2_);}
	.st2{fill:url(#SVGID_3_);}
	.st3{fill:url(#SVGID_4_);}
	.st4{fill:url(#SVGID_5_);}
	.st5{fill:url(#SVGID_6_);}
	.st6{fill:url(#SVGID_7_);}
	.st7{fill:url(#SVGID_8_);}
	.st8{fill:url(#SVGID_9_);}
	.st9{fill:url(#SVGID_10_);}
	.st10{fill:url(#SVGID_11_);}
	.st11{fill:url(#SVGID_12_);}
	.st12{fill:url(#SVGID_13_);}
	.st13{fill:url(#SVGID_14_);}
	.st14{fill:url(#SVGID_15_);}
	.st15{fill:url(#SVGID_16_);}
	.st16{fill:url(#SVGID_17_);}
	.st17{fill:url(#SVGID_18_);}
	.st18{fill:url(#SVGID_19_);}
	.st19{fill:url(#SVGID_20_);}
	.st20{fill:url(#SVGID_21_);}
	.st21{fill:url(#SVGID_22_);}
	.st22{fill:url(#SVGID_23_);}
	.st23{fill:url(#SVGID_24_);}
</style>
<g>
	
		<linearGradient id="SVGID_1_" gradientUnits="userSpaceOnUse" x1="7.166" y1="-105.783" x2="7.166" y2="-108.2051" gradientTransform="matrix(1 0 0 1 0.3572 151.2885)">
		<stop  offset="0" style="stop-color:#6F4118"/>
		<stop  offset="0.5" style="stop-color:#CC9639"/>
		<stop  offset="1" style="stop-color:#6F4118"/>
	</linearGradient>
	<rect x="1.3" y="43.1" class="st0" width="12.5" height="2.4"/>
	
		<linearGradient id="SVGID_2_" gradientUnits="userSpaceOnUse" x1="59.4768" y1="-105.783" x2="59.4768" y2="-108.2051" gradientTransform="matrix(1 0 0 1 0.3572 151.2885)">
		<stop  offset="0" style="stop-color:#6F4118"/>
		<stop  offset="0.5" style="stop-color:#CC9639"/>
		<stop  offset="1" style="stop-color:#6F4118"/>
	</linearGradient>
	<path class="st1" d="M41.3,43.8c0,0.7-0.3,1.2-0.7,1.7h38.6v-2.4H41.2C41.3,43.3,41.3,43.6,41.3,43.8z"/>
	
		<linearGradient id="SVGID_3_" gradientUnits="userSpaceOnUse" x1="7.4339" y1="-108.2051" x2="7.4339" y2="-114.7212" gradientTransform="matrix(1 0 0 1 0.3572 151.2885)">
		<stop  offset="0" style="stop-color:#6F4118"/>
		<stop  offset="0.5" style="stop-color:#CC9639"/>
		<stop  offset="1" style="stop-color:#6F4118"/>
	</linearGradient>
	<path class="st2" d="M7.2,41.6L7.2,41.6L8,40.9h5.7v-1h-0.1l0.1-0.2v-0.8c0-0.2,0-0.5,0-0.7h-0.9l0,0l0.6-0.7l0,0h0.4
		c0.1-0.3,0.2-0.7,0.4-1H8.8l-7.6,6.5h12.5v-1.4L7.2,41.6L7.2,41.6z M13.2,39.1l-0.7,0.7h-1.2l0,0l0.7-0.7l0,0H13.2z M11.4,37.6h1.1
		l-0.7,0.7h-1.1L11.4,37.6z M9.8,39.1L9.8,39.1H11l-0.7,0.7H9.1L9.8,39.1z"/>
	
		<linearGradient id="SVGID_4_" gradientUnits="userSpaceOnUse" x1="57.2262" y1="-108.2051" x2="57.2262" y2="-114.7212" gradientTransform="matrix(1 0 0 1 0.3572 151.2885)">
		<stop  offset="0" style="stop-color:#6F4118"/>
		<stop  offset="0.5" style="stop-color:#CC9639"/>
		<stop  offset="1" style="stop-color:#6F4118"/>
	</linearGradient>
	<path class="st3" d="M36.4,37.9L36.4,37.9l0-0.4l0,0h1.1l-0.1,0.7h-1c0.1,0.3,0.1,0.6,0.2,0.9h0.8l-0.1,0.7h-0.5
		c0.1,0.3,0.1,0.6,0.2,1c0.2,0,0.4,0,0.6,0.1H49l0,0l0.2,0.8h-8.9c0.4,0.4,0.7,0.9,0.9,1.4h37.9l-7.6-6.5H36
		C36.2,37,36.3,37.4,36.4,37.9L36.4,37.9z M72.4,40.9l0.8,0.8H55.1l-0.3-0.8l0,0H72.4z M60,39.9h-1.2l0,0l-0.5-0.7l0,0h1.2L60,39.9z
		 M62.3,39.9h-1.2l0,0l-0.5-0.7l0,0h1.2L62.3,39.9z M64.5,39.9h-1.2l0,0l-0.6-0.7l0,0h1.2L64.5,39.9z M66.8,39.9h-1.2l0,0L65,39.1
		l0,0h1.2L66.8,39.9z M69.1,39.9h-1.2l0,0l-0.7-0.7l0,0h1.2L69.1,39.9z M71.3,39.9h-1.2l-0.7-0.7l0,0h1.2L71.3,39.9z M67.9,37.6H69
		l0.7,0.7h-1.1L67.9,37.6L67.9,37.6z M65.8,37.6h1.1l0.6,0.7h-1.1l0,0L65.8,37.6L65.8,37.6z M63.7,37.6h1.1l0.6,0.7h-1.1l0,0
		L63.7,37.6L63.7,37.6z M61.6,37.6h1.1l0.5,0.7h-1.1l0,0L61.6,37.6L61.6,37.6z M59.5,37.6h1.1l0.5,0.7h-1.1l0,0L59.5,37.6L59.5,37.6
		z M57.4,37.6h1.1l0.4,0.7h-1.1l0,0L57.4,37.6L57.4,37.6z M57.7,39.9h-1.2l-0.4-0.7l0,0h1.2L57.7,39.9z M55.3,37.6h1.1l0.4,0.7h-1.1
		l0,0L55.3,37.6L55.3,37.6z M55.4,39.9h-1.2l-0.3-0.7l0,0h1.2L55.4,39.9z M53.2,37.6h1.1l0.3,0.7h-1.1L53.2,37.6L53.2,37.6z
		 M48.8,39.9h-1.2l0,0l-0.2-0.7l0,0h1.2L48.8,39.9z M48.1,37.6l0.2,0.7h-1.1L47,37.6H48.1L48.1,37.6z M46.5,39.9h-1.2l-0.1-0.7h1.2
		L46.5,39.9z M46,37.6l0.1,0.7H45l-0.1-0.7H46L46,37.6z M44.2,39.9H43l0,0L43,39.1l0,0h1.2L44.2,39.9z M42.8,37.6h1.1l0.1,0.7h-1.1
		l0,0L42.8,37.6L42.8,37.6z M41.9,39.9h-1.2l0,0l0-0.7l0,0h1.2L41.9,39.9z M41.8,37.6l0,0.7h-1.1l0-0.7H41.8L41.8,37.6z M38.6,37.6
		h1.1l0,0.7h-1.1L38.6,37.6z M38.5,39.1h1.2l0,0.7h-1.2l0,0L38.5,39.1z"/>
	
		<linearGradient id="SVGID_5_" gradientUnits="userSpaceOnUse" x1="52.0497" y1="-115.45" x2="52.0497" y2="-119.0295" gradientTransform="matrix(1 0 0 1 0.3572 151.2885)">
		<stop  offset="0" style="stop-color:#6F4118"/>
		<stop  offset="0.5" style="stop-color:#CC9639"/>
		<stop  offset="1" style="stop-color:#6F4118"/>
	</linearGradient>
	<path class="st4" d="M35.8,35.8h35.5v-3.6H33.7c0,0.2-0.1,0.3-0.2,0.4C34.3,33.3,35.1,34.2,35.8,35.8z"/>
	
		<linearGradient id="SVGID_6_" gradientUnits="userSpaceOnUse" x1="15.161" y1="-115.4286" x2="15.161" y2="-119.0081" gradientTransform="matrix(1 0 0 1 0.3572 151.2885)">
		<stop  offset="0" style="stop-color:#6F4118"/>
		<stop  offset="0.5" style="stop-color:#CC9639"/>
		<stop  offset="1" style="stop-color:#6F4118"/>
	</linearGradient>
	<path class="st5" d="M19,33.7h1.6c0.2-0.6,0.7-1.1,1.2-1.4H9.2v3.6h5.6C15.7,34.5,17.3,33.7,19,33.7z"/>
	
		<linearGradient id="SVGID_7_" gradientUnits="userSpaceOnUse" x1="18.7299" y1="-120.1441" x2="18.7299" y2="-128.1392" gradientTransform="matrix(1 0 0 1 0.3572 151.2885)">
		<stop  offset="0" style="stop-color:#6F4118"/>
		<stop  offset="0.5" style="stop-color:#CC9639"/>
		<stop  offset="1" style="stop-color:#6F4118"/>
	</linearGradient>
	<path class="st6" d="M22.6,29.6c-0.1,0-0.2,0-0.2,0c-1.4,0-2.4-1.1-2.4-2.4c0-1.4,1.1-2.4,2.4-2.4c0.9,0,1.7,0.5,2.2,1.3
		c0.5-0.5,1.2-0.8,1.9-1.1v-1.8H11.8v8h10.8c0-0.3-0.1-0.5-0.1-0.8C22.5,30.1,22.5,29.8,22.6,29.6z M15.8,29.6
		c-1.4,0-2.4-1.1-2.4-2.4c0-1.4,1.1-2.4,2.4-2.4c1.4,0,2.4,1.1,2.4,2.4C18.2,28.5,17.1,29.6,15.8,29.6z"/>
	
		<linearGradient id="SVGID_8_" gradientUnits="userSpaceOnUse" x1="15.4289" y1="-123.3399" x2="15.4289" y2="-124.9261" gradientTransform="matrix(1 0 0 1 0.3572 151.2885)">
		<stop  offset="0" style="stop-color:#6F4118"/>
		<stop  offset="0.5" style="stop-color:#CC9639"/>
		<stop  offset="1" style="stop-color:#6F4118"/>
	</linearGradient>
	<path class="st7" d="M15.8,26.4c-0.4,0-0.8,0.3-0.8,0.8c0,0.4,0.3,0.8,0.8,0.8c0.4,0,0.8-0.3,0.8-0.8
		C16.6,26.7,16.2,26.4,15.8,26.4z"/>
	
		<linearGradient id="SVGID_9_" gradientUnits="userSpaceOnUse" x1="21.9665" y1="-123.3399" x2="21.9665" y2="-124.9261" gradientTransform="matrix(1 0 0 1 0.3572 151.2885)">
		<stop  offset="0" style="stop-color:#6F4118"/>
		<stop  offset="0.5" style="stop-color:#CC9639"/>
		<stop  offset="1" style="stop-color:#6F4118"/>
	</linearGradient>
	<path class="st8" d="M23.1,27.2c0-0.4-0.3-0.8-0.8-0.8c-0.4,0-0.8,0.3-0.8,0.8c0,0.4,0.3,0.8,0.8,0.8
		C22.8,27.9,23.1,27.6,23.1,27.2z"/>
	
		<linearGradient id="SVGID_10_" gradientUnits="userSpaceOnUse" x1="60.9986" y1="-120.1441" x2="60.9986" y2="-128.1392" gradientTransform="matrix(1 0 0 1 0.3572 151.2885)">
		<stop  offset="0" style="stop-color:#6F4118"/>
		<stop  offset="0.5" style="stop-color:#CC9639"/>
		<stop  offset="1" style="stop-color:#6F4118"/>
	</linearGradient>
	<path class="st9" d="M54.1,31.1h14.6v-8H54.1V31.1z M64.6,24.7c1.4,0,2.4,1.1,2.4,2.4c0,1.4-1.1,2.4-2.4,2.4
		c-1.4,0-2.4-1.1-2.4-2.4S63.3,24.7,64.6,24.7z M58.1,24.7c1.4,0,2.4,1.1,2.4,2.4c0,1.4-1.1,2.4-2.4,2.4s-2.4-1.1-2.4-2.4
		S56.7,24.7,58.1,24.7z"/>
	
		<linearGradient id="SVGID_11_" gradientUnits="userSpaceOnUse" x1="57.7406" y1="-123.3614" x2="57.7406" y2="-124.9475" gradientTransform="matrix(1 0 0 1 0.3572 151.2885)">
		<stop  offset="0" style="stop-color:#6F4118"/>
		<stop  offset="0.5" style="stop-color:#CC9639"/>
		<stop  offset="1" style="stop-color:#6F4118"/>
	</linearGradient>
	<path class="st10" d="M58.1,27.9c0.4,0,0.8-0.3,0.8-0.8c0-0.4-0.3-0.8-0.8-0.8c-0.4,0-0.8,0.3-0.8,0.8
		C57.3,27.6,57.7,27.9,58.1,27.9z"/>
	
		<linearGradient id="SVGID_12_" gradientUnits="userSpaceOnUse" x1="64.2781" y1="-123.3614" x2="64.2781" y2="-124.9475" gradientTransform="matrix(1 0 0 1 0.3572 151.2885)">
		<stop  offset="0" style="stop-color:#6F4118"/>
		<stop  offset="0.5" style="stop-color:#CC9639"/>
		<stop  offset="1" style="stop-color:#6F4118"/>
	</linearGradient>
	<path class="st11" d="M64.6,27.9c0.4,0,0.8-0.3,0.8-0.8c0-0.4-0.3-0.8-0.8-0.8c-0.4,0-0.8,0.3-0.8,0.8
		C63.8,27.6,64.2,27.9,64.6,27.9z"/>
	
		<linearGradient id="SVGID_13_" gradientUnits="userSpaceOnUse" x1="39.8642" y1="-123.4022" x2="39.8642" y2="-135.4698" gradientTransform="matrix(1 0 0 1 0.3572 151.2885)">
		<stop  offset="0" style="stop-color:#6F4118"/>
		<stop  offset="0.5" style="stop-color:#CC9639"/>
		<stop  offset="1" style="stop-color:#6F4118"/>
	</linearGradient>
	<path class="st12" d="M30.9,16.7h18.6V27H33c0.2,0.3,0.4,0.6,0.5,0.9h16.9V15.8H30v9c0.3,0.1,0.6,0.2,0.9,0.3L30.9,16.7z"/>
	
		<linearGradient id="SVGID_14_" gradientUnits="userSpaceOnUse" x1="39.8535" y1="-120.1441" x2="39.8535" y2="-122.9306" gradientTransform="matrix(1 0 0 1 0.3572 151.2885)">
		<stop  offset="0" style="stop-color:#6F4118"/>
		<stop  offset="0.5" style="stop-color:#CC9639"/>
		<stop  offset="1" style="stop-color:#6F4118"/>
	</linearGradient>
	<polygon class="st13" points="36.8,28.4 36.8,30.3 35.1,30.3 35.1,31.1 45.3,31.1 45.3,30.3 43.8,30.3 43.8,28.4 	"/>
	
		<linearGradient id="SVGID_15_" gradientUnits="userSpaceOnUse" x1="27.9252" y1="-118.6652" x2="27.9252" y2="-125.7171" gradientTransform="matrix(1 0 0 1 0.3572 151.2885)">
		<stop  offset="0" style="stop-color:#6F4118"/>
		<stop  offset="0.5" style="stop-color:#CC9639"/>
		<stop  offset="1" style="stop-color:#6F4118"/>
	</linearGradient>
	<path class="st14" d="M23.9,32.4h7.3c0,0,0.1,0,0.2,0c0.3,0,0.7,0,1.2,0.2c0.3-0.7,0.6-1.4,0.6-2.2c0-2.7-2.2-4.8-4.8-4.8
		s-4.8,2.2-4.8,4.8C23.5,31.1,23.6,31.8,23.9,32.4z"/>
	
		<linearGradient id="SVGID_16_" gradientUnits="userSpaceOnUse" x1="30.0707" y1="-88.121" x2="30.0707" y2="-118.3699" gradientTransform="matrix(1 0 0 1 0.3572 151.2885)">
		<stop  offset="0" style="stop-color:#6F4118"/>
		<stop  offset="0.5" style="stop-color:#CC9639"/>
		<stop  offset="1" style="stop-color:#6F4118"/>
	</linearGradient>
	<path class="st15" d="M38.7,42c-0.7,0-1.7-0.2-2.5-0.3c-0.2-1.3-0.4-2.5-0.6-3.5c-1.2-4.8-3.3-5.3-4.2-5.3h-8.2
		c-0.5,0-1.3,0.1-2.1,0.7c-0.2,0.1-0.3,0.2-0.4,0.4h6.3c2.7,0,4.9,2.2,4.9,4.9v10.4h2c1.5,0,2.6,1.2,2.6,2.6s-1.2,2.6-2.6,2.6h-0.1
		l-1,5.5c0,0.2,0,0.4,0,0.6c0.5,0.3,0.8,0.9,0.8,1.5c0,0.1,0,0.1,0,0.2c0.4,0.3,0.8,0.6,1.4,0.7c0.2,0,0.3,0,0.5,0
		c1.2,0,2.4-0.9,2.6-2.2l2-11.1c0.1-0.8-0.1-1.5-0.6-2.1c-0.5-0.6-1.2-0.9-2-0.9H33v-6.7c0.2,0.1,0.3,0.2,0.5,0.2v0.5v3.6l0.4,0.2
		c1.5,0.7,4.1,0.8,4.6,0.9c0,0,0.1,0,0.1,0c0.9,0,1.7-0.7,1.7-1.6C40.4,42.8,39.6,42,38.7,42z"/>
	
		<linearGradient id="SVGID_17_" gradientUnits="userSpaceOnUse" x1="24.8815" y1="-87.7995" x2="24.8815" y2="-116.6289" gradientTransform="matrix(1 0 0 1 0.3572 151.2885)">
		<stop  offset="0" style="stop-color:#6F4118"/>
		<stop  offset="0.5" style="stop-color:#CC9639"/>
		<stop  offset="1" style="stop-color:#6F4118"/>
	</linearGradient>
	<path class="st16" d="M19,34.7c-2.4,0-4.3,1.9-4.3,4.3v10.7c0,2.4,1.9,4.3,4.3,4.3h3.9v7c0,0,0,0,0,0.1h-4.8
		c-0.7,0-1.2,0.6-1.2,1.2l0,0c0,0.7,0.6,1.2,1.2,1.2h13.5c0.7,0,1.2-0.6,1.2-1.2l0,0c0-0.7-0.6-1.2-1.2-1.2h-4.8c0,0,0,0,0-0.1v-7h0
		h6.9c1.1,0,2-0.9,2-2l0,0c0-1.1-0.9-2-2-2h-2.7c0-0.1,0-0.2,0-0.3V38.9c0-2.4-1.9-4.3-4.3-4.3H19z"/>
	
		<linearGradient id="SVGID_18_" gradientUnits="userSpaceOnUse" x1="18.0232" y1="-131.9569" x2="18.0232" y2="-137.6775" gradientTransform="matrix(1 0 0 1 0.3572 151.2885)">
		<stop  offset="0" style="stop-color:#6F4118"/>
		<stop  offset="0.5" style="stop-color:#CC9639"/>
		<stop  offset="1" style="stop-color:#6F4118"/>
	</linearGradient>
	<path class="st17" d="M19.7,16.9c-0.4,0.2-0.6,0.6-0.4,0.9s0.6,0.4,1,0.2c0.3-0.2,0.5-0.4,0.5-0.7l0,0l0,0c0,0,0,0,0,0v-3.6l-3.6,1
		V18c-0.2-0.1-0.5,0-0.7,0.1c-0.4,0.2-0.6,0.6-0.4,0.9s0.6,0.4,1,0.2c0.3-0.2,0.5-0.5,0.5-0.8V16l2.9-0.8v1.5
		C20.2,16.7,19.9,16.7,19.7,16.9z M17.5,15.6v-0.8l2.9-0.8v0.8L17.5,15.6z"/>
	
		<linearGradient id="SVGID_19_" gradientUnits="userSpaceOnUse" x1="23.594" y1="-132.1104" x2="23.594" y2="-136.7987" gradientTransform="matrix(1 0 0 1 0.3572 151.2885)">
		<stop  offset="0" style="stop-color:#6F4118"/>
		<stop  offset="0.5" style="stop-color:#CC9639"/>
		<stop  offset="1" style="stop-color:#6F4118"/>
	</linearGradient>
	<path class="st18" d="M24.1,14.5L23.5,18c-0.2-0.1-0.5-0.1-0.7,0c-0.4,0.2-0.7,0.5-0.6,0.9c0.1,0.3,0.5,0.5,1,0.3
		c0.3-0.1,0.6-0.4,0.6-0.6l0.6-3.1l1.2,0.5l0.1-0.3l0,0l0.1-0.2L24.1,14.5z"/>
	
		<linearGradient id="SVGID_20_" gradientUnits="userSpaceOnUse" x1="12.696" y1="-130.0627" x2="12.696" y2="-135.0197" gradientTransform="matrix(1 0 0 1 0.3572 151.2885)">
		<stop  offset="0" style="stop-color:#6F4118"/>
		<stop  offset="0.5" style="stop-color:#CC9639"/>
		<stop  offset="1" style="stop-color:#6F4118"/>
	</linearGradient>
	<path class="st19" d="M13.9,16.5L13.9,16.5l0-0.2l-1.8,0.1l1.1,3.4c-0.2,0-0.5,0.1-0.6,0.3c-0.3,0.3-0.3,0.8-0.1,1
		c0.3,0.2,0.7,0.2,1-0.2c0.2-0.3,0.3-0.6,0.2-0.8l-1-3l1.3-0.2L13.9,16.5z"/>
	
		<linearGradient id="SVGID_21_" gradientUnits="userSpaceOnUse" x1="60.5692" y1="-132.4903" x2="60.5692" y2="-137.206" gradientTransform="matrix(1 0 0 1 0.3572 151.2885)">
		<stop  offset="0" style="stop-color:#6F4118"/>
		<stop  offset="0.5" style="stop-color:#CC9639"/>
		<stop  offset="1" style="stop-color:#6F4118"/>
	</linearGradient>
	<path class="st20" d="M62.1,17c-0.4,0.1-0.7,0.5-0.6,0.8c0.1,0.3,0.5,0.5,1,0.4c0.3-0.1,0.5-0.3,0.6-0.6l0,0l0,0c0,0,0,0,0,0
		l0.8-3.6l-3.7,0.2l-0.8,3.4c-0.2-0.1-0.5-0.2-0.7-0.1c-0.4,0.1-0.7,0.5-0.6,0.8c0.1,0.3,0.5,0.5,1,0.4c0.3-0.1,0.6-0.4,0.6-0.6
		l0.5-2.4l3-0.1l-0.3,1.5C62.6,17,62.3,17,62.1,17z M60.3,15.4l0.2-0.8l3-0.1l-0.2,0.8L60.3,15.4z"/>
	
		<linearGradient id="SVGID_22_" gradientUnits="userSpaceOnUse" x1="65.8745" y1="-131.2636" x2="65.8745" y2="-135.577" gradientTransform="matrix(1 0 0 1 0.3572 151.2885)">
		<stop  offset="0" style="stop-color:#6F4118"/>
		<stop  offset="0.5" style="stop-color:#CC9639"/>
		<stop  offset="1" style="stop-color:#6F4118"/>
	</linearGradient>
	<path class="st21" d="M66.9,15.7L65.5,19c-0.2-0.2-0.4-0.2-0.7-0.2c-0.5,0-0.8,0.4-0.8,0.7c0,0.3,0.4,0.6,0.9,0.5
		c0.3,0,0.6-0.2,0.7-0.5l1.3-2.9l1.1,0.7l0.2-0.3l0,0l0.2-0.2L66.9,15.7z"/>
	
		<linearGradient id="SVGID_23_" gradientUnits="userSpaceOnUse" x1="54.9333" y1="-131.5171" x2="54.9333" y2="-136.4129" gradientTransform="matrix(1 0 0 1 0.3572 151.2885)">
		<stop  offset="0" style="stop-color:#6F4118"/>
		<stop  offset="0.5" style="stop-color:#CC9639"/>
		<stop  offset="1" style="stop-color:#6F4118"/>
	</linearGradient>
	<path class="st22" d="M54.4,18.6c-0.4,0.3-0.5,0.7-0.3,1s0.7,0.3,1,0c0.3-0.2,0.5-0.5,0.4-0.8l-0.3-3.2l1.3,0.1l0-0.4l0,0l0-0.2
		l-1.8-0.3l0.3,3.5C54.9,18.4,54.6,18.4,54.4,18.6z"/>
	
		<linearGradient id="SVGID_24_" gradientUnits="userSpaceOnUse" x1="39.8321" y1="-125.8671" x2="39.8321" y2="-133.3906" gradientTransform="matrix(1 0 0 1 0.3572 151.2885)">
		<stop  offset="0" style="stop-color:#6F4118"/>
		<stop  offset="0.5" style="stop-color:#CC9639"/>
		<stop  offset="1" style="stop-color:#6F4118"/>
	</linearGradient>
	<polygon class="st23" points="32.7,24.5 33.5,25.3 34.3,24.8 34.4,22.6 34.5,24.8 35.1,25.4 35.6,24.5 36.4,25.3 37.2,24.8 
		37.3,22.6 37.4,24.8 38,25.4 38.5,24.5 39.3,25.3 40.1,24.8 40.2,22.6 40.3,24.8 40.9,25.4 41.4,24.5 42.2,25.3 43,24.8 43.1,22.6 
		43.2,24.8 43.8,25.4 44.3,24.5 45.1,25.3 45.9,24.8 46,22.6 46.1,24.8 46.7,25.4 47.2,24.5 48,25.3 48.7,24.9 48.5,24.5 48.1,24.8 
		47.1,23.7 46.6,24.7 46.5,24.6 46.1,17.9 45.7,17.9 45.5,24.6 45.2,24.8 44.2,23.7 43.7,24.7 43.6,24.6 43.2,17.9 42.8,17.9 
		42.6,24.6 42.3,24.8 41.3,23.7 40.8,24.7 40.7,24.6 40.3,17.9 39.9,17.9 39.7,24.6 39.4,24.8 38.4,23.7 37.9,24.7 37.8,24.6 
		37.4,17.9 37,17.9 36.8,24.6 36.4,24.8 35.5,23.7 35,24.7 34.9,24.6 34.5,17.9 34.1,17.9 33.9,24.6 33.6,24.8 32.6,23.7 32.1,24.7 
		32,24.6 31.7,24.9 32.2,25.4 	"/>
</g>
</svg>
