<?xml version="1.0" encoding="utf-8"?>
<!-- Generator: Adobe Illustrator 22.0.0, SVG Export Plug-In . SVG Version: 6.00 Build 0)  -->
<svg version="1.1" id="Layer_1" xmlns="http://www.w3.org/2000/svg" xmlns:xlink="http://www.w3.org/1999/xlink" x="0px" y="0px"
	 viewBox="0 0 32 32" style="enable-background:new 0 0 32 32;" xml:space="preserve">
<style type="text/css">
	.st0{fill:url(#SVGID_1_);}
</style>
<linearGradient id="SVGID_1_" gradientUnits="userSpaceOnUse" x1="16" y1="30" x2="16" y2="2">
	<stop  offset="0" style="stop-color:#6F4118"/>
	<stop  offset="0.5" style="stop-color:#CC9639"/>
	<stop  offset="1" style="stop-color:#6F4118"/>
</linearGradient>
<path class="st0" d="M7,2C5.3,2,4,3.3,4,5s1.3,3,3,3s3-1.3,3-3S8.7,2,7,2z M24,6c-0.2,0-0.4,0.1-0.5,0.3l-3,6
	c-0.1,0.2,0,0.5,0.2,0.7c0.1,0,0.1,0.1,0.2,0.1c0.2,0,0.4-0.1,0.4-0.3l1.1-2.1V14H22c-0.3,0-0.5,0.2-0.5,0.5S21.7,15,22,15h2
	c0.3,0,0.5-0.2,0.5-0.5S24.3,14,24,14h-0.5V8.6l0,0l1-1.9c0.1-0.2,0-0.5-0.2-0.7C24.2,6,24.1,6,24,6z M6.5,8.7c-1.7,0-3,1.3-3,3V19
	c0,1.7,1.3,3,3,3h5v6.5c0,0.8,0.7,1.5,1.5,1.5s1.5-0.7,1.5-1.5v-8c0-0.8-0.7-1.5-1.5-1.5H9.5v-5.2l1.7,1c0.2,0.1,0.5,0.2,0.8,0.2h4
	c0.2,0,0.4-0.1,0.6-0.1C16.7,15,16.8,15,17,15h2c0.3,0,0.5-0.2,0.5-0.5S19.3,14,19,14h-1.6c0.1-0.2,0.1-0.3,0.1-0.5
	c0-0.8-0.7-1.5-1.5-1.5h-3.6L8.9,9.9C8.4,9.2,7.5,8.7,6.5,8.7z M1.5,14c-0.6,0-1,0.4-1,1v9c0,0.4,0.3,0.8,0.6,0.9l0,0
	C1.2,25,1.4,25,1.5,25h3v1.2v1.5l-1.8,1.4c-0.2,0.2-0.3,0.5-0.1,0.7C2.7,29.9,2.8,30,3,30c0.1,0,0.2,0,0.3-0.1L4.5,29l0,0v0.5
	C4.5,29.8,4.7,30,5,30s0.5-0.2,0.5-0.5V29l1.2,0.9C6.8,30,6.9,30,7,30s0.3-0.1,0.4-0.2c0.2-0.2,0.1-0.5-0.1-0.7l-1.8-1.4V25h3
	c0.6,0,1-0.4,1-1s-0.4-1-1-1h-6v-8C2.5,14.4,2.1,14,1.5,14z M13.5,16c-0.6,0-1,0.4-1,1s0.4,1,1,1h2v11c0,0.6,0.4,1,1,1s1-0.4,1-1V18
	h9v11c0,0.6,0.4,1,1,1s1-0.4,1-1V18h2c0.6,0,1-0.4,1-1s-0.4-1-1-1H13.5z"/>
</svg>
