<?xml version="1.0" encoding="utf-8"?>
<!-- Generator: Adobe Illustrator 22.0.0, SVG Export Plug-In . SVG Version: 6.00 Build 0)  -->
<svg version="1.1" id="Layer_1" xmlns="http://www.w3.org/2000/svg" xmlns:xlink="http://www.w3.org/1999/xlink" x="0px" y="0px"
	 viewBox="0 0 360 360" style="enable-background:new 0 0 360 360;" xml:space="preserve">
<style type="text/css">
	.st0{fill:#4E85ED;}
</style>
<path class="st0" d="M277.1,162.5l-10.5-12.9l2.6-16.4c1.3-8.1-3.3-16-11-19l-15.5-5.9l-5.9-15.5c-2.9-7.7-10.9-12.3-19-11
	l-16.4,2.6l-12.9-10.5c-6.4-5.2-15.5-5.2-21.9,0l-12.9,10.5l-16.4-2.6c-8.1-1.3-16,3.3-19,11l-5.9,15.5L97,114.3
	c-7.7,2.9-12.3,10.9-11,19l2.6,16.4l-10.5,12.9c-5.2,6.4-5.2,15.5,0,21.9l10.5,12.9l-2.6,16.4c-1.3,8.1,3.3,16,11,19l15.5,5.9
	l5.9,15.5c2.9,7.7,10.9,12.3,19,11l16.4-2.6l12.9,10.5c6.4,5.2,15.5,5.2,21.9,0l12.9-10.5l16.4,2.6c8.1,1.3,16-3.3,19-11l5.9-15.5
	l15.5-5.9c7.7-2.9,12.3-10.9,11-19l-2.6-16.4l10.5-12.9C282.3,178.1,282.3,168.9,277.1,162.5z M161,211l-11.1-11.1l0,0L129,178.8
	l10.9-10.9l20.2,21.9l55.4-54.3l10.8,10.8L161,211z"/>
</svg>
