<?xml version="1.0" encoding="utf-8"?>
<!-- Generator: Adobe Illustrator 22.0.0, SVG Export Plug-In . SVG Version: 6.00 Build 0)  -->
<svg version="1.1" id="Layer_1" xmlns="http://www.w3.org/2000/svg" xmlns:xlink="http://www.w3.org/1999/xlink" x="0px" y="0px"
	 viewBox="0 0 16 16" style="enable-background:new 0 0 16 16;" xml:space="preserve">
<style type="text/css">
	.st0{fill:url(#SVGID_1_);}
	.st1{fill:url(#SVGID_2_);}
	.st2{fill:url(#SVGID_3_);}
</style>
<linearGradient id="SVGID_1_" gradientUnits="userSpaceOnUse" x1="1.4645" y1="3.4645" x2="14.5355" y2="16.5355" gradientTransform="matrix(1 0 0 -1 0 18)">
	<stop  offset="0" style="stop-color:#FFC107"/>
	<stop  offset="0.5074" style="stop-color:#F44336"/>
	<stop  offset="0.9901" style="stop-color:#9C27B0"/>
</linearGradient>
<path class="st0" d="M11,0H5C2.2,0,0,2.2,0,5v6c0,2.8,2.2,5,5,5h6c2.8,0,5-2.2,5-5V5C16,2.2,13.8,0,11,0z M14.5,11
	c0,1.9-1.6,3.5-3.5,3.5H5c-1.9,0-3.5-1.6-3.5-3.5V5c0-1.9,1.6-3.5,3.5-3.5h6c1.9,0,3.5,1.6,3.5,3.5V11z"/>
<linearGradient id="SVGID_2_" gradientUnits="userSpaceOnUse" x1="5.1716" y1="7.1716" x2="10.8284" y2="12.8284" gradientTransform="matrix(1 0 0 -1 0 18)">
	<stop  offset="0" style="stop-color:#FFC107"/>
	<stop  offset="0.5074" style="stop-color:#F44336"/>
	<stop  offset="0.9901" style="stop-color:#9C27B0"/>
</linearGradient>
<path class="st1" d="M8,4C5.8,4,4,5.8,4,8s1.8,4,4,4s4-1.8,4-4S10.2,4,8,4z M8,10.5c-1.4,0-2.5-1.1-2.5-2.5c0-1.4,1.1-2.5,2.5-2.5
	s2.5,1.1,2.5,2.5C10.5,9.4,9.4,10.5,8,10.5z"/>
<linearGradient id="SVGID_3_" gradientUnits="userSpaceOnUse" x1="11.9231" y1="13.9231" x2="12.6769" y2="14.6769" gradientTransform="matrix(1 0 0 -1 0 18)">
	<stop  offset="0" style="stop-color:#FFC107"/>
	<stop  offset="0.5074" style="stop-color:#F44336"/>
	<stop  offset="0.9901" style="stop-color:#9C27B0"/>
</linearGradient>
<circle class="st2" cx="12.3" cy="3.7" r="0.5"/>
</svg>
