<?xml version="1.0" encoding="utf-8"?>
<!-- Generator: Adobe Illustrator 22.0.0, SVG Export Plug-In . SVG Version: 6.00 Build 0)  -->
<svg version="1.1" id="Layer_1" xmlns="http://www.w3.org/2000/svg" xmlns:xlink="http://www.w3.org/1999/xlink" x="0px" y="0px"
	 viewBox="0 0 75 75" style="enable-background:new 0 0 75 75;" xml:space="preserve">
<style type="text/css">
	.st0{fill:#FFFFFF;}
</style>
<g>
	<g>
		<path class="st0" d="M45.4,3.2c1.2,0.3,2.5,0.7,3.7,1.1c0.3,0.1,0.5,0.4,0.4,0.6l-1.6,4.4c0.2,0.1,0.5,0.2,0.7,0.3l1.9-4.8
			c0.2-0.5-0.1-1-0.5-1.1c-1.3-0.5-2.7-0.9-4-1.2c-0.3-0.1-0.7-0.2-1-0.2c-0.2,0-0.3-0.1-0.5-0.1l-0.5-0.1c-0.4-0.1-0.7-0.1-1.1-0.2
			l-0.5-0.1l-0.3,0l-0.3,0l-0.1,0.9C42.9,2.6,44.2,2.9,45.4,3.2z M41.6,2.5L41.6,2.5L41.6,2.5L41.6,2.5z M32.2,2.6
			c0.3,0,0.6,0.1,0.6,0.4l0.6,4.7c0.3,0,0.5-0.1,0.8-0.1l-0.5-5.2c0-0.2-0.2-0.5-0.3-0.6s-0.4-0.2-0.7-0.2c-2.8,0.4-5.5,1.1-8.2,2
			l0.3,0.8C27.1,3.6,29.6,3,32.2,2.6z M13.5,11.5c1-0.9,2-1.7,3-2.4c0.2-0.2,0.6-0.2,0.7,0.1l2.7,3.8c0.2-0.2,0.4-0.3,0.6-0.5
			l-2.9-4.3C17.5,8,17.3,7.9,17,7.8c-0.2,0-0.5,0-0.7,0.2c-1.1,0.8-2.3,1.7-3.3,2.6c-1.1,0.9-2,1.9-3,3l0.7,0.6
			C11.6,13.3,12.5,12.4,13.5,11.5z M10.8,14.2L10.8,14.2L10.8,14.2L10.8,14.2z M34.3,8.3c-2,0.2-3.9,0.6-5.7,1.2l-1.5-5l-0.8,0.3
			l2,5.8c2-0.7,4.1-1.1,6.3-1.4c2.1-0.2,4.3-0.2,6.4,0.1L41.4,5c-0.9-0.1-1.8-0.2-2.7-0.2c-0.9,0-1.8,0-2.7,0l-0.1-2
			c0-0.3,0.2-0.5,0.5-0.5c1.8,0,3.5,0.1,5.3,0.3l0.1-0.9c-1-0.1-2-0.2-3-0.2c-1,0-2,0-3,0c-0.3,0-0.5,0.1-0.7,0.3
			C35,1.8,34.9,2,34.9,2.3l0.2,3.3c0.9-0.1,1.8-0.1,2.6-0.1c0.9,0,1.8,0.1,2.6,0.2l-0.2,2.5C38.2,8.1,36.3,8.1,34.3,8.3z M20.5,10.4
			c0.8-0.5,1.5-0.9,2.3-1.3c0.8-0.4,1.6-0.8,2.4-1.1l1,2.3c-3.6,1.5-7,3.7-9.8,6.5l-3.7-3.7l-0.6,0.6l4.4,4.2
			c3-3.1,6.6-5.6,10.6-7.1l-1.5-4c-1.7,0.6-3.3,1.4-4.9,2.3l-1-1.7c-0.2-0.2-0.1-0.6,0.2-0.7c0.8-0.4,1.6-0.8,2.4-1.2
			c0.4-0.2,0.8-0.4,1.2-0.5c0.4-0.2,0.8-0.3,1.2-0.5l-0.4-0.9c-0.9,0.4-1.9,0.8-2.8,1.2c-0.9,0.4-1.8,0.9-2.6,1.4
			c-0.2,0.1-0.4,0.3-0.4,0.6c-0.1,0.2,0,0.5,0.1,0.7L20.5,10.4z M24.8,4.6L24.8,4.6L24.8,4.6L24.8,4.6z M72.9,37.8
			C72.9,37.8,72.9,37.8,72.9,37.8L72.9,37.8L72.9,37.8z M70.4,24.7c0.5,1.2,0.9,2.4,1.2,3.6c0.1,0.3-0.1,0.6-0.3,0.7l-4.5,1.2
			l0.2,0.8l5.1-1.2c0.5-0.1,0.8-0.6,0.6-1.1c-0.4-1.4-0.8-2.7-1.3-4l-0.1-0.2l-0.1-0.2L71,23.7c-0.2-0.3-0.3-0.7-0.4-1
			c-0.3-0.6-0.6-1.3-0.9-1.9l-0.8,0.4C69.4,22.4,70,23.6,70.4,24.7z M68.8,21.3L68.8,21.3L68.8,21.3L68.8,21.3z M52.7,9.5
			c0.8,0.4,1.5,0.9,2.3,1.4l-1.4,2.1c-3.3-2.2-7-3.6-10.9-4.3l0.9-5.1c-0.3-0.1-0.6-0.1-0.9-0.2l-0.9,6C44,9.7,46.1,10.2,48,11
			c2,0.8,3.9,1.8,5.7,3l2.4-3.5c-0.8-0.5-1.5-1-2.3-1.4c-0.8-0.5-1.6-0.9-2.4-1.3l0.8-1.8c0.1-0.1,0.2-0.2,0.3-0.3
			c0.1,0,0.1,0,0.2,0c0.1,0,0.2,0,0.2,0.1c0.8,0.4,1.6,0.8,2.3,1.3c0.8,0.5,1.5,0.9,2.2,1.4l0.5-0.8c-0.8-0.6-1.7-1.1-2.5-1.6
			c-0.9-0.5-1.7-1-2.6-1.4c-0.2-0.1-0.5-0.1-0.7,0c-0.2,0.1-0.4,0.2-0.5,0.5l-1.4,3.1C51.1,8.7,51.9,9,52.7,9.5z M6.8,19.7l2.9,1.7
			c0.5-0.8,0.9-1.5,1.4-2.2c0.5-0.7,1.1-1.4,1.6-2.1l1.9,1.6c-2.5,3-4.4,6.5-5.6,10.3l-5-1.6l-0.3,0.9l5.9,1.7
			c0.6-2.1,1.4-4.1,2.4-6c1-1.9,2.3-3.7,3.7-5.3l-3.2-2.8c-0.6,0.7-1.2,1.4-1.7,2.1s-1.1,1.5-1.5,2.3l-1.7-1.1
			c-0.1-0.1-0.2-0.2-0.2-0.3c0-0.1,0-0.1,0-0.2c0-0.1,0-0.1,0.1-0.2c0.5-0.8,1-1.5,1.5-2.2c0.2-0.2,0.3-0.4,0.4-0.5l0.4-0.5
			c0.3-0.3,0.6-0.7,0.9-1l-0.7-0.6c-0.7,0.8-1.3,1.5-1.9,2.3S7,17.6,6.5,18.4c-0.2,0.2-0.2,0.5-0.1,0.7C6.4,19.3,6.6,19.5,6.8,19.7z
			 M72.3,31.1L69,31.7c0.3,1.7,0.5,3.5,0.6,5.3L67,37c-0.1-2-0.3-3.9-0.7-5.8c-0.4-1.9-1.1-3.8-1.9-5.6l4.7-2.1
			c-0.1-0.3-0.2-0.5-0.4-0.8l-5.5,2.6c0.9,1.9,1.7,4,2.1,6.1c0.5,2.1,0.7,4.2,0.7,6.4h4.2c0-1.8-0.2-3.6-0.5-5.4l1.9-0.3
			c0.3-0.1,0.5,0.2,0.6,0.5c0.1,0.9,0.2,1.8,0.3,2.6c0.1,0.9,0.1,1.8,0.1,2.6l0.9,0c0-2-0.2-4-0.5-6C73.2,31.3,72.7,30.9,72.3,31.1z
			 M64.1,19.8c0.5,0.7,1,1.5,1.4,2.3l-2.2,1.2c-1.9-3.4-4.5-6.5-7.6-8.9l3.2-4.1c-0.2-0.2-0.5-0.4-0.7-0.5l-3.6,4.9
			c3.5,2.6,6.3,5.9,8.3,9.7l3.8-2c-0.8-1.6-1.8-3.2-2.9-4.6l1.6-1.2c0.2-0.2,0.6-0.1,0.7,0.1c0.5,0.7,1,1.4,1.5,2.2
			c0.2,0.4,0.5,0.8,0.7,1.1c0.2,0.4,0.4,0.8,0.6,1.2l0.8-0.5c-0.9-1.8-2-3.5-3.2-5.1c-0.2-0.2-0.4-0.3-0.6-0.4c-0.2,0-0.5,0-0.7,0.2
			l-2.6,2.1C63.1,18.4,63.6,19.1,64.1,19.8z M57.5,8.6L57.5,8.6L57.5,8.6L57.5,8.6z M60.6,10.9c1,0.8,1.9,1.7,2.8,2.7
			c0.2,0.2,0.2,0.5,0,0.7l-3.5,3.2c0.2,0.2,0.4,0.4,0.5,0.6l3.9-3.4c0.2-0.2,0.3-0.4,0.3-0.6c0-0.2-0.1-0.5-0.2-0.7
			c-1.9-2.1-4-4-6.3-5.6l-0.5,0.8C58.6,9.3,59.6,10,60.6,10.9z M47.8,55.3c2.6,0.3,4.4-0.4,5-2.3c0.2-0.5,0.2-1,0.1-1.5
			c-0.2-1.5-2.7-4.3-3.4-5.6c-0.7-1.3-1.2-3.2-1.1-6c0,0,0.1,2.3,2,4.3c0,0,0.4-4.2-0.4-6.1c-0.8-1.9-1.8-3.4-5.8-5.1
			c-0.2-0.1-0.4-0.2-0.5-0.2c-0.1-0.1-0.5-0.5-0.9-0.7c-0.5-0.3-0.4-0.4-0.6-0.7c-0.3-0.4-1.1-1.7-1.1-1.7s0.3-0.4,0.4-0.4
			c0.1-0.1,0.5-0.5,3.5-1.3c1-0.3,1.9-0.6,2.6-1c1.4-0.7,2.3-1.5,2.8-2.1c0.8-0.8,0.9-1.9,0.9-1.9s0.4-0.1,0.6-0.3s0.6-0.5,0.8-0.7
			c0.2-0.2,0.3-0.7,0.2-1.2c-0.2-0.5-0.8-0.5-0.8-0.5s0.5-0.9,0.5-3c0-2.2-1.7-2.8-3-2.9c-1.3-0.2-1.7,0.3-1.7,0.3s-0.5,0-0.8,0
			s-0.6,0.2-0.6,0.2s-0.1,0-0.3-0.1c-0.2-0.1-1-0.2-1.6,0c-0.6,0.2-0.8,0.9-0.8,0.9c0.1-0.4,0.4-0.2,0.6-0.2c0.2,0,0.3,0.2,0.7,0.6
			c0.3,0.5,1.2,0.3,1.5,0.4c0.3,0,0.2-0.4,0.7,0.5s-0.5,1.2-0.6,1.3c-0.1,0-1.8-0.3-3.2-0.2c-0.8,0.1-1.6,0.5-2.3,0.6
			c-0.7,0.2-1.3,0.1-1.8,0.2c-2.2,0.2-5.8,0.7-8,1.3c-3.2,1-4.8,2.3-4.8,2.3s-0.3,0.2-0.1,0.2s0.7-0.1,1.3-0.2
			c0.6-0.1,0.8,0,1.1-0.1c0.3,0,0.8,0,1.4,0s2-0.4,2.9-0.5c0.9-0.1,1-0.1,0.9,0s-0.3,0.2-0.7,0.4c-0.5,0.2-0.5,0.4-1.2,0.7
			c-0.7,0.3-1.7,1-2.7,1.5c-1,0.5-2.6,0.8-3.6,0.9c-1.1,0.1-1.1,0-3,0.7c-1.9,0.7-0.5,1.6-0.4,1.7c0.1,0.2,0.7,0.1,1.4,0.2
			c0.7,0.1,0.8,0,1.2-0.2c0.5-0.2,0.5-0.2,0.7-0.3c0.2-0.1,0.3,0.1,0.2,0.2c0,0.1-0.4,0.4-0.8,0.6s-0.7,0.3-1.4,0.9
			c-0.7,0.6-0.4,0.8,0.1,0.8c0.5,0,1.3-0.2,1.6-0.4c0.4-0.2,0.4-0.1,0.8-0.2c0.3-0.1,0.5-0.1,0.8-0.2c0.2-0.1,0.8-0.1,0.8-0.2
			c0.1,0,0.6-0.1,1.6-0.2c1-0.1,1.2-0.3,2.2-0.4c1.1-0.1,1.4-0.3,1.4-0.3s0,0.1,0,0.2c0,0.1,0.2,0.2,0.5,0.2
			c0.2,0.1,0.8,0.2,0.9,0.3c0.1,0.1,0.5,0,0.7,0c0.2-0.1,0.3,0.1,0.3,0.2s0.2,0,0.4-0.1c0.2-0.1,0.6,0.1,1-0.1s0.6-0.2,0.7-0.1
			c0.2,0.1-0.1,0.4-0.4,0.5c-0.2,0.2-0.3,0.2-0.3,0.4c0,0.2,0.4,0.8,0.4,1s0.2,0.3,0.1,0.5c-0.7,0-3.2,0.2-6.7,1.7
			c-4,1.7-5.1,3.2-5.9,5.1c-0.8,1.9-0.4,6.5-0.4,6.5c1.8-2,2-4.7,2-4.7c0.1,3.2-0.6,5.2-1.4,6.5c-0.6,1-2.6,3.2-2.9,4.4
			c-0.2,0.9-0.3,1.9,0.2,2.7c0.8,1.4,2,1.8,4,1.8c2.9,0,3.9-1.7,3.9-1.7c-1.2,2.8-1.3,6.3,0,7.1c1.3,0.7,3.4,0.5,4.4-0.5
			s0.4-3.4,0.4-3.4c0.5,0.7,0.7,1.8,0.7,2.5c0,0.5-0.2,0.8,0.6,1.2c0.9,0.5,1.9,0.5,2.6,0.1c0.9-0.5,0.7-1.1,0.7-1.4
			c0-0.7,0.2-1.8,0.7-2.5c0,0-0.2,0.9-0.2,1.8c0,1.2,0.5,2.3,2.7,2.5c1,0.1,1.8,0,2.3-0.4c0.5-0.4,0.8-1.1,0.9-2.2
			c0.1-1.4-0.2-3.3-0.9-4.9C44.8,53.6,45.6,55,47.8,55.3z M37.7,30.8c0-0.3,0.2-0.7,0.2-0.8c0-0.1,0.7-0.8,1.3-1.1
			c0.6-0.3,0.9-0.2,0.9-0.2s-0.2,0.5-0.2,0.6c-0.1,0.1,0.2,0.3,0.3,0.4c0.1,0.1,0.8,1.1,1.2,1.6c0.2,0.2,0.2,0.5,0.1,0.7
			c-1.8-0.5-3.2-0.7-3.8-0.7C37.7,31.1,37.7,31,37.7,30.8z M35.6,34c0.1-0.1,0.8,0.3,1.7,1c0.8-0.6,1.6-1.1,1.7-1
			c0.1,0.1-0.4,0.7-1.2,1.4c0.8,0.7,1.4,1.3,1.2,1.4s-0.8-0.3-1.7-1c-0.8,0.6-1.6,1.1-1.7,1s0.4-0.7,1.2-1.4
			C36.1,34.7,35.5,34.1,35.6,34z M30.5,49.4c-1.1-0.7-1.8-1.9-1.8-3.3c0,0,0.4,1.2,1.7,1.6c0,0-0.6-0.8-0.2-4
			c0.2-1.4,0.2-2.7,0.4-3.8c0.2-1.4,0.8-2.3,2.2-2.4c0,0,1.1,0,2,1.1c0.6,0.8,1.1,2.1,1.1,4.4c-0.1,3.7-0.1,5.3-0.9,6.2
			C34,50.1,32.1,50.4,30.5,49.4z M38.7,53.9c-1.1-0.5-1.3-0.7-1.3-0.7s-0.7,0.5-1.3,0.8c-1.1,0.5-1.1-0.1-0.7-1.1
			c0.2-0.6,0.6-1.1,1-1.7c0.8-1,1.1-1,1.1-1s0.3,0,1,0.9c0.4,0.5,0.8,1.1,1,1.7C39.7,53.8,39.7,54.3,38.7,53.9z M44.2,49.4
			c-1.7,1.1-3.5,0.7-4.4-0.2c-0.8-0.9-0.8-2.5-0.9-6.2c0-2.3,0.5-3.6,1.1-4.4c0.9-1.1,2-1.1,2-1.1c1.4,0,2,1,2.2,2.4
			c0.2,1.1,0.2,2.4,0.4,3.8c0.4,3.2-0.2,4-0.2,4c1.3-0.4,1.7-1.6,1.7-1.6C46,47.4,45.3,48.7,44.2,49.4z M47.2,68.4
			c-0.8,0.3-1.7,0.5-2.6,0.7c-0.9,0.2-1.7,0.4-2.6,0.5l-0.4-2.5c3.9-0.6,7.6-1.9,11-3.9l2.7,4.4c0.2-0.2,0.5-0.3,0.8-0.5l-3.3-5.1
			c-0.9,0.6-1.8,1.1-2.8,1.6c-1,0.5-2,0.9-3,1.3c-2,0.7-4.1,1.2-6.3,1.5l0.5,4.2c0.9-0.1,1.8-0.2,2.7-0.4c0.9-0.2,1.8-0.4,2.6-0.7
			l0.5,1.9c0.1,0.3-0.1,0.6-0.4,0.6c-1.7,0.5-3.5,0.8-5.2,1l0.1,0.9c1-0.1,2-0.3,2.9-0.5c1-0.2,2-0.5,2.9-0.7
			c0.2-0.1,0.5-0.2,0.6-0.5c0.1-0.2,0.2-0.5,0.1-0.7L47.2,68.4z M54.3,69c-1.1,0.6-2.3,1.2-3.5,1.7c-0.3,0.1-0.6,0-0.7-0.2L48.4,66
			c-0.2,0.1-0.5,0.2-0.7,0.3l1.8,4.9c0.1,0.2,0.2,0.4,0.5,0.5c0.2,0.1,0.5,0.1,0.7,0c1.3-0.5,2.6-1.1,3.8-1.8
			c0.3-0.2,0.6-0.3,0.9-0.5c0.2-0.1,0.3-0.2,0.5-0.3l0.5-0.3c0.6-0.4,1.2-0.8,1.8-1.1L57.6,67C56.5,67.7,55.4,68.4,54.3,69z
			 M41.6,73L41.6,73L41.6,73L41.6,73z M4,25.6c0.5-1.2,0.9-2.4,1.5-3.5c0.1-0.3,0.4-0.4,0.7-0.3l4.2,2.1c0.1-0.2,0.2-0.5,0.4-0.7
			l-4.6-2.5c-0.4-0.2-1-0.1-1.2,0.4C3.6,23.6,2.7,26.3,2,29l0.9,0.2C3.2,28,3.6,26.8,4,25.6z M57.5,67L57.5,67L57.5,67L57.5,67z
			 M26.7,68.1l0.8-2.4c1.9,0.7,3.8,1.1,5.7,1.4c2,0.3,3.9,0.3,5.9,0.2l0.3,5.2c0.3,0,0.6,0,0.9-0.1l-0.5-6.1
			c-1.1,0.1-2.2,0.1-3.2,0.1c-1.1,0-2.2-0.1-3.2-0.3c-1.1-0.2-2.1-0.4-3.2-0.6c-1.1-0.3-2.1-0.6-3.1-1l-1.5,4
			c0.8,0.3,1.7,0.6,2.6,0.9c0.9,0.2,1.7,0.5,2.6,0.6l-0.4,1.9c0,0.2-0.1,0.2-0.2,0.3c-0.1,0.1-0.2,0.1-0.4,0.1
			c-0.2-0.1-0.4-0.1-0.7-0.2l-0.6-0.2c-0.2-0.1-0.4-0.1-0.6-0.2c-0.1,0-0.2-0.1-0.3-0.1l-0.3-0.1c-0.2-0.1-0.4-0.1-0.6-0.2l-0.6-0.2
			c-0.4-0.2-0.8-0.3-1.3-0.5l-0.3,0.9c0.9,0.4,1.9,0.7,2.8,0.9c1,0.3,1.9,0.5,2.9,0.7c0.2,0.1,0.5,0,0.7-0.2
			c0.2-0.1,0.3-0.3,0.4-0.6l0.6-3.3c-0.9-0.2-1.7-0.3-2.6-0.6C28.4,68.7,27.6,68.4,26.7,68.1z M71.4,48l-3.2-1
			c-0.2,0.8-0.5,1.7-0.9,2.5c-0.3,0.8-0.7,1.6-1.1,2.4L64,50.9c0.9-1.7,1.6-3.6,2.1-5.5s0.8-3.8,0.9-5.8l5.2,0.3c0-0.3,0-0.6,0-0.9
			l-6.1-0.2c-0.2,4.3-1.3,8.6-3.3,12.4l3.8,2c0.4-0.8,0.8-1.6,1.2-2.5c0.4-0.8,0.7-1.7,1-2.6l1.9,0.6c0.3,0.1,0.4,0.4,0.3,0.7
			c-0.3,0.8-0.6,1.7-1,2.5c-0.4,0.8-0.8,1.6-1.2,2.4l0.8,0.4c0.5-0.9,0.9-1.8,1.3-2.7c0.4-0.9,0.8-1.9,1.1-2.8
			c0.1-0.2,0.1-0.5-0.1-0.7C71.8,48.2,71.6,48.1,71.4,48z M60.3,60.3c-0.6,0.6-1.3,1.2-1.9,1.8c-0.7,0.6-1.4,1.1-2.1,1.7l-1.5-2
			c3.2-2.3,5.9-5.3,7.9-8.6l4.4,2.7c0.2-0.3,0.3-0.5,0.5-0.8l-5.3-3c-0.5,0.9-1.1,1.8-1.7,2.7c-0.6,0.9-1.3,1.7-2,2.5
			c-0.7,0.8-1.5,1.5-2.3,2.3c-0.8,0.7-1.7,1.4-2.6,2l2.4,3.5c0.8-0.5,1.5-1.1,2.2-1.6c0.7-0.6,1.4-1.2,2-1.8l1.4,1.4
			c0.2,0.2,0.2,0.5,0,0.8c-0.7,0.6-1.3,1.2-2,1.7c-0.3,0.3-0.7,0.5-1.1,0.8c-0.4,0.3-0.7,0.5-1.1,0.8l0.5,0.8
			c0.8-0.6,1.6-1.2,2.4-1.8c0.8-0.6,1.5-1.3,2.2-2c0.2-0.2,0.3-0.4,0.3-0.7c0-0.2-0.1-0.5-0.2-0.6L60.3,60.3z M72.9,37.8
			c0,2.6-0.3,5.1-0.8,7.6c0,0.2-0.1,0.3-0.2,0.3c-0.1,0.1-0.2,0.1-0.4,0.1l-4.6-1.1l-0.1,0.4c0,0.1-0.1,0.2-0.1,0.4l5.1,1.3
			c0.2,0.1,0.5,0,0.7-0.1c0.2-0.1,0.4-0.3,0.4-0.6c0.6-2.7,1-5.6,1-8.4L72.9,37.8L72.9,37.8z M68.8,54.3L68.8,54.3L68.8,54.3
			L68.8,54.3z M66.9,57.6c-0.7,1.1-1.5,2.1-2.3,3.1c-0.2,0.2-0.5,0.3-0.7,0.1l-3.5-3.1c-0.2,0.2-0.3,0.4-0.5,0.6l3.8,3.5
			c0.4,0.3,0.9,0.3,1.3-0.1c1.8-2.1,3.5-4.4,4.7-6.9l-0.8-0.4C68.2,55.4,67.6,56.5,66.9,57.6z M34,73.1c-0.3,0-0.5-0.3-0.5-0.5
			l0.5-4.7c-0.3,0-0.5-0.1-0.8-0.1L32.6,73c0,0.2,0,0.5,0.2,0.7c0.2,0.2,0.4,0.3,0.6,0.3c2.8,0.3,5.6,0.3,8.4,0l-0.1-0.9
			C39.1,73.3,36.5,73.4,34,73.1z M2.9,46.3L2.9,46.3L2.9,46.3L2.9,46.3z M1.9,38.7c0-0.3,0.2-0.5,0.5-0.5L7,38.1c0-0.1,0-0.3,0-0.4
			v-0.4l-5.2-0.1c-0.2,0-0.5,0.1-0.6,0.3c-0.1,0.1-0.2,0.2-0.2,0.3S1,38,1,38.1c0,1.4,0.1,2.8,0.3,4.2c0.2,1.4,0.4,2.8,0.8,4.1
			l0.9-0.2C2.3,43.8,1.9,41.2,1.9,38.7z M1.9,36l3.4,0.2c0.1-1.8,0.3-3.5,0.7-5.3l2.4,0.5c-0.4,1.9-0.6,3.9-0.7,5.8
			c0,2,0.1,3.9,0.5,5.9L3,44c0.1,0.3,0.1,0.6,0.2,0.9l6-1.2c-0.5-2.1-0.6-4.3-0.6-6.4c0-1.1,0.1-2.2,0.2-3.2s0.3-2.1,0.6-3.2
			l-4.1-1.1c-0.5,1.8-0.7,3.6-0.9,5.4l-2-0.2c-0.3,0-0.5-0.3-0.5-0.6l0-0.3c0-0.1,0-0.2,0-0.3c0-0.2,0.1-0.5,0.1-0.7
			c0.1-0.5,0.1-0.9,0.2-1.3c0-0.2,0.1-0.5,0.1-0.7c0-0.2,0.1-0.4,0.1-0.7c0.1-0.4,0.2-0.9,0.3-1.3L1.9,29C1.4,31,1.1,32.9,1,34.9
			C1,35.5,1.4,36,1.9,36z M7.1,48.8c-0.3-0.8-0.6-1.7-0.8-2.5l2.4-0.7c1.1,3.8,2.9,7.3,5.3,10.4l-4.1,3.2c0.2,0.2,0.4,0.5,0.6,0.7
			l4.7-3.9c-2.7-3.3-4.7-7.2-5.7-11.4l-4.1,1c0.2,0.9,0.5,1.7,0.8,2.6c0.3,0.9,0.6,1.7,1,2.6l-1.8,0.8c-0.3,0.1-0.6,0-0.7-0.3
			c-0.3-0.8-0.6-1.7-0.9-2.5c-0.1-0.2-0.2-0.4-0.2-0.6l-0.2-0.6C3.1,47.4,3.1,47.2,3,47c0-0.1-0.1-0.2-0.1-0.3l-0.1-0.3l-0.9,0.2
			c0.2,1,0.5,1.9,0.8,2.9c0.3,0.9,0.7,1.9,1.1,2.8c0.1,0.2,0.3,0.4,0.5,0.5c0.2,0.1,0.5,0.1,0.7,0l3-1.4C7.8,50.4,7.4,49.6,7.1,48.8
			z M2.9,29.3L2.9,29.3L2.9,29.3L2.9,29.3z M8.4,58.3c-0.8-1.1-1.4-2.1-2-3.2c-0.1-0.1-0.1-0.3-0.1-0.4c0-0.1,0.1-0.2,0.2-0.3
			l4.1-2.2l-0.2-0.4c-0.1-0.1-0.1-0.2-0.2-0.4l-4.7,2.3c-0.2,0.1-0.4,0.3-0.4,0.5c-0.1,0.2-0.1,0.5,0.1,0.7c0.7,1.2,1.4,2.4,2.2,3.6
			c0.2,0.3,0.4,0.6,0.6,0.8c0.1,0.2,0.2,0.3,0.3,0.4c0.1,0.2,0.2,0.3,0.3,0.4c0.5,0.5,0.9,1.1,1.4,1.6l0.7-0.6
			C9.9,60.4,9.1,59.4,8.4,58.3z M15.7,61.6c-0.7-0.6-1.3-1.2-1.9-1.9l1.8-1.7c2.7,2.9,5.9,5.2,9.5,6.8L23,69.6
			c0.3,0.1,0.5,0.2,0.8,0.4l2.3-5.6c-1-0.4-2-0.9-2.9-1.4c-0.9-0.5-1.9-1.1-2.7-1.7c-0.9-0.6-1.7-1.3-2.5-2
			c-0.8-0.7-1.6-1.5-2.3-2.3l-3.2,2.8c0.6,0.7,1.2,1.3,1.9,2c0.7,0.6,1.4,1.2,2,1.8L15.3,65c-0.2,0.2-0.5,0.3-0.8,0.1
			c-0.7-0.6-1.3-1.2-2-1.8c-0.2-0.2-0.3-0.3-0.5-0.5l-0.5-0.5c-0.3-0.3-0.6-0.7-0.9-1L10,62c0.7,0.8,1.4,1.5,2.1,2.2
			c0.7,0.7,1.5,1.4,2.3,2c0.2,0.2,0.5,0.2,0.7,0.2s0.5-0.2,0.6-0.3l2-2.7C17.1,62.7,16.4,62.2,15.7,61.6z M21.3,69.4
			c-1.1-0.6-2.3-1.2-3.3-1.9c-0.2-0.2-0.3-0.5-0.2-0.7l2.6-3.9c-0.2-0.2-0.4-0.3-0.6-0.5l-3,4.2c-0.3,0.4-0.2,1,0.2,1.3
			c2.3,1.6,4.8,2.9,7.5,3.9l0.3-0.8C23.6,70.6,22.4,70,21.3,69.4z M24.8,71L24.8,71L24.8,71L24.8,71z M10.8,61.3L10.8,61.3
			L10.8,61.3L10.8,61.3z"/>
	</g>
</g>
</svg>
