<?xml version="1.0" encoding="utf-8"?>
<!-- Generator: Adobe Illustrator 22.0.0, SVG Export Plug-In . SVG Version: 6.00 Build 0)  -->
<svg version="1.1" id="Layer_1" xmlns="http://www.w3.org/2000/svg" xmlns:xlink="http://www.w3.org/1999/xlink" x="0px" y="0px"
	 viewBox="0 0 300 300" style="enable-background:new 0 0 300 300;" xml:space="preserve">
<style type="text/css">
	.st0{fill:#FFFFFF;}
	.st1{fill:#FFFFFF;stroke:#FFFFFF;stroke-width:4;stroke-miterlimit:10;}
</style>
<g>
	<g>
		<path class="st0" d="M254.8,124.7h-6.5v6.5h6.5V124.7z M244.1,158.6h23l-3.6-4.8h-19.4V158.6z M290,144.8l-1.5-1.7l-1.5,1.7h1.2
			v2.6h-2.7v-1.2l-1.7,1.5l1.7,1.5V148h2.7v2.7H287l1.5,1.7l1.5-1.7h-1.2V148h2.6v1.2l1.7-1.5l-1.7-1.5v1.2h-2.6v-2.6L290,144.8
			L290,144.8z M276.7,137.3v11.1l3.6-3.7l5.7,0.4L276.7,137.3z M297.5,124.7H291v6.5h6.5V124.7z M288.5,127.4h-31.2v1.2h31.2V127.4z
			 M232.6,137.4l11.8-8.8H236c-0.2,0.9-1,1.6-2,1.6c-1.1,0-2.1-0.9-2.1-2.1c0-1.1,0.9-2.1,2.1-2.1c1,0,1.8,0.7,2,1.6h8.4l-11.8-8.8
			l-10.2,5.1h-4.3v8.3h4.3L232.6,137.4z M288.3,167.5l9.1-6.9v-7.2l-12.6,9.5l-6.8-9h-7.2l19.7,26.1h7.3L288.3,167.5z M271.2,173.1
			v7.3l10.9-8.3l-3.5-4.6L271.2,173.1z M231.9,153.8v16.1l-12.8-9.1h-11.3l25.8,19.1h5.6l-0.1-26.1H231.9z M244.1,163.4v4.8V180h4.8
			v-11.7l18.3,0.1l-3.7-4.9L244.1,163.4z"/>
	</g>
</g>
<path class="st1" d="M6.3,178.8h50.4v-33.6h-43v-18.4h30l-7.5,6.4h9.6l10.9-12.8l-50.6-0.2v31.4H49v20.7H19.4l8.6-8.7l-9.7-0.1
	L6.3,178.8z"/>
<path class="st1" d="M65.9,120.3v58.5h7.6v-58.5H65.9z"/>
<path class="st1" d="M190.6,154.9l31.7,23.9h-11.9L181,154.9v-7.1h24.7v-20.4h-24.5v-7.1h32v34.6H190.6z"/>
<path class="st1" d="M134.4,178.8h-7.6v-46l-19,6.5L88.9,133v45.8h-8v-58l26.7,11.2l26.7-11.2L134.4,178.8L134.4,178.8z"/>
<path class="st1" d="M166.4,178.8v-21.4h-17v21.4h-7.6v-58.5h0.1l0,0h31.9l0,0h0.3v58.5H166.4z M149.4,127.5v22.7h17v-22.7H149.4z"
	/>
</svg>
