<?xml version="1.0" encoding="utf-8"?>
<!-- Generator: Adobe Illustrator 22.0.0, SVG Export Plug-In . SVG Version: 6.00 Build 0)  -->
<svg version="1.1"
	 id="svg2" inkscape:version="0.91 r13725" sodipodi:docname="100.svg" xmlns:cc="http://creativecommons.org/ns#" xmlns:dc="http://purl.org/dc/elements/1.1/" xmlns:inkscape="http://www.inkscape.org/namespaces/inkscape" xmlns:rdf="http://www.w3.org/1999/02/22-rdf-syntax-ns#" xmlns:sodipodi="http://sodipodi.sourceforge.net/DTD/sodipodi-0.dtd" xmlns:svg="http://www.w3.org/2000/svg"
	 xmlns="http://www.w3.org/2000/svg" xmlns:xlink="http://www.w3.org/1999/xlink" x="0px" y="0px" viewBox="0 0 75 75"
	 style="enable-background:new 0 0 75 75;" xml:space="preserve">
<style type="text/css">
	.st0{fill:#FFFFFF;}
</style>
<sodipodi:namedview  bordercolor="#666666" borderopacity="1.0" id="base" inkscape:current-layer="layer1" inkscape:cx="30.679462" inkscape:cy="14.182263" inkscape:document-units="px" inkscape:pageopacity="0.0" inkscape:pageshadow="2" inkscape:window-height="715" inkscape:window-maximized="1" inkscape:window-width="1366" inkscape:window-x="-8" inkscape:window-y="-8" inkscape:zoom="16" pagecolor="#ffffff" showgrid="true" units="px">
	<inkscape:grid  id="grid3358" type="xygrid"></inkscape:grid>
</sodipodi:namedview>
<g id="layer1" transform="translate(0,-1036.3622)" inkscape:groupmode="layer" inkscape:label="Layer 1">
	<path id="path5335" class="st0" d="M3.8,1045.5c-1.8,0-3.1,1.2-3.1,3.1l0,0v12.3v12.3c0,1.8,1.2,3.1,3.1,3.1
		c0.6,0,10.4-6.7,10.4-6.7l0,0l9.2-6.1c0.6-0.6,1.2-1.8,1.2-3.1s-0.6-1.8-1.2-2.5l-9.2-6.1l0,0C14.2,1051.6,4.4,1045.5,3.8,1045.5z
		 M31.4,1046.1v6.1h42.9v-6.1H31.4z M6.9,1054.7l4.9,3.1l4.9,3.1l-4.9,3.1l-4.9,3.1v-6.7V1054.7z M31.4,1058.3v6.1h42.9v-6.1H31.4z
		 M25.3,1070.6v6.1h49v-6.1H25.3z M0.8,1082.8v6.1h73.5v-6.1H0.8z M0.8,1095.1v6.1h73.5v-6.1H0.8z"/>
</g>
</svg>
