<?xml version="1.0" encoding="utf-8"?>
<!-- Generator: Adobe Illustrator 22.0.0, SVG Export Plug-In . SVG Version: 6.00 Build 0)  -->
<svg version="1.1" id="Layer_1" xmlns="http://www.w3.org/2000/svg" xmlns:xlink="http://www.w3.org/1999/xlink" x="0px" y="0px"
	 viewBox="0 0 75 75" style="enable-background:new 0 0 75 75;" xml:space="preserve">
<style type="text/css">
	.st0{fill:#FFFFFF;}
</style>
<g>
	<g>
		<path class="st0" d="M23.6,35.5c3.3,0,5.9-2.7,5.9-5.9s-2.7-5.9-5.9-5.9s-5.9,2.7-5.9,5.9S20.4,35.5,23.6,35.5z M71.2,11.8H3.8
			c-1.1,0-2,0.9-2,2v47.5c0,1.1,0.9,2,2,2h67.3c1.1,0,2-0.9,2-2V13.8C73.1,12.7,72.3,11.8,71.2,11.8z M23.6,19.7
			c5.5,0,9.9,4.4,9.9,9.9s-4.4,9.9-9.9,9.9s-9.9-4.4-9.9-9.9C13.7,24.1,18.2,19.7,23.6,19.7z M37.5,55.3h-4c0.1-2.8-1-5.5-3-7.4
			c-1.9-1.6-4.3-2.5-6.9-2.5c-5.2-0.2-9.7,3.8-9.9,9.1c0,0.3,0,0.5,0,0.8h-4c-0.2-7.4,5.6-13.6,13-13.8c0.3,0,0.6,0,0.9,0
			c7.4-0.2,13.6,5.6,13.9,13C37.5,54.7,37.5,55,37.5,55.3z M57.3,51.3H41.5v-4h15.8V51.3z M65.2,39.5H41.5v-4h23.8L65.2,39.5
			L65.2,39.5z M65.2,27.6H41.5v-4h23.8L65.2,27.6L65.2,27.6z"/>
	</g>
</g>
</svg>
