<?xml version="1.0" encoding="utf-8"?>
<!-- Generator: Adobe Illustrator 22.0.0, SVG Export Plug-In . SVG Version: 6.00 Build 0)  -->
<svg version="1.1" id="Layer_1" xmlns="http://www.w3.org/2000/svg" xmlns:xlink="http://www.w3.org/1999/xlink" x="0px" y="0px"
	 viewBox="0 0 307 55" style="enable-background:new 0 0 307 55;" xml:space="preserve">
<style type="text/css">
	.st0{fill:#D0D0D0;}
	.st1{fill:#253B80;}
	.st2{fill:#179BD7;}
	.st3{fill:#222D65;}
</style>
<g id="Layer_3">
	<path class="st0" d="M294,54H13C6.4,54,1,48.6,1,42V13C1,6.4,6.4,1,13,1h281c6.6,0,12,5.4,12,12v29C306,48.6,300.6,54,294,54z"/>
	<g id="Layer_4">
		<path class="st1" d="M137.2,18.7h-6.8c-0.5,0-0.9,0.3-0.9,0.8L126.7,37c0,0.3,0.2,0.6,0.5,0.7h0.1h3.3c0.5,0,0.9-0.3,0.9-0.8
			l0.7-4.7c0.1-0.5,0.5-0.8,0.9-0.8h2.2c4.5,0,7.1-2.2,7.8-6.5c0.3-1.9,0-3.4-0.9-4.4C141.2,19.4,139.5,18.7,137.2,18.7z M138,25.2
			c-0.4,2.5-2.2,2.5-4.1,2.5h-1l0.7-4.6c0-0.3,0.3-0.5,0.6-0.5h0.5c1.2,0,2.4,0,3,0.7C138,23.7,138.1,24.3,138,25.2z M157.7,25.1
			h-3.3c-0.3,0-0.5,0.2-0.6,0.5l-0.1,0.9l-0.2-0.3c-0.7-1-2.3-1.4-3.9-1.4c-3.6,0-6.7,2.7-7.3,6.6c-0.3,1.9,0.1,3.8,1.2,5
			c1,1.2,2.4,1.7,4.1,1.7c2.9,0,4.5-1.9,4.5-1.9l-0.1,0.9c0,0.3,0.2,0.6,0.5,0.7h0.1h2.9c0.5,0,0.9-0.3,0.9-0.8l1.8-11.2
			C158.3,25.4,158.1,25.1,157.7,25.1L157.7,25.1z M153.1,31.4c-0.3,1.9-1.8,3.1-3.7,3.1c-1,0-1.7-0.3-2.2-0.9
			c-0.5-0.6-0.7-1.4-0.5-2.3c0.3-1.9,1.8-3.2,3.7-3.2c0.9,0,1.7,0.3,2.2,0.9C153,29.7,153.2,30.5,153.1,31.4z M175.1,25.1h-3.3
			c-0.3,0-0.6,0.2-0.8,0.4l-4.5,6.7l-1.9-6.4c-0.1-0.4-0.5-0.7-0.9-0.7h-3.2c-0.3,0-0.6,0.3-0.6,0.6c0,0.1,0,0.1,0,0.2l3.6,10.6
			l-3.4,4.8c-0.2,0.3-0.1,0.6,0.1,0.8c0.1,0.1,0.2,0.1,0.3,0.1h3.3c0.3,0,0.6-0.2,0.8-0.4l11-15.8c0.2-0.3,0.1-0.6-0.1-0.8
			C175.3,25.1,175.2,25.1,175.1,25.1L175.1,25.1z"/>
		<path class="st2" d="M186,18.7h-6.8c-0.5,0-0.9,0.3-0.9,0.8L175.5,37c0,0.3,0.2,0.6,0.5,0.7h0.1h3.5c0.3,0,0.6-0.2,0.7-0.6l0.8-5
			c0.1-0.5,0.5-0.8,0.9-0.8h2.2c4.5,0,7.1-2.2,7.8-6.5c0.3-1.9,0-3.4-0.9-4.4C190,19.4,188.3,18.7,186,18.7z M186.8,25.2
			c-0.4,2.5-2.2,2.5-4.1,2.5h-1l0.7-4.6c0-0.3,0.3-0.5,0.6-0.5h0.5c1.2,0,2.4,0,3,0.7C186.8,23.7,186.9,24.3,186.8,25.2z
			 M206.4,25.1h-3.3c-0.3,0-0.5,0.2-0.6,0.5l-0.1,0.9l-0.2-0.3c-0.7-1-2.3-1.4-3.9-1.4c-3.6,0-6.7,2.7-7.3,6.6
			c-0.3,1.9,0.1,3.8,1.2,5c1,1.2,2.4,1.7,4.1,1.7c2.9,0,4.5-1.9,4.5-1.9l-0.1,0.9c0,0.3,0.2,0.6,0.5,0.7h0.1h2.9
			c0.5,0,0.9-0.3,0.9-0.8l1.8-11.2C207,25.4,206.8,25.1,206.4,25.1C206.5,25.1,206.5,25.1,206.4,25.1z M201.9,31.4
			c-0.3,1.9-1.8,3.1-3.7,3.1c-0.9,0-1.7-0.3-2.2-0.9c-0.5-0.6-0.7-1.4-0.5-2.3c0.3-1.9,1.8-3.2,3.7-3.2c0.9,0,1.7,0.3,2.2,0.9
			C201.8,29.7,202,30.5,201.9,31.4z M210.3,19.2l-2.8,17.9c0,0.3,0.2,0.6,0.5,0.7h0.1h2.8c0.5,0,0.9-0.3,0.9-0.8l2.8-17.5
			c0-0.3-0.2-0.6-0.5-0.7H214h-3.2C210.6,18.7,210.3,19,210.3,19.2z"/>
		<path class="st1" d="M98.3,41.2l0.5-3.3h-1.2H92l3.9-24.5c0-0.2,0.2-0.3,0.3-0.3h9.4c3.1,0,5.3,0.6,6.4,1.9c0.5,0.6,0.9,1.2,1,1.9
			c0.2,0.7,0.2,1.6,0,2.6v0.1v0.7l0.5,0.3c0.4,0.2,0.8,0.5,1.1,0.8c0.4,0.5,0.7,1.2,0.9,1.9c0.1,0.8,0.1,1.7-0.1,2.8
			c-0.2,1.2-0.6,2.3-1.2,3.2c-0.5,0.8-1.1,1.5-1.8,2c-0.7,0.5-1.5,0.9-2.5,1.1c-0.9,0.2-1.9,0.4-3.1,0.4h-0.7c-0.5,0-1,0.2-1.4,0.5
			s-0.7,0.8-0.7,1.3l-0.1,0.3l-0.9,5.9V41c0,0.1,0,0.1-0.1,0.1h-0.1C102.8,41.2,98.3,41.2,98.3,41.2z"/>
		<path class="st2" d="M114,19.7c0,0.2-0.1,0.4-0.1,0.5c-1.2,6.4-5.5,8.5-10.9,8.5h-2.8c-0.7,0-1.2,0.5-1.3,1.1l-1.4,8.9l-0.4,2.5
			c-0.1,0.4,0.2,0.7,0.6,0.8h0.1h4.9c0.6,0,1.1-0.4,1.2-1v-0.2l0.9-5.8l0.1-0.3c0.1-0.6,0.6-1,1.2-1h0.7c4.7,0,8.4-1.9,9.5-7.5
			c0.5-2.3,0.2-4.3-1-5.6C115,20.3,114.6,19.9,114,19.7z"/>
		<path class="st3" d="M112.8,19.2c-0.4-0.1-0.8-0.2-1.2-0.3c-0.8-0.1-1.6-0.2-2.4-0.2h-7.4c-0.6,0-1.1,0.4-1.2,1L99,29.6v0.3
			c0.1-0.7,0.7-1.1,1.3-1.1h2.8c5.4,0,9.6-2.2,10.9-8.5c0-0.2,0.1-0.4,0.1-0.5c-0.3-0.2-0.7-0.3-1-0.4
			C112.9,19.2,112.8,19.2,112.8,19.2z"/>
		<path class="st1" d="M100.6,19.7c0.1-0.6,0.6-1,1.2-1h7.4c0.9,0,1.7,0.1,2.4,0.2c0.5,0.1,1,0.2,1.5,0.4c0.4,0.1,0.7,0.3,1,0.4
			c0.4-2.3,0-3.9-1.3-5.4c-1.4-1.6-3.9-2.3-7.2-2.3h-9.4c-0.7,0-1.2,0.5-1.3,1.1L91,37.9c-0.1,0.4,0.2,0.9,0.7,0.9h0.1h5.8l1.5-9.2
			C99.1,29.6,100.6,19.7,100.6,19.7z"/>
	</g>
</g>
</svg>
