<?xml version="1.0" encoding="utf-8"?>
<!-- Generator: Adobe Illustrator 22.0.0, SVG Export Plug-In . SVG Version: 6.00 Build 0)  -->
<svg version="1.1" id="Layer_1" xmlns="http://www.w3.org/2000/svg" xmlns:xlink="http://www.w3.org/1999/xlink" x="0px" y="0px"
	 viewBox="0 0 512 512" style="enable-background:new 0 0 512 512;" xml:space="preserve">
<style type="text/css">
	.st0{display:none;}
	.st1{display:inline;}
	.st2{fill:none;stroke:url(#SVGID_1_);stroke-width:15;stroke-linecap:round;stroke-linejoin:round;stroke-miterlimit:10;}
	.st3{fill:none;stroke:url(#SVGID_2_);stroke-width:15;stroke-linecap:round;stroke-linejoin:round;stroke-miterlimit:10;}
	.st4{fill:none;stroke:url(#SVGID_3_);stroke-width:15;stroke-linecap:round;stroke-linejoin:round;stroke-miterlimit:10;}
	.st5{fill:none;stroke:url(#SVGID_4_);stroke-width:15;stroke-linecap:round;stroke-linejoin:round;stroke-miterlimit:10;}
	.st6{fill:none;stroke:url(#SVGID_5_);stroke-width:15;stroke-linecap:round;stroke-linejoin:round;stroke-miterlimit:10;}
	.st7{fill:none;stroke:url(#SVGID_6_);stroke-width:15;stroke-linecap:round;stroke-linejoin:round;stroke-miterlimit:10;}
	.st8{fill:none;stroke:url(#SVGID_7_);stroke-width:15;stroke-linejoin:round;stroke-miterlimit:10;}
	.st9{fill:none;stroke:url(#SVGID_8_);stroke-width:15;stroke-linecap:round;stroke-linejoin:round;stroke-miterlimit:10;}
	.st10{fill:none;stroke:url(#SVGID_9_);stroke-width:15;stroke-linejoin:round;stroke-miterlimit:10;}
	.st11{fill:none;stroke:url(#SVGID_10_);stroke-width:15;stroke-linejoin:round;stroke-miterlimit:10;}
	.st12{fill:none;stroke:url(#SVGID_11_);stroke-width:15;stroke-linejoin:round;stroke-miterlimit:10;}
	.st13{fill:none;stroke:url(#SVGID_12_);stroke-width:15;stroke-linejoin:round;stroke-miterlimit:10;}
</style>
<g id="Layer_1_1_" class="st0">
	<g class="st1">
		<rect x="73.3" y="278.9" width="58.1" height="11.3"/>
		<path d="M259.8,282.3c-0.2,3.1-1.4,5.8-3.4,7.9h180v-11.3h-177C259.7,280,259.8,281.1,259.8,282.3z"/>
		<path d="M101,272.2L101,272.2l3.6-3.5h26.8v-4.8h-0.6l0.6-0.7v-3.6c0-1.1,0.1-2.2,0.2-3.3h-4.2l0,0l2.9-3.1l0,0h1.9
			c0.4-1.6,1.1-3.2,1.8-4.7h-25.5l-35.3,30.4h58.1v-6.7H101z M128.9,260.4l-3.2,3.4h-5.6l0,0l3.3-3.4l0,0H128.9z M120.6,253.2h5.1
			l-3.1,3.1h-5.3L120.6,253.2z M113.2,260.4L113.2,260.4h5.4l-3.4,3.4h-5.6L113.2,260.4z"/>
		<path d="M237.3,254.9v0.1l0.2-1.8l0,0h5.1l-0.3,3.1h-4.8c0.3,1.3,0.6,2.7,0.9,4.2h3.5l-0.3,3.4h-2.5c0.3,1.4,0.5,2.9,0.7,4.5
			c0.9,0.1,1.7,0.2,2.6,0.3H296l0,0l1,3.5h-41.6c2,1.7,3.4,4,4,6.7h177l-35.3-30.4H235.4C236.1,250.5,236.7,252.6,237.3,254.9
			L237.3,254.9z M405.1,268.7l3.6,3.5h-84.5l-1.6-3.5l0,0H405.1z M347.1,263.9h-5.6l0,0l-2.1-3.4l0,0h5.4L347.1,263.9z M357.7,263.9
			h-5.6l0,0l-2.4-3.4l0,0h5.4L357.7,263.9z M368.3,263.9h-5.6l0,0l-2.6-3.4l0,0h5.4L368.3,263.9z M378.9,263.9h-5.6l0,0l-2.9-3.4
			l0,0h5.4L378.9,263.9z M389.5,263.9h-5.6l0,0l-3.2-3.4l0,0h5.4L389.5,263.9z M400.1,263.9h-5.6l-3.4-3.4l0,0h5.4L400.1,263.9z
			 M384,253.2h5.1l3.2,3.1H387L384,253.2L384,253.2z M374.2,253.2h5.2l2.9,3.1H377l0,0L374.2,253.2L374.2,253.2z M364.4,253.2h5.1
			l2.7,3.1H367l0,0L364.4,253.2L364.4,253.2z M354.6,253.2h5.1l2.5,3.1h-5.3l0,0L354.6,253.2L354.6,253.2z M344.8,253.2h5.1l2.3,3.1
			h-5.3l0,0L344.8,253.2L344.8,253.2z M335,253.2h5.1l2,3.1h-5.3l0,0L335,253.2L335,253.2z M336.5,263.9h-5.6l-1.9-3.4l0,0h5.4
			L336.5,263.9z M325.2,253.2h5.1l1.8,3.1h-5.3l0,0L325.2,253.2L325.2,253.2z M325.9,263.9h-5.6l-1.6-3.4l0,0h5.4L325.9,263.9z
			 M315.4,253.2h5.1l1.6,3.1h-5.3L315.4,253.2L315.4,253.2z M294.8,263.9h-5.6l0,0l-0.8-3.4l0,0h5.4L294.8,263.9z M291.7,253.2
			l0.9,3.1h-5.3l-0.8-3.1L291.7,253.2L291.7,253.2z M284.1,263.9h-5.6l-0.6-3.4h5.4L284.1,263.9z M281.9,253.2l0.6,3.1h-5.3
			l-0.5-3.1L281.9,253.2L281.9,253.2z M273.5,263.9H268l0,0l-0.3-3.4l0,0h5.4L273.5,263.9z M267,253.2h5.1l0.4,3.1h-5.3l0,0
			L267,253.2L267,253.2z M262.9,263.9h-5.6l0,0l-0.1-3.4l0,0h5.4L262.9,263.9z M262.3,253.2l0.2,3.1h-5.3l-0.1-3.1L262.3,253.2
			L262.3,253.2z M247.4,253.2h5.1l-0.1,3.1h-5.3L247.4,253.2z M247,260.4h5.4l-0.1,3.4h-5.6l0,0L247,260.4z"/>
		<path d="M234.2,245.1h165.4v-16.7H224.7c-0.2,0.7-0.5,1.4-0.8,2C227.5,233.1,231.1,237.6,234.2,245.1z"/>
		<path d="M155.9,235.1h7.5c1-2.8,3.1-5.2,5.7-6.6h-58.9v16.7h26C140.6,239,147.8,235.1,155.9,235.1z"/>
		<path d="M172.5,215.9c-0.3,0-0.7,0.1-1,0.1c-6.3,0-11.4-5.1-11.4-11.4c0-6.3,5.1-11.4,11.4-11.4c4.4,0,8.1,2.5,10.1,6.1
			c2.5-2.2,5.5-3.9,8.7-5.1v-8.3h-68v37.3h50.3c-0.2-1.2-0.3-2.4-0.3-3.6C172.2,218.4,172.3,217.1,172.5,215.9z M140.9,215.9
			c-6.3,0-11.4-5.1-11.4-11.4c0-6.3,5.1-11.4,11.4-11.4c6.3,0,11.4,5.1,11.4,11.4C152.3,210.9,147.2,215.9,140.9,215.9z"/>
		<path d="M140.9,200.9c-2,0-3.7,1.6-3.7,3.7c0,2,1.6,3.7,3.7,3.7c2,0,3.7-1.6,3.7-3.7C144.6,202.5,143,200.9,140.9,200.9z"/>
		<path d="M175.1,204.6c0-2-1.6-3.7-3.7-3.7c-2,0-3.7,1.6-3.7,3.7c0,2,1.6,3.7,3.7,3.7C173.5,208.2,175.1,206.6,175.1,204.6z"/>
		<path d="M319.5,223.2h68v-37.3h-68V223.2z M368.8,193.2c6.3,0,11.4,5.1,11.4,11.4c0,6.3-5.1,11.4-11.4,11.4s-11.4-5.1-11.4-11.4
			S362.5,193.2,368.8,193.2z M338.3,193.2c6.3,0,11.4,5.1,11.4,11.4c0,6.3-5.1,11.4-11.4,11.4s-11.4-5.1-11.4-11.4
			S332,193.2,338.3,193.2z"/>
		<path d="M338.3,208.2c2,0,3.7-1.6,3.7-3.7c0-2-1.6-3.7-3.7-3.7c-2,0-3.7,1.6-3.7,3.7C334.6,206.6,336.3,208.2,338.3,208.2z"/>
		<path d="M368.8,208.2c2,0,3.7-1.6,3.7-3.7c0-2-1.6-3.7-3.7-3.7c-2,0-3.7,1.6-3.7,3.7C365.1,206.6,366.8,208.2,368.8,208.2z"/>
		<path d="M211.4,155.7h87V204h-77.1c0.9,1.3,1.7,2.6,2.3,4h78.8v-56.3h-95v42.1c1.4,0.4,2.7,1,4,1.6V155.7z"/>
		<polygon points="238.8,210.2 238.8,219.1 231.1,219.1 231.1,223.2 278.6,223.2 278.6,219.1 271.6,219.1 271.6,210.2 		"/>
		<path d="M178.8,229.2H213c0.2,0,0.5,0,0.7,0c1.4,0,3.3,0.2,5.4,0.9c1.6-3.1,2.6-6.7,2.6-10.4c0-12.4-10.1-22.5-22.5-22.5
			s-22.5,10.1-22.5,22.5C176.7,223,177.5,226.3,178.8,229.2z"/>
		<path d="M247.7,273.7c-3.3-0.2-8.1-0.7-11.8-1.5c-0.8-6.1-1.8-11.5-3-16.2c-5.7-22.4-15.2-24.8-19.8-24.5H175
			c-2.2-0.1-5.9,0.4-9.8,3.3c-0.7,0.5-1.4,1.1-2,1.8h29.3c12.7,0,23,10.3,23,23v48.5h9.3c6.8,0,12.3,5.5,12.3,12.3
			s-5.5,12.3-12.3,12.3h-0.5l-4.5,25.5c-0.2,1-0.2,2-0.1,3c2.3,1.6,3.8,4.2,3.8,7.2c0,0.3,0,0.5,0,0.8c1.7,1.6,3.8,2.8,6.3,3.2
			c0.7,0.1,1.4,0.2,2.2,0.2c5.8,0,11-4.2,12-10.1l9.2-51.8c0.6-3.6-0.3-7.2-2.7-10c-2.3-2.8-5.8-4.4-9.4-4.4h-20v-31.2
			c0.7,0.4,1.5,0.7,2.3,0.9v2.4V285l1.8,0.8c6.9,3.1,19.2,3.9,21.6,4c0.1,0,0.3,0,0.4,0c4.2,0,7.8-3.3,8-7.6
			C255.5,277.7,252.1,273.9,247.7,273.7z"/>
		<path d="M155.9,239.6c-11,0-20,9-20,20v50c0,11,9,20,20,20H174v32.6c0,0.1,0,0.2,0,0.4h-22.4c-3.2,0-5.8,2.6-5.8,5.8l0,0
			c0,3.2,2.6,5.7,5.8,5.7h63.2c3.2,0,5.8-2.6,5.8-5.7l0,0c0-3.2-2.6-5.8-5.8-5.8h-22.4c0-0.1,0-0.2,0-0.4v-32.6h0.1h32.3
			c5.1,0,9.3-4.2,9.3-9.2l0,0c0-5.1-4.2-9.3-9.3-9.3h-12.4c0-0.5,0.1-1,0.1-1.5v-50c0-11-9-20-20-20H155.9z"/>
		<path d="M159.1,156.6c-1.8,1-2.7,3-1.9,4.4s2.9,1.7,4.7,0.7c1.3-0.7,2.1-2,2.2-3.1l0,0l0,0c0-0.1,0-0.1,0-0.2v-17l-16.7,4.6v16
			c-1-0.3-2.2-0.2-3.3,0.4c-1.8,1-2.7,3-1.9,4.4s2.9,1.7,4.7,0.7c1.4-0.8,2.3-2.2,2.2-3.5v-11.5l13.3-3.7v7.2
			C161.4,155.8,160.2,156,159.1,156.6z M149.1,150.8v-3.7l13.3-3.7v3.7L149.1,150.8z"/>
		<path d="M179.8,145.5l-3.1,16.3c-0.9-0.5-2.1-0.6-3.4-0.2c-2,0.7-3.2,2.5-2.7,4s2.5,2.2,4.5,1.5c1.6-0.5,2.6-1.8,2.8-3l2.8-14.6
			l5.7,2.2l0.6-1.6l0,0l0.5-1L179.8,145.5z"/>
		<path d="M132.3,154.9L132.3,154.9l-0.1-1.1l-8.5,0.5l5.1,15.8c-1,0-2.2,0.5-3,1.4c-1.4,1.5-1.6,3.7-0.4,4.8s3.3,0.7,4.7-0.8
			c1.1-1.2,1.5-2.8,1-3.9l-4.6-14.1l6.1-0.8L132.3,154.9z"/>
		<path d="M356.8,157.4c-2,0.6-3.3,2.3-2.8,3.9c0.5,1.5,2.5,2.3,4.5,1.7c1.5-0.4,2.5-1.5,2.8-2.6l0,0l0,0c0-0.1,0-0.1,0-0.2
			l3.7-16.6l-17.3,0.8l-3.5,15.7c-0.9-0.5-2.1-0.7-3.3-0.3c-2,0.6-3.3,2.3-2.8,3.9c0.5,1.5,2.5,2.3,4.5,1.7c1.6-0.5,2.7-1.7,2.9-2.9
			l2.5-11.2l13.8-0.6l-1.6,7.1C359.3,157.2,358.1,157,356.8,157.4z M348.4,149.6l0.8-3.6l13.8-0.6l-0.8,3.6L348.4,149.6z"/>
		<path d="M379.5,151.2l-6.6,15.2c-0.8-0.7-1.9-1.1-3.2-0.9c-2.1,0.2-3.6,1.7-3.5,3.3c0.2,1.6,2,2.7,4.1,2.5c1.6-0.2,3-1.1,3.4-2.3
			l5.9-13.6l5.1,3.4l0.9-1.4l0,0l0.7-0.9L379.5,151.2z"/>
		<path d="M321,164.6c-1.7,1.2-2.4,3.2-1.5,4.5s3.1,1.4,4.8,0.2c1.4-0.9,2.1-2.4,1.8-3.6l-1.3-14.8l6.1,0.6l0.2-1.7l0,0l0.2-1.1
			l-8.4-1.4l1.5,16.5C323.3,163.6,322,163.9,321,164.6z"/>
		<polygon points="219.9,192 223.4,196.1 227.3,193.6 227.6,183.2 228.3,193.7 231.2,196.5 233.4,192 236.9,196.1 240.9,193.6 
			241.2,183.2 241.8,193.7 244.7,196.5 247,192 250.5,196.1 254.4,193.6 254.7,183.2 255.4,193.7 258.2,196.5 260.5,192 264,196.1 
			267.9,193.6 268.2,183.2 268.9,193.7 271.8,196.5 274,192 277.5,196.1 281.4,193.6 281.8,183.2 282.4,193.7 285.3,196.5 
			287.6,192 291.1,196.1 294.5,193.9 293.5,192.2 291.5,193.5 287.1,188.3 284.7,193.2 284.4,192.8 282.4,161.4 280.4,161.4 
			279.5,192.5 277.9,193.5 273.6,188.3 271.2,193.2 270.8,192.8 268.9,161.4 266.9,161.4 265.9,192.5 264.4,193.5 260.1,188.3 
			257.7,193.2 257.3,192.8 255.4,161.4 253.4,161.4 252.4,192.5 250.9,193.5 246.6,188.3 244.1,193.2 243.8,192.8 241.8,161.4 
			239.8,161.4 238.9,192.5 237.3,193.5 233,188.3 230.6,193.2 230.2,192.8 228.3,161.4 226.3,161.4 225.4,192.5 223.8,193.5 
			219.5,188.3 217.1,193.2 216.4,192.5 215,194 217.6,196.5 		"/>
	</g>
</g>
<g id="Layer_2_1_">
	<g>
		<linearGradient id="SVGID_1_" gradientUnits="userSpaceOnUse" x1="340.25" y1="285.6" x2="340.25" y2="244.2">
			<stop  offset="0" style="stop-color:#6F4118"/>
			<stop  offset="0.5" style="stop-color:#CC9639"/>
			<stop  offset="1" style="stop-color:#6F4118"/>
		</linearGradient>
		<path class="st2" d="M370.2,278.1h-7.7c-19.5,0-52.2-26.4-52.2-26.4"/>
		<linearGradient id="SVGID_2_" gradientUnits="userSpaceOnUse" x1="206.25" y1="375.6797" x2="206.25" y2="232.3">
			<stop  offset="0" style="stop-color:#6F4118"/>
			<stop  offset="0.5" style="stop-color:#CC9639"/>
			<stop  offset="1" style="stop-color:#6F4118"/>
		</linearGradient>
		<path class="st3" d="M180.4,366.1c0,0-26.9,9.2-40.7-11.1c7.8-13,38.4-69.1,38.4-69.1l69.1-46.1l25.6,2.6"/>
		<linearGradient id="SVGID_3_" gradientUnits="userSpaceOnUse" x1="178.2" y1="418.3" x2="178.2" y2="370.5">
			<stop  offset="0" style="stop-color:#6F4118"/>
			<stop  offset="0.5" style="stop-color:#CC9639"/>
			<stop  offset="1" style="stop-color:#6F4118"/>
		</linearGradient>
		<polyline class="st4" points="148.9,410.8 190.7,390.5 207.5,378 		"/>
		<linearGradient id="SVGID_4_" gradientUnits="userSpaceOnUse" x1="273.6915" y1="342.7" x2="273.6915" y2="166.6319">
			<stop  offset="0" style="stop-color:#6F4118"/>
			<stop  offset="0.5" style="stop-color:#CC9639"/>
			<stop  offset="1" style="stop-color:#6F4118"/>
		</linearGradient>
		<path class="st5" d="M239.6,331.9l113.3-130.6c5.7-6.5,5.4-16.3-0.7-22.4l0,0c-6.6-6.6-17.4-6.3-23.7,0.6L190.4,335.2"/>
		<linearGradient id="SVGID_5_" gradientUnits="userSpaceOnUse" x1="274.2" y1="400.8" x2="274.2" y2="286">
			<stop  offset="0" style="stop-color:#6F4118"/>
			<stop  offset="0.5" style="stop-color:#CC9639"/>
			<stop  offset="1" style="stop-color:#6F4118"/>
		</linearGradient>
		<path class="st6" d="M285.7,293.5v15.4c0,11.7-11.3,23-23,23h-61.5c-10,0-23,10.1-23,23c0,13,7.7,23,23,23H232h23
			c13.5,11.9,21.5,15.4,38.4,15.4h23c7.2,0,17.3-3.5,24.2-5.5l0,0c6.9-2,14.7-2.2,21.9-2.2h7.7"/>
		<linearGradient id="SVGID_6_" gradientUnits="userSpaceOnUse" x1="397.1" y1="400.9" x2="397.1" y2="255.3">
			<stop  offset="0" style="stop-color:#6F4118"/>
			<stop  offset="0.5" style="stop-color:#CC9639"/>
			<stop  offset="1" style="stop-color:#6F4118"/>
		</linearGradient>
		<rect x="370.2" y="262.8" class="st7" width="53.8" height="130.6"/>
		<linearGradient id="SVGID_7_" gradientUnits="userSpaceOnUse" x1="393.3" y1="370.3" x2="393.3" y2="354.9">
			<stop  offset="0" style="stop-color:#6F4118"/>
			<stop  offset="0.5" style="stop-color:#CC9639"/>
			<stop  offset="1" style="stop-color:#6F4118"/>
		</linearGradient>
		<line class="st8" x1="393.3" y1="354.9" x2="393.3" y2="370.3"/>
		<linearGradient id="SVGID_8_" gradientUnits="userSpaceOnUse" x1="155.5" y1="418.3" x2="155.5" y2="360.7">
			<stop  offset="0" style="stop-color:#6F4118"/>
			<stop  offset="0.5" style="stop-color:#CC9639"/>
			<stop  offset="1" style="stop-color:#6F4118"/>
		</linearGradient>
		<polyline class="st9" points="162.1,368.2 156.6,374.4 148.9,410.8 		"/>
		<linearGradient id="SVGID_9_" gradientUnits="userSpaceOnUse" x1="139.8" y1="239.5" x2="139.8" y2="147.7">
			<stop  offset="0" style="stop-color:#6F4118"/>
			<stop  offset="0.5" style="stop-color:#CC9639"/>
			<stop  offset="1" style="stop-color:#6F4118"/>
		</linearGradient>
		<polygon class="st10" points="139.8,155.2 152.6,180.8 178.2,193.6 152.6,206.4 139.8,232 127,206.4 101.4,193.6 127,180.8 		"/>
		<linearGradient id="SVGID_10_" gradientUnits="userSpaceOnUse" x1="239.6" y1="201.1" x2="239.6" y2="93.9">
			<stop  offset="0" style="stop-color:#6F4118"/>
			<stop  offset="0.5" style="stop-color:#CC9639"/>
			<stop  offset="1" style="stop-color:#6F4118"/>
		</linearGradient>
		<polygon class="st11" points="239.6,101.4 255,132.2 285.7,147.5 255,162.9 239.6,193.6 224.3,162.9 193.5,147.5 224.3,132.2 		
			"/>
		<linearGradient id="SVGID_11_" gradientUnits="userSpaceOnUse" x1="109" y1="308.9" x2="109" y2="262.8">
			<stop  offset="0" style="stop-color:#6F4118"/>
			<stop  offset="0.5" style="stop-color:#CC9639"/>
			<stop  offset="1" style="stop-color:#6F4118"/>
		</linearGradient>
		<line class="st12" x1="109" y1="262.8" x2="109" y2="308.9"/>
		<linearGradient id="SVGID_12_" gradientUnits="userSpaceOnUse" x1="109.05" y1="293.3" x2="109.05" y2="278.3">
			<stop  offset="0" style="stop-color:#6F4118"/>
			<stop  offset="0.5" style="stop-color:#CC9639"/>
			<stop  offset="1" style="stop-color:#6F4118"/>
		</linearGradient>
		<line class="st13" x1="132.1" y1="285.8" x2="86" y2="285.8"/>
	</g>
</g>
<g id="Layer_3" class="st0">
	<g class="st1">
		<path d="M158.8,179.2l54.4,36.6l-26.9,58.8c-2.2,3.3-2.8,7.6-1.2,11.6l18.7,47.1l-37.2,23.1c-5.9,3.6-7.7,11.4-4,17.2
			c2.4,3.8,6.5,5.9,10.6,5.9c2.3,0,4.5-0.6,6.6-1.9l46-28.6c5.1-3.2,7.3-9.6,5-15.2l-10.5-26.6l30.8,17.1l24.3,49.8
			c2.2,4.4,6.6,7,11.2,7c1.8,0,3.7-0.4,5.5-1.3c6.2-3,8.8-10.5,5.8-16.7l-26-53.3c-1.1-2.3-2.9-4.2-5.2-5.5l-27.5-15.2l14.9-32.5
			l3.9,13c0.7,2.5,2.7,4.5,5.2,5.3c0.8,0.3,1.7,0.4,2.5,0.4c1.7,0,3.4-0.5,4.8-1.6l26.4-19.7l4.7,7.5l5.5-3.4l-5.9-9.5
			c0.6-2.3,0.2-4.7-1.3-6.7c-1.2-1.6-2.9-2.7-4.8-3l-2.1-3.3c-0.6,0.9-1.4,1.7-2.4,2.3s-2,1-3.1,1.2l0.9,1.4L270,254l-6.3-21.3
			c-0.1-0.4-0.3-0.7-0.4-1.1c-0.3,0-0.5,0-0.8,0c-2.3,0-4.7-0.3-6.9-1c-6.4-1.8-11.6-6.1-14.8-11.9c-0.9-1.6-1.6-3.4-2.1-5.1
			l-70.9-47.8c-3.7-2.5-8.6-1.5-11.1,2.2C154.1,171.8,155.1,176.7,158.8,179.2z"/>
		<ellipse cx="262.5" cy="206.9" rx="22.5" ry="22.5"/>
		<path d="M291.3,227.2c-1.9-3-5.8-3.9-8.8-2s-3.9,5.8-2,8.8s5.8,3.9,8.8,2S293.2,230.2,291.3,227.2z"/>
		<polygon points="289.6,183.7 323.8,152.3 321.5,148.3 288.5,181.9 		"/>
		<polygon points="291.9,192 337.4,182.8 337.5,178.2 291.9,189.9 		"/>
		<polygon points="297.7,132.7 293.9,130.2 279.6,175.1 281.5,176.2 		"/>
		<path d="M331.3,218.1c-1-0.3-2.2-0.2-3.3,0.4c-1.8,1-2.7,3-1.9,4.4c0.8,1.4,2.9,1.7,4.7,0.7c1.4-0.8,2.3-2.2,2.2-3.5v-11.5
			l13.3-3.7v7.2c-1-0.3-2.2-0.2-3.3,0.4c-1.8,1-2.7,3-1.9,4.4s2.9,1.7,4.7,0.7c1.3-0.7,2.1-2,2.2-3.1l0,0l0,0c0-0.1,0-0.1,0-0.2v-17
			l-16.7,4.6L331.3,218.1L331.3,218.1z M333,203.3l13.3-3.7v3.7L333,207V203.3z"/>
		<path d="M342,242.2c-2,0.7-3.2,2.5-2.7,4s2.5,2.2,4.5,1.5c1.6-0.5,2.6-1.8,2.8-3l2.8-14.6l5.7,2.2l0.6-1.6l0,0l0.5-1l-7.7-3.6
			l-3.1,16.3C344.5,241.9,343.3,241.8,342,242.2z"/>
		<path d="M316.2,211L316.2,211l-0.1-1.1l-8.5,0.5l5.1,15.8c-1,0-2.2,0.5-3,1.4c-1.4,1.5-1.6,3.7-0.4,4.8s3.3,0.7,4.7-0.8
			c1.1-1.2,1.5-2.8,1-3.9l-4.6-14.1l6.1-0.8L316.2,211z"/>
	</g>
</g>
</svg>
