<?xml version="1.0" encoding="utf-8"?>
<!-- Generator: Adobe Illustrator 22.0.0, SVG Export Plug-In . SVG Version: 6.00 Build 0)  -->
<svg version="1.1" id="Layer_1" xmlns="http://www.w3.org/2000/svg" xmlns:xlink="http://www.w3.org/1999/xlink" x="0px" y="0px"
	 viewBox="0 0 262 55" style="enable-background:new 0 0 262 55;" xml:space="preserve">
<style type="text/css">
	.st0{fill:#FFFFFF;}
	.st1{fill:#FFFFFF;stroke:#FFFFFF;stroke-width:4;stroke-miterlimit:10;}
</style>
<g>
	<g>
		<path class="st0" d="M218.1,6.5h-5.4v5.4h5.4V6.5z M209.3,34.6h19l-3-4h-16.1V34.6z M247.3,23.1l-1.2-1.4l-1.2,1.4h1v2.2h-2.2v-1
			l-1.4,1.2l1.4,1.2v-1h2.2V28h-1l1.2,1.4l1.2-1.4h-1v-2.2h2.2v1l1.4-1.2l-1.4-1.2v1h-2.2v-2.2L247.3,23.1L247.3,23.1z M236.2,16.9
			v9.2l3-3.1l4.7,0.3L236.2,16.9z M253.5,6.5h-5.4v5.4h5.4V6.5z M246,8.7h-25.8v1H246V8.7z M199.7,17l9.8-7.3h-7
			c-0.2,0.7-0.8,1.3-1.7,1.3c-0.9,0-1.7-0.7-1.7-1.7c0-0.9,0.7-1.7,1.7-1.7c0.8,0,1.5,0.6,1.7,1.3h7l-9.8-7.3l-8.4,4.2h-3.6v6.9h3.6
			L199.7,17z M245.9,41.9l7.5-5.7v-6L243,38.1l-5.6-7.5h-6l16.3,21.6h6L245.9,41.9z M231.7,46.6v6l9-6.9l-2.9-3.8L231.7,46.6z
			 M199.2,30.6v13.3l-10.6-7.5h-9.4l21.4,15.8h4.6l-0.1-21.6H199.2z M209.3,38.5v4v9.8h4v-9.7l15.2,0.1l-3.1-4.1L209.3,38.5z"/>
	</g>
</g>
<path class="st1" d="M12.3,51.3h41.7V23.5H18.5V8.2h24.8l-6.2,5.3h7.9l9-10.6L12.2,2.8v26h35.5v17.1H23.2l7.1-7.2l-8-0.1L12.3,51.3z
	"/>
<path class="st1" d="M61.7,2.8v48.4H68V2.8H61.7z"/>
<path class="st1" d="M165,31.5l26.2,19.8h-9.9L157,31.5v-5.9h20.5V8.7h-20.3V2.8h26.5v28.6H165z"/>
<path class="st1" d="M118.4,51.3h-6.3V13.2l-15.7,5.4l-15.6-5.2v37.9h-6.6v-48l22.1,9.3l22.1-9.3L118.4,51.3L118.4,51.3z"/>
<path class="st1" d="M144.9,51.3V33.6h-14.1v17.7h-6.3V2.8h0.1l0,0H151l0,0h0.2v48.4H144.9z M130.8,8.8v18.8h14.1V8.8H130.8z"/>
</svg>
