<?xml version="1.0" encoding="utf-8"?>
<!-- Generator: Adobe Illustrator 22.0.0, SVG Export Plug-In . SVG Version: 6.00 Build 0)  -->
<svg version="1.1"
	 id="svg3848" inkscape:version="0.91 r13725" sodipodi:docname="52.svg" xmlns:cc="http://creativecommons.org/ns#" xmlns:dc="http://purl.org/dc/elements/1.1/" xmlns:inkscape="http://www.inkscape.org/namespaces/inkscape" xmlns:rdf="http://www.w3.org/1999/02/22-rdf-syntax-ns#" xmlns:sodipodi="http://sodipodi.sourceforge.net/DTD/sodipodi-0.dtd" xmlns:svg="http://www.w3.org/2000/svg"
	 xmlns="http://www.w3.org/2000/svg" xmlns:xlink="http://www.w3.org/1999/xlink" x="0px" y="0px" viewBox="0 0 16 16"
	 style="enable-background:new 0 0 16 16;" xml:space="preserve">
<sodipodi:namedview  bordercolor="#666666" borderopacity="1.0" id="base" inkscape:bbox-nodes="true" inkscape:bbox-paths="true" inkscape:current-layer="g5163" inkscape:cx="-10.898003" inkscape:cy="-2.6779529" inkscape:document-units="px" inkscape:pageopacity="0.0" inkscape:pageshadow="2" inkscape:snap-bbox="true" inkscape:snap-bbox-edge-midpoints="true" inkscape:snap-bbox-midpoints="true" inkscape:window-height="705" inkscape:window-maximized="1" inkscape:window-width="1366" inkscape:window-x="-8" inkscape:window-y="-8" inkscape:zoom="7.919596" pagecolor="#ffffff" showgrid="true" units="px">
	<inkscape:grid  id="grid3856" type="xygrid"></inkscape:grid>
</sodipodi:namedview>
<g id="layer1" transform="translate(0,-1036.3622)" inkscape:groupmode="layer" inkscape:label="Layer 1">
	<g id="g5163" transform="translate(8.0000005,4.5000088)">
		<path id="rect4693" d="M-3,1032.9v1h-1.5c-0.3,0-0.5,0.2-0.5,0.5v11c0,0.3,0.2,0.5,0.5,0.5h9c0.3,0,0.5-0.2,0.5-0.5v-11
			c0-0.3-0.2-0.5-0.5-0.5H3v-1H-3z M-4,1034.9h1v1h6v-1h1v10h-8V1034.9z M-2.6,1036.9l-0.1,0.3l-0.3,0.1l0.3,0.2l0,0.4l0.3-0.2
			l0.3,0.1l-0.1-0.3l0.2-0.3h-0.4L-2.6,1036.9z M-1,1036.9v1h4v-1H-1z M-2.6,1038.9l-0.1,0.3l-0.3,0.1l0.3,0.2l0,0.4l0.3-0.2
			l0.3,0.1l-0.1-0.3l0.2-0.3h-0.4L-2.6,1038.9z M-1,1038.9v1h4v-1H-1z M-2.6,1040.9l-0.1,0.3l-0.3,0.1l0.3,0.2l0,0.4l0.3-0.2
			l0.3,0.1l-0.1-0.3l0.2-0.3h-0.4L-2.6,1040.9z M-1,1040.9v1h4v-1H-1z M-2.6,1042.9l-0.1,0.3l-0.3,0.1l0.3,0.2l0,0.4l0.3-0.2
			l0.3,0.1l-0.1-0.3l0.2-0.3h-0.4L-2.6,1042.9z M-1,1042.9v1h4v-1H-1z"/>
	</g>
</g>
</svg>
