<?xml version="1.0" encoding="utf-8"?>
<!-- Generator: Adobe Illustrator 22.0.0, SVG Export Plug-In . SVG Version: 6.00 Build 0)  -->
<svg version="1.1" id="Layer_1" xmlns="http://www.w3.org/2000/svg" xmlns:xlink="http://www.w3.org/1999/xlink" x="0px" y="0px"
	 viewBox="0 0 32 32" style="enable-background:new 0 0 32 32;" xml:space="preserve">
<style type="text/css">
	.st0{fill:#FFFFFF;}
</style>
<path class="st0" d="M16,3C8.8,3,3,8.8,3,16s5.8,13,13,13s13-5.8,13-13S23.2,3,16,3z M22.7,19.9c0.2-1.3,0.3-2.6,0.3-3.9
	s-0.1-2.6-0.3-3.9c2.7,1,4.3,2.5,4.3,3.9S25.3,19,22.7,19.9z M5,16c0-1.5,1.7-2.9,4.3-3.9C9.1,13.4,9,14.7,9,16s0.1,2.6,0.3,3.9
	C6.6,18.9,5,17.4,5,16z M11.5,6c-0.7,1.2-1.3,2.5-1.7,3.8c-1.3,0.4-2.6,0.9-3.8,1.7C7.1,9.1,9.1,7.1,11.5,6z M6,20.5
	c1.3,0.8,2.8,1.4,4.3,1.8h0.1c1.8,0.5,3.7,0.7,5.6,0.7c0.6,0,1.2,0,1.8-0.1c0.6,0,1-0.5,0.9-1.1s-0.5-1-1.1-0.9
	C17.1,21,16.6,21,16,21c-1.5,0-3-0.1-4.5-0.5C11.2,19,11,17.5,11,16c0-6.5,2.6-11,5-11c1,0,2,0.8,2.9,2.1c0.2,0.3,0.5,0.5,0.8,0.5
	c0.2,0,0.4,0,0.5-0.2c0.5-0.3,0.6-0.9,0.3-1.4l0,0c0,0,0-0.1-0.1-0.1c2.4,1.1,4.4,3.1,5.5,5.5c-1.4-0.9-2.9-1.5-4.5-1.8l0,0
	C19.7,9.2,17.9,9,16,9c-0.6,0-1.2,0-1.8,0.1c-0.6,0-1,0.5-0.9,1.1c0,0.6,0.5,1,1.1,0.9c0.5,0,1.1-0.1,1.6-0.1c1.5,0,3,0.1,4.5,0.5
	c0.3,1.5,0.5,3,0.5,4.5c0,6.5-2.6,11-5,11c-1,0-2-0.8-2.9-2.1c-0.3-0.5-0.9-0.7-1.4-0.4c-0.5,0.3-0.7,0.9-0.4,1.4c0,0,0,0.1,0.1,0.1
	c0,0,0,0.1,0.1,0.1C9,24.9,7.1,22.9,6,20.5z M20.5,26c0.7-1.2,1.3-2.5,1.7-3.9c1.3-0.4,2.6-0.9,3.8-1.6C24.9,22.9,22.9,24.9,20.5,26
	z"/>
</svg>
