<?xml version="1.0" encoding="utf-8"?>
<!-- Generator: Adobe Illustrator 22.0.0, SVG Export Plug-In . SVG Version: 6.00 Build 0)  -->
<svg version="1.1" id="Layer_1" xmlns="http://www.w3.org/2000/svg" xmlns:xlink="http://www.w3.org/1999/xlink" x="0px" y="0px"
	 viewBox="0 0 75 75" style="enable-background:new 0 0 75 75;" xml:space="preserve">
<style type="text/css">
	.st0{fill:#FFFFFF;}
</style>
<path class="st0" d="M20.8,36.2c-0.3-0.5-0.9-0.7-1.5-0.4s-0.7,0.9-0.4,1.5l0.9-0.5L19,37.2c0.3,0.5,0.9,0.7,1.5,0.4
	C20.9,37.4,21.1,36.7,20.8,36.2L20.8,36.2z M23.4,38.7c-0.5-0.3-1.1-0.1-1.5,0.4c-0.3,0.5-0.1,1.1,0.4,1.5c0,0,0,0,0,0
	c0.5,0.3,1.2,0.1,1.5-0.4C24,39.6,23.9,39,23.4,38.7L23.4,38.7z M22.8,26.9c0.2,0,0.4,0,0.5-0.1h0c0.5-0.3,0.7-0.9,0.4-1.5
	s-0.9-0.7-1.5-0.4l0.5,0.9L22.3,25c-0.5,0.3-0.7,0.9-0.4,1.5C22,26.7,22.4,26.9,22.8,26.9L22.8,26.9z M19.3,29.7
	c0.5,0.3,1.2,0.1,1.5-0.4c0.3-0.5,0.1-1.2-0.4-1.5c-0.5-0.3-1.1-0.1-1.5,0.4c0,0,0,0,0,0C18.7,28.7,18.8,29.4,19.3,29.7z M19.9,32.7
	c0-0.6-0.5-1.1-1.1-1.1c-0.6,0-1.1,0.5-1.1,1.1l0,0c0,0.6,0.5,1.1,1.1,1.1l0,0C19.4,33.8,19.9,33.3,19.9,32.7z M73.6,30.6l-3-5.9
	c-1.5-2.9-3-5.7-4.4-8.6c0,0,0-0.1,0-0.1c0,0,0,0,0,0c0,0,0,0-0.1-0.1l0,0c0,0-0.1-0.1-0.1-0.1c0,0,0,0,0,0s0,0-0.1-0.1l0,0
	c0,0-0.1,0-0.1-0.1l-9.8-5.2c-0.3-0.2-0.7-0.2-1,0c-0.9,0.5-1.8,0.9-2.8,1.2c-1.3,0.3-2.3,0.4-3.3,0.4c-1.2,0-3.1,0.1-5.5-0.6
	c-0.8-0.3-1.7-0.6-2.5-1c-0.3-0.2-0.7-0.2-1,0l-2.4,1.2l-2.4-1.2c-0.3-0.2-0.6-0.2-0.9,0c-2.3,0.7-4.6,1-7,1c-2.4,0-4.9-0.3-7.2-1
	c0,0,0,0,0,0c-0.3-0.2-0.7-0.2-1,0l-9.8,5.1l0,0c0,0-0.1,0-0.1,0.1c0,0,0,0,0,0c0,0-0.1,0.1-0.1,0.1l0,0c0,0-0.1,0.1-0.1,0.1l0,0
	c0,0,0,0.1-0.1,0.1l0,0l0,0L1,30.5c-0.5,1-0.1,2.3,0.9,2.8c0,0,0.1,0,0.1,0l2.2,1c2.1,0.9,4.3,1.9,6.4,2.9
	c0.5,8.1,0.5,16.2,0.1,24.3c-0.1,1.1,0.8,2.2,2,2.2c0,0,0.1,0,0.1,0h28.2l0,0h20.9c1.1,0,2.1-0.9,2.1-2.1c0,0,0-0.1,0-0.1
	c-0.4-8.1-0.4-16.2,0.1-24.3l8.5-3.9C73.6,32.9,74.1,31.7,73.6,30.6C73.6,30.6,73.6,30.6,73.6,30.6L73.6,30.6z M5,32.5l-2.1-0.9
	L8.8,20c0.7,5,1.2,10,1.6,14.9C8.6,34.1,6.8,33.3,5,32.5z M26.8,13.5c0.1,0,0.1,0,0.2,0c1.9,0,3.8-0.2,5.6-0.6
	c-0.7,1-2.2,2.3-4.9,2.5h-1.7c-2.8-0.3-4.2-1.5-4.9-2.5C22.9,13.3,24.8,13.5,26.8,13.5z M41,36.5c0,0.2,0,0.4,0,0.5
	c-0.5,8.2-0.5,16.4-0.1,24.5H12.8c0.4-8.2,0.4-16.4-0.1-24.5c0-0.2,0-0.3,0-0.5c0,0,0-0.1,0-0.1c-0.4-6.5-1.1-13-2-19.4l8-4.2
	c0.2,0.5,0.5,1,0.8,1.5c0.9,1.3,2.8,2.9,6.4,3.2c0,0,0.1,0,0.1,0h1.8c0,0,0.1,0,0.1,0c3.5-0.3,5.4-1.9,6.4-3.2
	c0.3-0.4,0.6-0.9,0.8-1.5l8,4.2c-0.9,6.4-1.7,12.9-2,19.4C41,36.5,41,36.5,41,36.5z M61.9,36.5c0,0,0,0.1,0,0.1c0,0.2,0,0.3,0,0.5
	c-0.5,8.2-0.5,16.4-0.1,24.5H43c0,0,0,0,0-0.1c-0.4-8.1-0.4-16.2,0.1-24.3l8.5-3.9c1-0.5,1.5-1.7,1-2.8c0,0,0-0.1,0-0.1L49.8,25
	c-1.5-3-3.1-6-4.6-9c0,0,0,0,0-0.1l0,0c0,0,0,0,0-0.1l0,0c0,0-0.1-0.1-0.1-0.1l0,0c0,0,0,0-0.1-0.1l0,0c0,0-0.1,0-0.1-0.1l-5.1-2.7
	l0.6-0.3c0.7,0.3,1.5,0.6,2.3,0.9c2.7,0.8,5,0.7,6.2,0.7c1.1,0,2.3-0.1,3.9-0.5c1-0.3,1.9-0.6,2.8-1.1l8.6,4.5
	C63,23.5,62.3,30,61.9,36.5z M43.3,34.9c0.3-5,0.9-10,1.6-14.9c1,2,2.1,4,3.1,6l2.9,5.6L43.3,34.9z M64.2,34.9
	c0.3-5,0.8-10,1.6-14.9c1,1.9,2,3.8,2.9,5.7l3,5.9L64.2,34.9z M32.8,29.2c0.3,0.5,0.9,0.7,1.5,0.4c0.5-0.3,0.7-0.9,0.4-1.5l0,0
	l-0.9,0.5l0.9-0.5c-0.3-0.5-0.9-0.7-1.5-0.4C32.7,28.1,32.5,28.7,32.8,29.2L32.8,29.2z M34.3,35.8c-0.5-0.3-1.2-0.1-1.5,0.4
	c-0.3,0.5-0.1,1.2,0.4,1.5c0.5,0.3,1.2,0.1,1.5-0.4c0,0,0,0,0,0C34.9,36.7,34.8,36.1,34.3,35.8L34.3,35.8z M35.9,32.7L35.9,32.7
	L35.9,32.7L35.9,32.7c0-0.6-0.5-1.1-1.1-1.1s-1.1,0.5-1.1,1.1v0l0,0c0,0,0,0,0,0c0,0.6,0.5,1.1,1.1,1.1S35.9,33.4,35.9,32.7
	L35.9,32.7L35.9,32.7L35.9,32.7L35.9,32.7z M30.3,26.7c0.5,0.3,1.2,0.1,1.5-0.4c0.3-0.5,0.1-1.2-0.4-1.5h0c-0.5-0.3-1.1-0.1-1.5,0.4
	l0,0C29.6,25.8,29.7,26.4,30.3,26.7L30.3,26.7z M26.8,39.6L26.8,39.6c-0.6,0-1.1,0.5-1.1,1.1s0.5,1.1,1.1,1.1l0,0
	c0.6,0,1.1-0.5,1.1-1.1C27.9,40.1,27.4,39.6,26.8,39.6L26.8,39.6z M26.8,25.8C26.8,25.8,26.8,25.8,26.8,25.8c0.6,0,1.1-0.5,1.1-1.1
	s-0.5-1-1.1-1l0,0v1.1v-1.1c-0.6,0-1.1,0.5-1.1,1.1C25.7,25.3,26.2,25.8,26.8,25.8L26.8,25.8z M30.3,38.7L30.3,38.7
	c-0.5,0.3-0.7,1-0.4,1.5c0.3,0.5,0.9,0.7,1.5,0.4l-0.5-0.9l0.5,0.9c0.5-0.3,0.7-0.9,0.4-1.5C31.4,38.6,30.8,38.4,30.3,38.7
	L30.3,38.7L30.3,38.7z"/>
</svg>
