<?xml version="1.0" encoding="utf-8"?>
<!-- Generator: Adobe Illustrator 22.0.0, SVG Export Plug-In . SVG Version: 6.00 Build 0)  -->
<svg version="1.1" id="Layer_1" xmlns="http://www.w3.org/2000/svg" xmlns:xlink="http://www.w3.org/1999/xlink" x="0px" y="0px"
	 viewBox="0 0 75 75" style="enable-background:new 0 0 75 75;" xml:space="preserve">
<style type="text/css">
	.st0{fill:#FFFFFF;}
</style>
<path class="st0" d="M37.5,1.8C17.7,1.8,1.8,17.7,1.8,37.5s15.9,35.7,35.7,35.7s35.7-15.9,35.7-35.7S57.3,1.8,37.5,1.8z M55.9,48.2
	c0.5-3.6,0.8-7.1,0.8-10.7s-0.3-7.1-0.8-10.7c7.4,2.7,11.8,6.9,11.8,10.7S63,45.7,55.9,48.2z M7.3,37.5c0-4.1,4.7-8,11.8-10.7
	c-0.5,3.6-0.8,7.1-0.8,10.7s0.3,7.1,0.8,10.7C11.7,45.5,7.3,41.3,7.3,37.5z M25.2,10.1c-1.9,3.3-3.6,6.9-4.7,10.4
	c-3.6,1.1-7.1,2.5-10.4,4.7C13.1,18.6,18.6,13.1,25.2,10.1z M10.1,49.8c3.6,2.2,7.7,3.8,11.8,4.9h0.3c4.9,1.4,10.2,1.9,15.4,1.9
	c1.6,0,3.3,0,4.9-0.3c1.6,0,2.7-1.4,2.5-3s-1.4-2.7-3-2.5c-1.4,0.3-2.7,0.3-4.4,0.3c-4.1,0-8.2-0.3-12.3-1.4
	c-0.8-4.1-1.4-8.2-1.4-12.3c0-17.8,7.1-30.2,13.7-30.2c2.7,0,5.5,2.2,8,5.8c0.5,0.8,1.4,1.4,2.2,1.4c0.5,0,1.1,0,1.4-0.5
	c1.4-0.8,1.6-2.5,0.8-3.8l0,0c0,0,0-0.3-0.3-0.3c6.6,3,12.1,8.5,15.1,15.1c-3.8-2.5-8-4.1-12.3-4.9l0,0c-4.7-1.1-9.6-1.6-14.8-1.6
	c-1.6,0-3.3,0-4.9,0.3c-1.6,0-2.7,1.4-2.5,3c0,1.6,1.4,2.7,3,2.5c1.4,0,3-0.3,4.4-0.3c4.1,0,8.2,0.3,12.3,1.4
	c0.8,4.1,1.4,8.2,1.4,12.3c0,17.8-7.1,30.2-13.7,30.2c-2.7,0-5.5-2.2-8-5.8c-0.8-1.4-2.5-1.9-3.8-1.1c-1.4,0.8-1.9,2.5-1.1,3.8
	c0,0,0,0.3,0.3,0.3c0,0,0,0.3,0.3,0.3C18.3,61.9,13.1,56.4,10.1,49.8z M49.8,64.9c1.9-3.3,3.6-6.9,4.7-10.7
	c3.6-1.1,7.1-2.5,10.4-4.4C61.9,56.4,56.4,61.9,49.8,64.9z"/>
</svg>
