<?xml version="1.0" encoding="utf-8"?>
<!-- Generator: Adobe Illustrator 22.0.0, SVG Export Plug-In . SVG Version: 6.00 Build 0)  -->
<svg version="1.1" id="Layer_1" xmlns="http://www.w3.org/2000/svg" xmlns:xlink="http://www.w3.org/1999/xlink" x="0px" y="0px"
	 viewBox="0 0 300 300" style="enable-background:new 0 0 300 300;" xml:space="preserve">
<style type="text/css">
	.st0{fill-rule:evenodd;clip-rule:evenodd;fill:url(#SVGID_1_);}
</style>
<linearGradient id="SVGID_1_" gradientUnits="userSpaceOnUse" x1="149.8219" y1="291.0361" x2="149.8219" y2="15.7751">
	<stop  offset="0" style="stop-color:#6F4118"/>
	<stop  offset="0.5" style="stop-color:#CC9639"/>
	<stop  offset="1" style="stop-color:#6F4118"/>
</linearGradient>
<path class="st0" d="M203.8,114.1h-14.7c-0.9,16.6-14.7,29.9-31.6,29.9h-27.6v10h16.7c12.5,0,22.6,10.1,22.6,22.6l0.5,72.2
	c0,22.9-21.7,42.3-44.6,42.3s-43.7-19.4-43.7-42.3v-72.2c0-12.5,10.1-22.6,22.6-22.6h16.3v-10h-8.1C94.7,144,81,129.8,81,112.3
	l0-71.9c0.4-13.3,11.3-24,24.6-24s24.3,10.7,24.6,24h0l-0.5,93.3h24.4c12.5,0,21.7-7.9,23.6-19.5h-13.4c-2.3,0-4.3-1.5-4.8-3.8
	l-9.8-38.6c-0.3-1.3-0.1-2.6,0.5-3.8l29.5-49.8c1.9-3.3,6.7-3.3,8.6,0L217.9,68c0.7,1.1,0.9,2.5,0.5,3.8l-9.8,38.6
	C208.1,112.6,206.1,114.1,203.8,114.1z M120.3,40.4c-0.3-7.8-6.8-14-14.7-14s-14.3,6.2-14.7,14l0,69.3c0,14,11.8,24,25.8,24h3.6
	L120.3,40.4z M159.6,178.1c0-9.7-7.9-14.9-17.6-14.9h-11.7v29.3h29.4L159.6,178.1z M119.9,163.1h-11.1c-9.7,0-17.6,5.2-17.6,14.9
	v14.3h28.8V163.1z M119.9,202.8H91.2v44.7c0,17.8,16.2,33,34.1,33s34.8-15.2,34.8-33l-0.2-44.7h-29.4H119.9z M184.2,65.1
	c-2.8,0-5.2,2.3-5.2,5.2s2.3,5.2,5.2,5.2c2.8,0,5.2-2.3,5.2-5.2S187,65.1,184.2,65.1z M189.1,56.4c5.7,2.1,9.8,7.6,9.7,14.1
	c-0.1,7.7-6.3,14.2-14,14.5c-8.5,0.4-15.4-6.3-15.4-14.7c0-6.4,4.1-11.8,9.8-13.9V39l-17.7,29.8c-0.7,1.1-0.9,2.5-0.6,3.7l6.7,27.5
	c0.5,2.2,2.6,3.8,4.9,3.8h23.2c2.3,0,4.3-1.6,4.9-3.8l6.7-27.5c0.3-1.3,0.1-2.6-0.6-3.7L189.1,39V56.4z"/>
</svg>
